%TF.GenerationSoftware,KiCad,Pcbnew,7.0.6*%
%TF.CreationDate,2023-07-14T18:39:08+01:00*%
%TF.ProjectId,Galia,47616c69-612e-46b6-9963-61645f706362,V1.0*%
%TF.SameCoordinates,Original*%
%TF.FileFunction,Copper,L1,Top*%
%TF.FilePolarity,Positive*%
%FSLAX46Y46*%
G04 Gerber Fmt 4.6, Leading zero omitted, Abs format (unit mm)*
G04 Created by KiCad (PCBNEW 7.0.6) date 2023-07-14 18:39:08*
%MOMM*%
%LPD*%
G01*
G04 APERTURE LIST*
G04 Aperture macros list*
%AMRoundRect*
0 Rectangle with rounded corners*
0 $1 Rounding radius*
0 $2 $3 $4 $5 $6 $7 $8 $9 X,Y pos of 4 corners*
0 Add a 4 corners polygon primitive as box body*
4,1,4,$2,$3,$4,$5,$6,$7,$8,$9,$2,$3,0*
0 Add four circle primitives for the rounded corners*
1,1,$1+$1,$2,$3*
1,1,$1+$1,$4,$5*
1,1,$1+$1,$6,$7*
1,1,$1+$1,$8,$9*
0 Add four rect primitives between the rounded corners*
20,1,$1+$1,$2,$3,$4,$5,0*
20,1,$1+$1,$4,$5,$6,$7,0*
20,1,$1+$1,$6,$7,$8,$9,0*
20,1,$1+$1,$8,$9,$2,$3,0*%
G04 Aperture macros list end*
%TA.AperFunction,ComponentPad*%
%ADD10C,5.600000*%
%TD*%
%TA.AperFunction,SMDPad,CuDef*%
%ADD11R,0.300000X0.800000*%
%TD*%
%TA.AperFunction,SMDPad,CuDef*%
%ADD12R,0.400000X0.800000*%
%TD*%
%TA.AperFunction,SMDPad,CuDef*%
%ADD13RoundRect,0.150000X0.150000X0.200000X-0.150000X0.200000X-0.150000X-0.200000X0.150000X-0.200000X0*%
%TD*%
%TA.AperFunction,SMDPad,CuDef*%
%ADD14R,1.550000X1.300000*%
%TD*%
%TA.AperFunction,SMDPad,CuDef*%
%ADD15R,0.300000X0.870000*%
%TD*%
%TA.AperFunction,ComponentPad*%
%ADD16O,2.200000X1.100000*%
%TD*%
%TA.AperFunction,SMDPad,CuDef*%
%ADD17R,0.300000X0.550000*%
%TD*%
%TA.AperFunction,SMDPad,CuDef*%
%ADD18RoundRect,0.150000X-0.150000X-0.200000X0.150000X-0.200000X0.150000X0.200000X-0.150000X0.200000X0*%
%TD*%
%TA.AperFunction,ViaPad*%
%ADD19C,0.600000*%
%TD*%
%TA.AperFunction,ViaPad*%
%ADD20C,0.500000*%
%TD*%
%TA.AperFunction,Conductor*%
%ADD21C,0.300000*%
%TD*%
G04 APERTURE END LIST*
D10*
%TO.P,H1,1*%
%TO.N,N/C*%
X65800000Y-53000000D03*
%TD*%
%TO.P,H2,1,1*%
%TO.N,GND*%
X114200000Y-53000000D03*
%TD*%
D11*
%TO.P,J2,1,Pin_1*%
%TO.N,/~{RST}*%
X77150000Y-46300000D03*
%TO.P,J2,2,Pin_2*%
%TO.N,/BOOTSEL*%
X77650000Y-46300000D03*
%TO.P,J2,3,Pin_3*%
%TO.N,/D+*%
X78150000Y-46300000D03*
%TO.P,J2,4,Pin_4*%
%TO.N,/D-*%
X78650000Y-46300000D03*
%TO.P,J2,5,Pin_5*%
%TO.N,CC2*%
X79150000Y-46300000D03*
%TO.P,J2,6,Pin_6*%
%TO.N,CC1*%
X79650000Y-46300000D03*
%TO.P,J2,7,Pin_7*%
%TO.N,GND*%
X80150000Y-46300000D03*
%TO.P,J2,8,Pin_8*%
X80650000Y-46300000D03*
%TO.P,J2,9,Pin_9*%
X81150000Y-46300000D03*
%TO.P,J2,10,Pin_10*%
X81650000Y-46300000D03*
%TO.P,J2,11,Pin_11*%
X82150000Y-46300000D03*
%TO.P,J2,12,Pin_12*%
X82650000Y-46300000D03*
%TO.P,J2,13,Pin_13*%
X83150000Y-46300000D03*
%TO.P,J2,14,Pin_14*%
%TO.N,VBUS*%
X83650000Y-46300000D03*
%TO.P,J2,15,Pin_15*%
X84150000Y-46300000D03*
%TO.P,J2,16,Pin_16*%
X84650000Y-46300000D03*
%TO.P,J2,17,Pin_17*%
X85150000Y-46300000D03*
%TO.P,J2,18,Pin_18*%
X85650000Y-46300000D03*
%TO.P,J2,19,Pin_19*%
X86150000Y-46300000D03*
%TO.P,J2,20,Pin_20*%
X86650000Y-46300000D03*
D12*
%TO.P,J2,MP,MountPin*%
%TO.N,GND*%
X87650000Y-43800000D03*
X76150000Y-43800000D03*
%TD*%
D13*
%TO.P,D2,1,K*%
%TO.N,VBUS*%
X85900000Y-49200000D03*
%TO.P,D2,2,A*%
%TO.N,GND*%
X87300000Y-49200000D03*
%TD*%
D14*
%TO.P,SW2,1,A*%
%TO.N,GND*%
X77980000Y-55250000D03*
X70020000Y-55250000D03*
%TO.P,SW2,2,B*%
%TO.N,/~{RST}*%
X77980000Y-50750000D03*
X70020000Y-50750000D03*
%TD*%
%TO.P,SW1,1,A*%
%TO.N,GND*%
X102020000Y-50750000D03*
X109980000Y-50750000D03*
%TO.P,SW1,2,B*%
%TO.N,/BOOTSEL*%
X102020000Y-55250000D03*
X109980000Y-55250000D03*
%TD*%
D15*
%TO.P,J1,A1,GND*%
%TO.N,GND*%
X92750000Y-53865000D03*
%TO.P,J1,A4,VBUS*%
%TO.N,VBUS*%
X91250000Y-53865000D03*
%TO.P,J1,A5,CC1*%
%TO.N,CC1*%
X90750000Y-53865000D03*
%TO.P,J1,A6,D+*%
%TO.N,/D+*%
X90250000Y-53865000D03*
%TO.P,J1,A7,D-*%
%TO.N,/D-*%
X89750000Y-53865000D03*
%TO.P,J1,A8,SBU1*%
%TO.N,unconnected-(J1-SBU1-PadA8)*%
X89250000Y-53865000D03*
%TO.P,J1,A9,VBUS*%
%TO.N,VBUS*%
X88750000Y-53865000D03*
%TO.P,J1,A12,GND*%
%TO.N,GND*%
X87250000Y-53865000D03*
%TO.P,J1,B1,GND*%
X87250000Y-52135000D03*
%TO.P,J1,B4,VBUS*%
%TO.N,VBUS*%
X88750000Y-52135000D03*
%TO.P,J1,B5,CC2*%
%TO.N,CC2*%
X89250000Y-52135000D03*
%TO.P,J1,B6,D+*%
%TO.N,/D+*%
X89750000Y-52135000D03*
%TO.P,J1,B7,D-*%
%TO.N,/D-*%
X90250000Y-52135000D03*
%TO.P,J1,B8,SBU2*%
%TO.N,unconnected-(J1-SBU2-PadB8)*%
X90750000Y-52135000D03*
%TO.P,J1,B9,VBUS*%
%TO.N,VBUS*%
X91250000Y-52135000D03*
%TO.P,J1,B12,GND*%
%TO.N,GND*%
X92750000Y-52135000D03*
D16*
%TO.P,J1,S1,SHIELD*%
X92400000Y-55150000D03*
X92400000Y-50850000D03*
X87600000Y-55150000D03*
X87600000Y-50850000D03*
%TD*%
D17*
%TO.P,U2,1,IO1*%
%TO.N,CC2*%
X89000000Y-49385000D03*
%TO.P,U2,2,IO2*%
%TO.N,/D+*%
X89500000Y-49385000D03*
%TO.P,U2,3,GND*%
%TO.N,GND*%
X90000000Y-49385000D03*
%TO.P,U2,4,IO3*%
%TO.N,/D-*%
X90500000Y-49385000D03*
%TO.P,U2,5,IO4*%
%TO.N,CC1*%
X91000000Y-49385000D03*
%TO.P,U2,6,NC*%
X91000000Y-48615000D03*
%TO.P,U2,7,NC*%
%TO.N,/D-*%
X90500000Y-48615000D03*
%TO.P,U2,8,GND*%
%TO.N,GND*%
X90000000Y-48615000D03*
%TO.P,U2,9,NC*%
%TO.N,/D+*%
X89500000Y-48615000D03*
%TO.P,U2,10,NC*%
%TO.N,CC2*%
X89000000Y-48615000D03*
%TD*%
D18*
%TO.P,D1,1,K*%
%TO.N,VBUS*%
X94100000Y-49200000D03*
%TO.P,D1,2,A*%
%TO.N,GND*%
X92700000Y-49200000D03*
%TD*%
D19*
%TO.N,VBUS*%
X94100000Y-49900000D03*
X88200000Y-53000000D03*
X85900000Y-49900000D03*
X83950000Y-45500000D03*
X94900000Y-49900000D03*
X85100000Y-49100000D03*
X84750000Y-45500000D03*
X91800000Y-53800000D03*
X86350000Y-45500000D03*
X88200000Y-53800000D03*
X88200000Y-52200000D03*
X91800000Y-53000000D03*
X86350000Y-47100000D03*
X91800000Y-52200000D03*
X85100000Y-49900000D03*
X84750000Y-47100000D03*
X85550000Y-45500000D03*
X85550000Y-47100000D03*
X94900000Y-49100000D03*
X83950000Y-47100000D03*
%TO.N,GND*%
X82850000Y-47100000D03*
X102000000Y-51800000D03*
X87250000Y-53000000D03*
X87900000Y-49600000D03*
X92100000Y-48800000D03*
X92750000Y-53000000D03*
X80450000Y-47100000D03*
X81250000Y-45500000D03*
X110000000Y-51800000D03*
X82050000Y-47100000D03*
X92100000Y-49600000D03*
X70000000Y-54200000D03*
X82050000Y-45500000D03*
X87900000Y-48800000D03*
X81250000Y-47100000D03*
X90000000Y-47500000D03*
X82850000Y-45500000D03*
X78000000Y-54200000D03*
X80450000Y-45500000D03*
D20*
%TO.N,CC1*%
X91017406Y-50110187D03*
X90750000Y-54900000D03*
%TO.N,/D-*%
X89750000Y-54900000D03*
X90200753Y-50106627D03*
D19*
%TO.N,CC2*%
X88500000Y-45500000D03*
D20*
X88500000Y-47900000D03*
%TD*%
D21*
%TO.N,GND*%
X90000000Y-48615000D02*
X90000000Y-47500000D01*
%TO.N,CC1*%
X88346447Y-46300000D02*
X86846447Y-44800000D01*
X91150000Y-47976346D02*
X91150000Y-47023655D01*
X91017406Y-50110187D02*
X91000000Y-50092781D01*
X86846447Y-44800000D02*
X80000000Y-44800000D01*
X90426345Y-46300000D02*
X88346447Y-46300000D01*
X90750000Y-53865000D02*
X90750000Y-54900000D01*
X91000000Y-48126346D02*
X91150000Y-47976346D01*
X91000000Y-49385000D02*
X91000000Y-48615000D01*
X79650000Y-45150000D02*
X79650000Y-46300000D01*
X91000000Y-50092781D02*
X91000000Y-49385000D01*
X91000000Y-48615000D02*
X91000000Y-48126346D01*
X80000000Y-44800000D02*
X79650000Y-45150000D01*
X91150000Y-47023655D02*
X90426345Y-46300000D01*
%TO.N,/D+*%
X89750000Y-52750000D02*
X89750000Y-52135000D01*
X87129288Y-48300000D02*
X88129288Y-47300000D01*
X78150000Y-47250000D02*
X79200000Y-48300000D01*
X89750000Y-50542893D02*
X89750000Y-52135000D01*
X90250000Y-53865000D02*
X90250000Y-53250000D01*
X89500000Y-49385000D02*
X89500000Y-48615000D01*
X79200000Y-48300000D02*
X87129288Y-48300000D01*
X88129288Y-47300000D02*
X88880760Y-47300000D01*
X88880760Y-47300000D02*
X89500000Y-47919240D01*
X78150000Y-46300000D02*
X78150000Y-47250000D01*
X89500000Y-47919240D02*
X89500000Y-48615000D01*
X89500000Y-49385000D02*
X89500000Y-50292893D01*
X90250000Y-53250000D02*
X89750000Y-52750000D01*
X89500000Y-50292893D02*
X89750000Y-50542893D01*
%TO.N,/D-*%
X86922182Y-47800000D02*
X79407106Y-47800000D01*
X87922181Y-46800000D02*
X86922182Y-47800000D01*
X79407106Y-47800000D02*
X78650000Y-47042894D01*
X90250000Y-52135000D02*
X90250000Y-50155874D01*
X90500000Y-49385000D02*
X90500000Y-48615000D01*
X90650000Y-47230761D02*
X90219239Y-46800000D01*
X90500000Y-47919239D02*
X90650000Y-47769239D01*
X78650000Y-47042894D02*
X78650000Y-46300000D01*
X89750000Y-53865000D02*
X89750000Y-54900000D01*
X90500000Y-49385000D02*
X90500000Y-49807380D01*
X90650000Y-47769239D02*
X90650000Y-47230761D01*
X90250000Y-50155874D02*
X90200753Y-50106627D01*
X90500000Y-49807380D02*
X90200753Y-50106627D01*
X90219239Y-46800000D02*
X87922181Y-46800000D01*
X90500000Y-48615000D02*
X90500000Y-47919239D01*
%TO.N,CC2*%
X88500000Y-47900000D02*
X88773654Y-47900000D01*
X88253553Y-45500000D02*
X87053553Y-44300000D01*
X89000000Y-50500000D02*
X89000000Y-49385000D01*
X89000000Y-48126346D02*
X89000000Y-48615000D01*
X89250000Y-52135000D02*
X89250000Y-50750000D01*
X79150000Y-44942894D02*
X79150000Y-46300000D01*
X79792894Y-44300000D02*
X79150000Y-44942894D01*
X89000000Y-49385000D02*
X89000000Y-48615000D01*
X88500000Y-45500000D02*
X88253553Y-45500000D01*
X88773654Y-47900000D02*
X89000000Y-48126346D01*
X89250000Y-50750000D02*
X89000000Y-50500000D01*
X87053553Y-44300000D02*
X79792894Y-44300000D01*
%TO.N,/BOOTSEL*%
X100800000Y-55250000D02*
X102020000Y-55250000D01*
X82400000Y-50100000D02*
X82400000Y-54300000D01*
X78992894Y-48800000D02*
X81100000Y-48800000D01*
X84150000Y-56050000D02*
X100000000Y-56050000D01*
X81100000Y-48800000D02*
X82400000Y-50100000D01*
X82400000Y-54300000D02*
X84150000Y-56050000D01*
X77650000Y-47457106D02*
X78992894Y-48800000D01*
X100000000Y-56050000D02*
X100800000Y-55250000D01*
X109980000Y-55250000D02*
X102020000Y-55250000D01*
X77650000Y-46300000D02*
X77650000Y-47457106D01*
%TO.N,/~{RST}*%
X77980000Y-50750000D02*
X70020000Y-50750000D01*
X77980000Y-48494212D02*
X77150000Y-47664212D01*
X77980000Y-50750000D02*
X77980000Y-48494212D01*
X77150000Y-47664212D02*
X77150000Y-46300000D01*
%TD*%
%TA.AperFunction,Conductor*%
%TO.N,VBUS*%
G36*
X95159191Y-48818907D02*
G01*
X95195155Y-48868407D01*
X95200000Y-48899000D01*
X95200000Y-50101000D01*
X95181093Y-50159191D01*
X95131593Y-50195155D01*
X95101000Y-50200000D01*
X93899000Y-50200000D01*
X93840809Y-50181093D01*
X93804845Y-50131593D01*
X93800000Y-50101000D01*
X93800000Y-48899000D01*
X93818907Y-48840809D01*
X93868407Y-48804845D01*
X93899000Y-48800000D01*
X95101000Y-48800000D01*
X95159191Y-48818907D01*
G37*
%TD.AperFunction*%
%TD*%
%TA.AperFunction,Conductor*%
%TO.N,VBUS*%
G36*
X86759191Y-45218907D02*
G01*
X86795155Y-45268407D01*
X86800000Y-45299000D01*
X86800000Y-47301000D01*
X86781093Y-47359191D01*
X86731593Y-47395155D01*
X86701000Y-47400000D01*
X83599000Y-47400000D01*
X83540809Y-47381093D01*
X83504845Y-47331593D01*
X83500000Y-47301000D01*
X83500000Y-46727255D01*
X83500239Y-46722398D01*
X83500500Y-46719747D01*
X83500500Y-45880253D01*
X83500238Y-45877592D01*
X83500000Y-45872739D01*
X83500000Y-45299000D01*
X83518907Y-45240809D01*
X83568407Y-45204845D01*
X83599000Y-45200000D01*
X86701000Y-45200000D01*
X86759191Y-45218907D01*
G37*
%TD.AperFunction*%
%TD*%
%TA.AperFunction,Conductor*%
%TO.N,VBUS*%
G36*
X86159191Y-48818907D02*
G01*
X86195155Y-48868407D01*
X86200000Y-48899000D01*
X86200000Y-50101000D01*
X86181093Y-50159191D01*
X86131593Y-50195155D01*
X86101000Y-50200000D01*
X84899000Y-50200000D01*
X84840809Y-50181093D01*
X84804845Y-50131593D01*
X84800000Y-50101000D01*
X84800000Y-48899000D01*
X84818907Y-48840809D01*
X84868407Y-48804845D01*
X84899000Y-48800000D01*
X86101000Y-48800000D01*
X86159191Y-48818907D01*
G37*
%TD.AperFunction*%
%TD*%
%TA.AperFunction,Conductor*%
%TO.N,VBUS*%
G36*
X88858691Y-51718907D02*
G01*
X88894655Y-51768407D01*
X88899500Y-51799000D01*
X88899500Y-52589747D01*
X88899761Y-52592398D01*
X88900000Y-52597255D01*
X88900000Y-53402739D01*
X88899762Y-53407592D01*
X88899500Y-53410253D01*
X88899500Y-54201000D01*
X88880593Y-54259191D01*
X88831093Y-54295155D01*
X88800500Y-54300000D01*
X87999000Y-54300000D01*
X87940809Y-54281093D01*
X87904845Y-54231593D01*
X87900000Y-54201000D01*
X87900000Y-51799000D01*
X87918907Y-51740809D01*
X87968407Y-51704845D01*
X87999000Y-51700000D01*
X88800500Y-51700000D01*
X88858691Y-51718907D01*
G37*
%TD.AperFunction*%
%TD*%
%TA.AperFunction,Conductor*%
%TO.N,VBUS*%
G36*
X92059191Y-51718907D02*
G01*
X92095155Y-51768407D01*
X92100000Y-51799000D01*
X92100000Y-54201000D01*
X92081093Y-54259191D01*
X92031593Y-54295155D01*
X92001000Y-54300000D01*
X91199500Y-54300000D01*
X91141309Y-54281093D01*
X91105345Y-54231593D01*
X91100500Y-54201000D01*
X91100500Y-53410253D01*
X91100238Y-53407592D01*
X91100000Y-53402739D01*
X91100000Y-52597255D01*
X91100239Y-52592398D01*
X91100500Y-52589747D01*
X91100500Y-51799000D01*
X91119407Y-51740809D01*
X91168907Y-51704845D01*
X91199500Y-51700000D01*
X92001000Y-51700000D01*
X92059191Y-51718907D01*
G37*
%TD.AperFunction*%
%TD*%
%TA.AperFunction,Conductor*%
%TO.N,GND*%
G36*
X78499504Y-48802291D02*
G01*
X78712091Y-49014878D01*
X78724966Y-49030734D01*
X78731456Y-49040668D01*
X78758004Y-49061331D01*
X78762603Y-49065391D01*
X78765583Y-49068371D01*
X78765586Y-49068373D01*
X78765588Y-49068375D01*
X78783324Y-49081038D01*
X78823768Y-49112517D01*
X78823774Y-49112519D01*
X78830248Y-49116022D01*
X78836828Y-49119240D01*
X78885939Y-49133861D01*
X78934406Y-49150500D01*
X78934410Y-49150500D01*
X78941630Y-49151705D01*
X78948933Y-49152615D01*
X78948940Y-49152617D01*
X79000125Y-49150500D01*
X80913810Y-49150500D01*
X80972001Y-49169407D01*
X80983814Y-49179496D01*
X82020504Y-50216186D01*
X82048281Y-50270703D01*
X82049500Y-50286190D01*
X82049500Y-54253381D01*
X82047393Y-54273696D01*
X82044957Y-54285313D01*
X82049120Y-54318709D01*
X82049500Y-54324837D01*
X82049500Y-54329038D01*
X82053087Y-54350541D01*
X82059425Y-54401388D01*
X82061527Y-54408448D01*
X82063907Y-54415380D01*
X82088295Y-54460444D01*
X82110801Y-54506482D01*
X82115078Y-54512472D01*
X82119579Y-54518255D01*
X82157275Y-54552958D01*
X83634815Y-56030496D01*
X83662592Y-56085013D01*
X83653021Y-56145445D01*
X83609756Y-56188710D01*
X83564811Y-56199500D01*
X64551413Y-56199500D01*
X64551405Y-56199499D01*
X64539882Y-56199499D01*
X64501621Y-56199499D01*
X64498383Y-56199393D01*
X64268360Y-56184316D01*
X64261934Y-56183470D01*
X64037438Y-56138815D01*
X64031177Y-56137138D01*
X63814430Y-56063561D01*
X63808448Y-56061083D01*
X63603166Y-55959850D01*
X63597552Y-55956609D01*
X63407233Y-55829441D01*
X63402091Y-55825495D01*
X63230003Y-55674579D01*
X63225420Y-55669996D01*
X63224465Y-55668907D01*
X63074495Y-55497899D01*
X63070558Y-55492767D01*
X63070557Y-55492766D01*
X62943391Y-55302447D01*
X62940150Y-55296834D01*
X62940150Y-55296833D01*
X62838908Y-55091536D01*
X62836436Y-55085567D01*
X62762857Y-54868810D01*
X62761186Y-54862573D01*
X62716528Y-54638062D01*
X62715683Y-54631644D01*
X62700605Y-54401596D01*
X62700500Y-54398367D01*
X62700500Y-53784693D01*
X62719407Y-53726502D01*
X62768907Y-53690538D01*
X62830093Y-53690538D01*
X62879593Y-53726502D01*
X62894341Y-53756300D01*
X62975672Y-54027965D01*
X62975674Y-54027972D01*
X63108118Y-54335012D01*
X63114111Y-54348904D01*
X63288870Y-54651596D01*
X63497588Y-54931953D01*
X63737442Y-55186183D01*
X64005189Y-55410849D01*
X64297207Y-55602913D01*
X64609549Y-55759777D01*
X64937989Y-55879319D01*
X64937992Y-55879319D01*
X64937993Y-55879320D01*
X65278075Y-55959921D01*
X65278080Y-55959921D01*
X65278086Y-55959923D01*
X65625241Y-56000500D01*
X65625244Y-56000500D01*
X65974756Y-56000500D01*
X65974759Y-56000500D01*
X66321914Y-55959923D01*
X66321920Y-55959921D01*
X66321924Y-55959921D01*
X66548645Y-55906187D01*
X66662011Y-55879319D01*
X66990451Y-55759777D01*
X67302793Y-55602913D01*
X67594811Y-55410849D01*
X67862558Y-55186183D01*
X68102412Y-54931953D01*
X68311130Y-54651596D01*
X68485889Y-54348904D01*
X68624326Y-54027971D01*
X68724569Y-53693136D01*
X68785262Y-53348927D01*
X68805585Y-53000000D01*
X68785262Y-52651073D01*
X68724569Y-52306864D01*
X68624326Y-51972029D01*
X68485889Y-51651096D01*
X68311130Y-51348404D01*
X68102412Y-51068047D01*
X67862558Y-50813817D01*
X67594811Y-50589151D01*
X67497027Y-50524837D01*
X67302794Y-50397087D01*
X66990453Y-50240224D01*
X66990452Y-50240223D01*
X66990451Y-50240223D01*
X66727165Y-50144395D01*
X66662006Y-50120679D01*
X66321924Y-50040078D01*
X66165306Y-50021772D01*
X65974759Y-49999500D01*
X65625241Y-49999500D01*
X65434745Y-50021766D01*
X65278075Y-50040078D01*
X64937993Y-50120679D01*
X64741191Y-50192309D01*
X64609549Y-50240223D01*
X64609548Y-50240223D01*
X64609546Y-50240224D01*
X64297205Y-50397087D01*
X64005190Y-50589150D01*
X63737443Y-50813815D01*
X63497591Y-51068043D01*
X63288871Y-51348402D01*
X63288869Y-51348405D01*
X63114111Y-51651095D01*
X63114108Y-51651102D01*
X62975674Y-51972027D01*
X62975673Y-51972029D01*
X62894341Y-52243700D01*
X62859539Y-52294023D01*
X62801804Y-52314279D01*
X62743189Y-52296731D01*
X62706083Y-52248081D01*
X62700500Y-52215306D01*
X62700500Y-51601619D01*
X62700606Y-51598381D01*
X62701230Y-51588865D01*
X62715683Y-51368352D01*
X62716528Y-51361934D01*
X62719220Y-51348404D01*
X62761183Y-51137438D01*
X62762856Y-51131188D01*
X62836438Y-50914427D01*
X62838909Y-50908460D01*
X62940154Y-50703154D01*
X62943384Y-50697560D01*
X63070561Y-50507227D01*
X63074503Y-50502091D01*
X63225429Y-50329991D01*
X63229991Y-50325429D01*
X63402094Y-50174499D01*
X63407227Y-50170561D01*
X63597560Y-50043384D01*
X63603154Y-50040154D01*
X63808460Y-49938909D01*
X63814427Y-49936438D01*
X64031188Y-49862856D01*
X64037438Y-49861183D01*
X64108590Y-49847030D01*
X64261938Y-49816527D01*
X64268352Y-49815683D01*
X64498382Y-49800606D01*
X64501621Y-49800500D01*
X69018765Y-49800500D01*
X69076956Y-49819407D01*
X69112920Y-49868907D01*
X69112920Y-49930093D01*
X69101080Y-49954502D01*
X69056134Y-50021766D01*
X69056132Y-50021772D01*
X69044501Y-50080241D01*
X69044500Y-50080253D01*
X69044500Y-51419746D01*
X69044501Y-51419758D01*
X69056132Y-51478227D01*
X69056134Y-51478233D01*
X69100445Y-51544548D01*
X69100448Y-51544552D01*
X69166769Y-51588867D01*
X69211231Y-51597711D01*
X69225241Y-51600498D01*
X69225246Y-51600498D01*
X69225252Y-51600500D01*
X69225253Y-51600500D01*
X70814747Y-51600500D01*
X70814748Y-51600500D01*
X70873231Y-51588867D01*
X70939552Y-51544552D01*
X70983867Y-51478231D01*
X70995500Y-51419748D01*
X70995500Y-51199500D01*
X71014407Y-51141309D01*
X71063907Y-51105345D01*
X71094500Y-51100500D01*
X76905500Y-51100500D01*
X76963691Y-51119407D01*
X76999655Y-51168907D01*
X77004500Y-51199500D01*
X77004500Y-51419746D01*
X77004501Y-51419758D01*
X77016132Y-51478227D01*
X77016134Y-51478233D01*
X77060445Y-51544548D01*
X77060448Y-51544552D01*
X77126769Y-51588867D01*
X77171231Y-51597711D01*
X77185241Y-51600498D01*
X77185246Y-51600498D01*
X77185252Y-51600500D01*
X77185253Y-51600500D01*
X78774747Y-51600500D01*
X78774748Y-51600500D01*
X78833231Y-51588867D01*
X78899552Y-51544552D01*
X78943867Y-51478231D01*
X78955500Y-51419748D01*
X78955500Y-50080252D01*
X78943867Y-50021769D01*
X78899552Y-49955448D01*
X78899548Y-49955445D01*
X78833233Y-49911134D01*
X78833231Y-49911133D01*
X78833228Y-49911132D01*
X78833227Y-49911132D01*
X78774758Y-49899501D01*
X78774748Y-49899500D01*
X78774747Y-49899500D01*
X78429500Y-49899500D01*
X78371309Y-49880593D01*
X78335345Y-49831093D01*
X78330500Y-49800500D01*
X78330500Y-48872295D01*
X78349407Y-48814104D01*
X78398907Y-48778140D01*
X78460093Y-48778140D01*
X78499504Y-48802291D01*
G37*
%TD.AperFunction*%
%TA.AperFunction,Conductor*%
G36*
X104201618Y-43100606D02*
G01*
X104431644Y-43115682D01*
X104438065Y-43116528D01*
X104662562Y-43161184D01*
X104668816Y-43162859D01*
X104779216Y-43200335D01*
X104885565Y-43236436D01*
X104891553Y-43238916D01*
X105096835Y-43340150D01*
X105102449Y-43343391D01*
X105292768Y-43470558D01*
X105297907Y-43474501D01*
X105469995Y-43625419D01*
X105469997Y-43625420D01*
X105474580Y-43630003D01*
X105625496Y-43802089D01*
X105629442Y-43807232D01*
X105756611Y-43997554D01*
X105759851Y-44003166D01*
X105796686Y-44077861D01*
X105861082Y-44208442D01*
X105863562Y-44214430D01*
X105937139Y-44431177D01*
X105938816Y-44437438D01*
X105983471Y-44661934D01*
X105984317Y-44668360D01*
X105987413Y-44715587D01*
X105998964Y-44891829D01*
X105999395Y-44898392D01*
X105999501Y-44901631D01*
X105999501Y-47558992D01*
X105999500Y-47558995D01*
X105999500Y-47733100D01*
X105999501Y-47733117D01*
X106031586Y-47997365D01*
X106031588Y-47997380D01*
X106095295Y-48255846D01*
X106095296Y-48255849D01*
X106095297Y-48255852D01*
X106189697Y-48504764D01*
X106281879Y-48680401D01*
X106313414Y-48740487D01*
X106313415Y-48740488D01*
X106464626Y-48959556D01*
X106464631Y-48959562D01*
X106464637Y-48959571D01*
X106641168Y-49158833D01*
X106840430Y-49335364D01*
X106840440Y-49335371D01*
X106840444Y-49335374D01*
X107059512Y-49486585D01*
X107059513Y-49486586D01*
X107059515Y-49486587D01*
X107059518Y-49486589D01*
X107076110Y-49495297D01*
X107295239Y-49610305D01*
X107307366Y-49614904D01*
X107544149Y-49704703D01*
X107673387Y-49736557D01*
X107802620Y-49768411D01*
X107802622Y-49768411D01*
X107802625Y-49768412D01*
X108066895Y-49800500D01*
X108177410Y-49800500D01*
X115460118Y-49800500D01*
X115498379Y-49800500D01*
X115501617Y-49800606D01*
X115731645Y-49815682D01*
X115738063Y-49816527D01*
X115770134Y-49822907D01*
X115962561Y-49861183D01*
X115968814Y-49862858D01*
X116096062Y-49906053D01*
X116185569Y-49936437D01*
X116191544Y-49938911D01*
X116396838Y-50040151D01*
X116402446Y-50043388D01*
X116457616Y-50080252D01*
X116592766Y-50170557D01*
X116597908Y-50174503D01*
X116652858Y-50222692D01*
X116770000Y-50325422D01*
X116774577Y-50329999D01*
X116828911Y-50391955D01*
X116925496Y-50502091D01*
X116929442Y-50507233D01*
X117056610Y-50697552D01*
X117059851Y-50703166D01*
X117140242Y-50866184D01*
X117161082Y-50908442D01*
X117163562Y-50914430D01*
X117237139Y-51131177D01*
X117238816Y-51137438D01*
X117283471Y-51361934D01*
X117284317Y-51368360D01*
X117299394Y-51598380D01*
X117299500Y-51601619D01*
X117299500Y-54398379D01*
X117299394Y-54401618D01*
X117284317Y-54631639D01*
X117283471Y-54638065D01*
X117238816Y-54862561D01*
X117237139Y-54868822D01*
X117163562Y-55085569D01*
X117161082Y-55091557D01*
X117059851Y-55296833D01*
X117056610Y-55302447D01*
X116929442Y-55492766D01*
X116925496Y-55497908D01*
X116774580Y-55669997D01*
X116769997Y-55674580D01*
X116597908Y-55825496D01*
X116592766Y-55829442D01*
X116402447Y-55956610D01*
X116396833Y-55959851D01*
X116191557Y-56061082D01*
X116185569Y-56063562D01*
X115968822Y-56137139D01*
X115962561Y-56138816D01*
X115738065Y-56183471D01*
X115731639Y-56184317D01*
X115520355Y-56198165D01*
X115501616Y-56199394D01*
X115498379Y-56199500D01*
X110981235Y-56199500D01*
X110923044Y-56180593D01*
X110887080Y-56131093D01*
X110887080Y-56069907D01*
X110898920Y-56045498D01*
X110928987Y-56000500D01*
X110943867Y-55978231D01*
X110955500Y-55919748D01*
X110955500Y-54580252D01*
X110943867Y-54521769D01*
X110899552Y-54455448D01*
X110899548Y-54455445D01*
X110833233Y-54411134D01*
X110833231Y-54411133D01*
X110833228Y-54411132D01*
X110833227Y-54411132D01*
X110774758Y-54399501D01*
X110774748Y-54399500D01*
X109185252Y-54399500D01*
X109185251Y-54399500D01*
X109185241Y-54399501D01*
X109126772Y-54411132D01*
X109126766Y-54411134D01*
X109060451Y-54455445D01*
X109060445Y-54455451D01*
X109016134Y-54521766D01*
X109016132Y-54521772D01*
X109004501Y-54580241D01*
X109004500Y-54580253D01*
X109004500Y-54800500D01*
X108985593Y-54858691D01*
X108936093Y-54894655D01*
X108905500Y-54899500D01*
X103094500Y-54899500D01*
X103036309Y-54880593D01*
X103000345Y-54831093D01*
X102995500Y-54800500D01*
X102995500Y-54580253D01*
X102995498Y-54580241D01*
X102986122Y-54533106D01*
X102983867Y-54521769D01*
X102939552Y-54455448D01*
X102939548Y-54455445D01*
X102873233Y-54411134D01*
X102873231Y-54411133D01*
X102873228Y-54411132D01*
X102873227Y-54411132D01*
X102814758Y-54399501D01*
X102814748Y-54399500D01*
X101225252Y-54399500D01*
X101225251Y-54399500D01*
X101225241Y-54399501D01*
X101166772Y-54411132D01*
X101166766Y-54411134D01*
X101100451Y-54455445D01*
X101100445Y-54455451D01*
X101056134Y-54521766D01*
X101056132Y-54521772D01*
X101044501Y-54580241D01*
X101044500Y-54580253D01*
X101044500Y-54800500D01*
X101025593Y-54858691D01*
X100976093Y-54894655D01*
X100945500Y-54899500D01*
X100846619Y-54899500D01*
X100826304Y-54897393D01*
X100814686Y-54894957D01*
X100814685Y-54894957D01*
X100781287Y-54899120D01*
X100775163Y-54899500D01*
X100770960Y-54899500D01*
X100760209Y-54901293D01*
X100749458Y-54903087D01*
X100698606Y-54909426D01*
X100691581Y-54911517D01*
X100684616Y-54913908D01*
X100639555Y-54938295D01*
X100593517Y-54960801D01*
X100587542Y-54965066D01*
X100581744Y-54969579D01*
X100547042Y-55007274D01*
X100547042Y-55007275D01*
X100203818Y-55350500D01*
X99883814Y-55670504D01*
X99829297Y-55698281D01*
X99813810Y-55699500D01*
X84336189Y-55699500D01*
X84277998Y-55680593D01*
X84266185Y-55670504D01*
X82779496Y-54183814D01*
X82751719Y-54129297D01*
X82750500Y-54113810D01*
X82750500Y-53060626D01*
X85689500Y-53060626D01*
X85713074Y-53148607D01*
X85720883Y-53177751D01*
X85781504Y-53282749D01*
X85781506Y-53282751D01*
X85781508Y-53282754D01*
X85867246Y-53368492D01*
X85867248Y-53368493D01*
X85944346Y-53413006D01*
X85959672Y-53423919D01*
X85971164Y-53433877D01*
X86104696Y-53494859D01*
X86104697Y-53494859D01*
X86104699Y-53494860D01*
X86213479Y-53510500D01*
X86213484Y-53510500D01*
X86286521Y-53510500D01*
X86395300Y-53494860D01*
X86395301Y-53494859D01*
X86395304Y-53494859D01*
X86528836Y-53433877D01*
X86540328Y-53423918D01*
X86555648Y-53413008D01*
X86632754Y-53368492D01*
X86718492Y-53282754D01*
X86718495Y-53282749D01*
X86779116Y-53177751D01*
X86779116Y-53177749D01*
X86779118Y-53177747D01*
X86810500Y-53060626D01*
X86810500Y-53000000D01*
X86810500Y-52960118D01*
X86810500Y-52939374D01*
X86779118Y-52822253D01*
X86779116Y-52822250D01*
X86779116Y-52822248D01*
X86718495Y-52717250D01*
X86718493Y-52717248D01*
X86718492Y-52717246D01*
X86632754Y-52631508D01*
X86555652Y-52586993D01*
X86540326Y-52576079D01*
X86528837Y-52566124D01*
X86528836Y-52566123D01*
X86395304Y-52505141D01*
X86395300Y-52505139D01*
X86286521Y-52489500D01*
X86286516Y-52489500D01*
X86213484Y-52489500D01*
X86213479Y-52489500D01*
X86104697Y-52505140D01*
X86104695Y-52505140D01*
X85971162Y-52566123D01*
X85959674Y-52576078D01*
X85944346Y-52586993D01*
X85867248Y-52631506D01*
X85781504Y-52717250D01*
X85720883Y-52822248D01*
X85715124Y-52843743D01*
X85689500Y-52939374D01*
X85689500Y-52960118D01*
X85689500Y-53000000D01*
X85689500Y-53060626D01*
X82750500Y-53060626D01*
X82750500Y-50146618D01*
X82752607Y-50126302D01*
X82752617Y-50126253D01*
X82755043Y-50114685D01*
X82750879Y-50081288D01*
X82750500Y-50075162D01*
X82750500Y-50070961D01*
X82750500Y-50070960D01*
X82746911Y-50049457D01*
X82740573Y-49998608D01*
X82740572Y-49998606D01*
X82740572Y-49998603D01*
X82738480Y-49991577D01*
X82736091Y-49984616D01*
X82711699Y-49939545D01*
X82689198Y-49893516D01*
X82684930Y-49887538D01*
X82680420Y-49881744D01*
X82642712Y-49847030D01*
X81615186Y-48819504D01*
X81587409Y-48764987D01*
X81596980Y-48704555D01*
X81640245Y-48661290D01*
X81685190Y-48650500D01*
X84528404Y-48650500D01*
X84586595Y-48669407D01*
X84622559Y-48718907D01*
X84622559Y-48780092D01*
X84604556Y-48835499D01*
X84594500Y-48898996D01*
X84594500Y-49091903D01*
X84594353Y-49093960D01*
X84594353Y-49106053D01*
X84594500Y-49108109D01*
X84594499Y-49891903D01*
X84594353Y-49893961D01*
X84594353Y-49906053D01*
X84594500Y-49908108D01*
X84594500Y-50101000D01*
X84597030Y-50133142D01*
X84597030Y-50133143D01*
X84601875Y-50163738D01*
X84602647Y-50168284D01*
X84602647Y-50168286D01*
X84638591Y-50252382D01*
X84638592Y-50252383D01*
X84674556Y-50301883D01*
X84698797Y-50329628D01*
X84777307Y-50376536D01*
X84835498Y-50395443D01*
X84845879Y-50397087D01*
X84898996Y-50405500D01*
X84899000Y-50405500D01*
X86100996Y-50405500D01*
X86101000Y-50405500D01*
X86133144Y-50402970D01*
X86155055Y-50399500D01*
X86163738Y-50398125D01*
X86164874Y-50397931D01*
X86168287Y-50397352D01*
X86252383Y-50361408D01*
X86301883Y-50325444D01*
X86329628Y-50301203D01*
X86376536Y-50222693D01*
X86395443Y-50164502D01*
X86402383Y-50120681D01*
X86405500Y-50101003D01*
X86405500Y-49908109D01*
X86405647Y-49906053D01*
X86405647Y-49893960D01*
X86405500Y-49891903D01*
X86405500Y-48899004D01*
X86405499Y-48898996D01*
X86402970Y-48866856D01*
X86398125Y-48836263D01*
X86397352Y-48831713D01*
X86378842Y-48788408D01*
X86373358Y-48727471D01*
X86404740Y-48674946D01*
X86461001Y-48650899D01*
X86469876Y-48650500D01*
X87082669Y-48650500D01*
X87102984Y-48652607D01*
X87105132Y-48653057D01*
X87114603Y-48655043D01*
X87148000Y-48650879D01*
X87154125Y-48650500D01*
X87158329Y-48650500D01*
X87169078Y-48648706D01*
X87179828Y-48646912D01*
X87230681Y-48640573D01*
X87230684Y-48640571D01*
X87237717Y-48638477D01*
X87244665Y-48636092D01*
X87244669Y-48636092D01*
X87289732Y-48611704D01*
X87335772Y-48589198D01*
X87341758Y-48584923D01*
X87347544Y-48580420D01*
X87369553Y-48556512D01*
X87382245Y-48542724D01*
X87910262Y-48014706D01*
X87964777Y-47986931D01*
X88025209Y-47996502D01*
X88068474Y-48039767D01*
X88070317Y-48043585D01*
X88113888Y-48138991D01*
X88117118Y-48146063D01*
X88196591Y-48237781D01*
X88201952Y-48243968D01*
X88271462Y-48288639D01*
X88310931Y-48314004D01*
X88435228Y-48350500D01*
X88435230Y-48350500D01*
X88550500Y-48350500D01*
X88608691Y-48369407D01*
X88644655Y-48418907D01*
X88649500Y-48449500D01*
X88649500Y-50453381D01*
X88647393Y-50473696D01*
X88644957Y-50485313D01*
X88649120Y-50518709D01*
X88649500Y-50524837D01*
X88649500Y-50529038D01*
X88653087Y-50550541D01*
X88659425Y-50601388D01*
X88661527Y-50608448D01*
X88663907Y-50615380D01*
X88688295Y-50660444D01*
X88710801Y-50706482D01*
X88715078Y-50712472D01*
X88719578Y-50718254D01*
X88719581Y-50718257D01*
X88719582Y-50718258D01*
X88757275Y-50752957D01*
X88818135Y-50813817D01*
X88870503Y-50866184D01*
X88898281Y-50920701D01*
X88899500Y-50936188D01*
X88899500Y-51395500D01*
X88880593Y-51453691D01*
X88831093Y-51489655D01*
X88800500Y-51494500D01*
X87999000Y-51494500D01*
X87966856Y-51497030D01*
X87958957Y-51498281D01*
X87936262Y-51501875D01*
X87931715Y-51502647D01*
X87931713Y-51502647D01*
X87847617Y-51538591D01*
X87798118Y-51574555D01*
X87770372Y-51598797D01*
X87723464Y-51677307D01*
X87723462Y-51677310D01*
X87704556Y-51735499D01*
X87694500Y-51798996D01*
X87694500Y-52191903D01*
X87694353Y-52193960D01*
X87694353Y-52206054D01*
X87694500Y-52208108D01*
X87694499Y-52991903D01*
X87694353Y-52993961D01*
X87694353Y-53006054D01*
X87694500Y-53008108D01*
X87694499Y-53791903D01*
X87694353Y-53793961D01*
X87694353Y-53806054D01*
X87694500Y-53808108D01*
X87694500Y-54201000D01*
X87697030Y-54233142D01*
X87697030Y-54233143D01*
X87701875Y-54263738D01*
X87702647Y-54268284D01*
X87702647Y-54268286D01*
X87738591Y-54352382D01*
X87738592Y-54352383D01*
X87774556Y-54401883D01*
X87798797Y-54429628D01*
X87877307Y-54476536D01*
X87935498Y-54495443D01*
X87947552Y-54497352D01*
X87998996Y-54505500D01*
X87999000Y-54505500D01*
X88800496Y-54505500D01*
X88800500Y-54505500D01*
X88832644Y-54502970D01*
X88837957Y-54502128D01*
X88840544Y-54501719D01*
X88856029Y-54500500D01*
X88919747Y-54500500D01*
X88919748Y-54500500D01*
X88978231Y-54488867D01*
X88978231Y-54488866D01*
X88980684Y-54488379D01*
X89019314Y-54488378D01*
X89021767Y-54488866D01*
X89021769Y-54488867D01*
X89080252Y-54500500D01*
X89284421Y-54500500D01*
X89342612Y-54519407D01*
X89378576Y-54568907D01*
X89378576Y-54630093D01*
X89367706Y-54653023D01*
X89367116Y-54653940D01*
X89313302Y-54771774D01*
X89294867Y-54899997D01*
X89294867Y-54900002D01*
X89313302Y-55028225D01*
X89367117Y-55146061D01*
X89367118Y-55146063D01*
X89401882Y-55186183D01*
X89451952Y-55243968D01*
X89546553Y-55304764D01*
X89560931Y-55314004D01*
X89685228Y-55350500D01*
X89685230Y-55350500D01*
X89814770Y-55350500D01*
X89814772Y-55350500D01*
X89939069Y-55314004D01*
X90048049Y-55243967D01*
X90132882Y-55146063D01*
X90159107Y-55088639D01*
X90159947Y-55086800D01*
X90201319Y-55041723D01*
X90261286Y-55029572D01*
X90316942Y-55054990D01*
X90340053Y-55086800D01*
X90367117Y-55146061D01*
X90367118Y-55146063D01*
X90401882Y-55186183D01*
X90451952Y-55243968D01*
X90546553Y-55304764D01*
X90560931Y-55314004D01*
X90685228Y-55350500D01*
X90685230Y-55350500D01*
X90814770Y-55350500D01*
X90814772Y-55350500D01*
X90939069Y-55314004D01*
X91048049Y-55243967D01*
X91132882Y-55146063D01*
X91186697Y-55028226D01*
X91199627Y-54938295D01*
X91205133Y-54900002D01*
X91205133Y-54899997D01*
X91186697Y-54771774D01*
X91129941Y-54647497D01*
X91132442Y-54646354D01*
X91119953Y-54598857D01*
X91142147Y-54541838D01*
X91193616Y-54508755D01*
X91218792Y-54505500D01*
X92000996Y-54505500D01*
X92001000Y-54505500D01*
X92033144Y-54502970D01*
X92048753Y-54500498D01*
X92063738Y-54498125D01*
X92064874Y-54497931D01*
X92068287Y-54497352D01*
X92152383Y-54461408D01*
X92201883Y-54425444D01*
X92229628Y-54401203D01*
X92276536Y-54322693D01*
X92295443Y-54264502D01*
X92305500Y-54201000D01*
X92305500Y-53808095D01*
X92305647Y-53806054D01*
X92305647Y-53793960D01*
X92305500Y-53791903D01*
X92305500Y-53073402D01*
X93239500Y-53073402D01*
X93263827Y-53156252D01*
X93280857Y-53214250D01*
X93360222Y-53337744D01*
X93471164Y-53433877D01*
X93604696Y-53494859D01*
X93604697Y-53494859D01*
X93604699Y-53494860D01*
X93713479Y-53510500D01*
X93713484Y-53510500D01*
X93786521Y-53510500D01*
X93895300Y-53494860D01*
X93895301Y-53494859D01*
X93895304Y-53494859D01*
X94028836Y-53433877D01*
X94139778Y-53337744D01*
X94219143Y-53214250D01*
X94260500Y-53073399D01*
X94260500Y-52926601D01*
X94219143Y-52785750D01*
X94139778Y-52662256D01*
X94028836Y-52566123D01*
X93895304Y-52505141D01*
X93895300Y-52505139D01*
X93786521Y-52489500D01*
X93786516Y-52489500D01*
X93713484Y-52489500D01*
X93713479Y-52489500D01*
X93604699Y-52505139D01*
X93471164Y-52566123D01*
X93360222Y-52662256D01*
X93280857Y-52785749D01*
X93280856Y-52785752D01*
X93239500Y-52926597D01*
X93239500Y-53073402D01*
X92305500Y-53073402D01*
X92305500Y-53008109D01*
X92305647Y-53006053D01*
X92305647Y-52993960D01*
X92305500Y-52991903D01*
X92305500Y-52208109D01*
X92305647Y-52206053D01*
X92305647Y-52193960D01*
X92305500Y-52191903D01*
X92305500Y-51799004D01*
X92305499Y-51798996D01*
X92302970Y-51766856D01*
X92298125Y-51736263D01*
X92297995Y-51735498D01*
X92297353Y-51731714D01*
X92297352Y-51731713D01*
X92261408Y-51647617D01*
X92227175Y-51600500D01*
X92225444Y-51598117D01*
X92201203Y-51570372D01*
X92122693Y-51523464D01*
X92122691Y-51523463D01*
X92122689Y-51523462D01*
X92064499Y-51504556D01*
X92064500Y-51504556D01*
X92001003Y-51494500D01*
X92001000Y-51494500D01*
X91199500Y-51494500D01*
X91167356Y-51497030D01*
X91162042Y-51497871D01*
X91159456Y-51498281D01*
X91143971Y-51499500D01*
X91080248Y-51499500D01*
X91019314Y-51511621D01*
X90980686Y-51511621D01*
X90919751Y-51499500D01*
X90919748Y-51499500D01*
X90699500Y-51499500D01*
X90641309Y-51480593D01*
X90605345Y-51431093D01*
X90600500Y-51400500D01*
X90600500Y-50559074D01*
X90619407Y-50500883D01*
X90668907Y-50464919D01*
X90730093Y-50464919D01*
X90753023Y-50475790D01*
X90824551Y-50521758D01*
X90828337Y-50524191D01*
X90952634Y-50560687D01*
X90952636Y-50560687D01*
X91082176Y-50560687D01*
X91082178Y-50560687D01*
X91206475Y-50524191D01*
X91315455Y-50454154D01*
X91400288Y-50356250D01*
X91454103Y-50238413D01*
X91467301Y-50146618D01*
X91472539Y-50110189D01*
X91472539Y-50110184D01*
X91454103Y-49981961D01*
X91434445Y-49938917D01*
X91419437Y-49906054D01*
X93594353Y-49906054D01*
X93594500Y-49908108D01*
X93594500Y-50101000D01*
X93597030Y-50133142D01*
X93597030Y-50133143D01*
X93601875Y-50163738D01*
X93602647Y-50168284D01*
X93602647Y-50168286D01*
X93638591Y-50252382D01*
X93638592Y-50252383D01*
X93674556Y-50301883D01*
X93698797Y-50329628D01*
X93777307Y-50376536D01*
X93835498Y-50395443D01*
X93845879Y-50397087D01*
X93898996Y-50405500D01*
X93899000Y-50405500D01*
X95100996Y-50405500D01*
X95101000Y-50405500D01*
X95133144Y-50402970D01*
X95155055Y-50399500D01*
X95163738Y-50398125D01*
X95164874Y-50397931D01*
X95168287Y-50397352D01*
X95252383Y-50361408D01*
X95301883Y-50325444D01*
X95329628Y-50301203D01*
X95376536Y-50222693D01*
X95395443Y-50164502D01*
X95402383Y-50120681D01*
X95405500Y-50101003D01*
X95405500Y-49908109D01*
X95405647Y-49906053D01*
X95405647Y-49893960D01*
X95405500Y-49891903D01*
X95405500Y-49108108D01*
X95405647Y-49106054D01*
X95405647Y-49093960D01*
X95405500Y-49091903D01*
X95405500Y-48899004D01*
X95405499Y-48898996D01*
X95402970Y-48866856D01*
X95398125Y-48836263D01*
X95397995Y-48835498D01*
X95397353Y-48831714D01*
X95397352Y-48831713D01*
X95361408Y-48747617D01*
X95346771Y-48727471D01*
X95325444Y-48698117D01*
X95301203Y-48670372D01*
X95222693Y-48623464D01*
X95222691Y-48623463D01*
X95222689Y-48623462D01*
X95164499Y-48604556D01*
X95164500Y-48604556D01*
X95101003Y-48594500D01*
X95101000Y-48594500D01*
X93899000Y-48594500D01*
X93866856Y-48597030D01*
X93851559Y-48599452D01*
X93836262Y-48601875D01*
X93831715Y-48602647D01*
X93831713Y-48602647D01*
X93747617Y-48638591D01*
X93698118Y-48674555D01*
X93670372Y-48698797D01*
X93623464Y-48777307D01*
X93623462Y-48777310D01*
X93604556Y-48835499D01*
X93594500Y-48898996D01*
X93594500Y-49891903D01*
X93594353Y-49893960D01*
X93594353Y-49906054D01*
X91419437Y-49906054D01*
X91400288Y-49864124D01*
X91374678Y-49834568D01*
X91350863Y-49778209D01*
X91350500Y-49769739D01*
X91350500Y-48317603D01*
X91369407Y-48259412D01*
X91385410Y-48244185D01*
X91384632Y-48243340D01*
X91390661Y-48237787D01*
X91390669Y-48237783D01*
X91411338Y-48211225D01*
X91415388Y-48206638D01*
X91418375Y-48203653D01*
X91431044Y-48185907D01*
X91462517Y-48145472D01*
X91462518Y-48145466D01*
X91466023Y-48138991D01*
X91469239Y-48132413D01*
X91469238Y-48132413D01*
X91469240Y-48132412D01*
X91483861Y-48083300D01*
X91500500Y-48034834D01*
X91500500Y-48034829D01*
X91501707Y-48027600D01*
X91502617Y-48020300D01*
X91500500Y-47969115D01*
X91500500Y-47070273D01*
X91502607Y-47049957D01*
X91502617Y-47049908D01*
X91505043Y-47038340D01*
X91500879Y-47004943D01*
X91500500Y-46998817D01*
X91500500Y-46994614D01*
X91496912Y-46973114D01*
X91496912Y-46973113D01*
X91490573Y-46922262D01*
X91490572Y-46922260D01*
X91490572Y-46922258D01*
X91488479Y-46915230D01*
X91486092Y-46908277D01*
X91486092Y-46908274D01*
X91461702Y-46863205D01*
X91439198Y-46817172D01*
X91439195Y-46817169D01*
X91434916Y-46811176D01*
X91430420Y-46805399D01*
X91392713Y-46770686D01*
X90707146Y-46085119D01*
X90694270Y-46069262D01*
X90687782Y-46059331D01*
X90661230Y-46038665D01*
X90656628Y-46034601D01*
X90653652Y-46031625D01*
X90635905Y-46018954D01*
X90595473Y-45987484D01*
X90589022Y-45983993D01*
X90582413Y-45980761D01*
X90582411Y-45980760D01*
X90533299Y-45966138D01*
X90484833Y-45949500D01*
X90484830Y-45949499D01*
X90477605Y-45948293D01*
X90470300Y-45947383D01*
X90470299Y-45947383D01*
X90470297Y-45947383D01*
X90419114Y-45949500D01*
X88989542Y-45949500D01*
X88931351Y-45930593D01*
X88895387Y-45881093D01*
X88895387Y-45819907D01*
X88914720Y-45785670D01*
X88925377Y-45773373D01*
X88985165Y-45642457D01*
X89005647Y-45500000D01*
X88985165Y-45357543D01*
X88925377Y-45226627D01*
X88831128Y-45117857D01*
X88831127Y-45117856D01*
X88831126Y-45117855D01*
X88710057Y-45040049D01*
X88710054Y-45040047D01*
X88710053Y-45040047D01*
X88710050Y-45040046D01*
X88571964Y-44999500D01*
X88571961Y-44999500D01*
X88428039Y-44999500D01*
X88428035Y-44999500D01*
X88345793Y-45023649D01*
X88284633Y-45021901D01*
X88247898Y-44998663D01*
X87334354Y-44085119D01*
X87321478Y-44069262D01*
X87314990Y-44059331D01*
X87288438Y-44038665D01*
X87283836Y-44034601D01*
X87280860Y-44031625D01*
X87263113Y-44018954D01*
X87222681Y-43987484D01*
X87216230Y-43983993D01*
X87209621Y-43980761D01*
X87209619Y-43980760D01*
X87160507Y-43966138D01*
X87112041Y-43949500D01*
X87112038Y-43949499D01*
X87104813Y-43948293D01*
X87097508Y-43947383D01*
X87097507Y-43947383D01*
X87097505Y-43947383D01*
X87046322Y-43949500D01*
X79839507Y-43949500D01*
X79819192Y-43947393D01*
X79807579Y-43944958D01*
X79774188Y-43949120D01*
X79768063Y-43949500D01*
X79763850Y-43949500D01*
X79742342Y-43953089D01*
X79691501Y-43959426D01*
X79684469Y-43961519D01*
X79677510Y-43963908D01*
X79632449Y-43988295D01*
X79586411Y-44010801D01*
X79580436Y-44015066D01*
X79574638Y-44019579D01*
X79539936Y-44057275D01*
X78935117Y-44662092D01*
X78919265Y-44674965D01*
X78909335Y-44681453D01*
X78909332Y-44681455D01*
X78888664Y-44708008D01*
X78884605Y-44712606D01*
X78881619Y-44715592D01*
X78868955Y-44733331D01*
X78837483Y-44773768D01*
X78833981Y-44780237D01*
X78830758Y-44786830D01*
X78816138Y-44835939D01*
X78799499Y-44884406D01*
X78798293Y-44891637D01*
X78797383Y-44898941D01*
X78799500Y-44950125D01*
X78799500Y-45600500D01*
X78780593Y-45658691D01*
X78731093Y-45694655D01*
X78700500Y-45699500D01*
X78480248Y-45699500D01*
X78419314Y-45711621D01*
X78380686Y-45711621D01*
X78319751Y-45699500D01*
X78319748Y-45699500D01*
X77980252Y-45699500D01*
X77980248Y-45699500D01*
X77919314Y-45711621D01*
X77880686Y-45711621D01*
X77819751Y-45699500D01*
X77819748Y-45699500D01*
X77480252Y-45699500D01*
X77480248Y-45699500D01*
X77419314Y-45711621D01*
X77380686Y-45711621D01*
X77319751Y-45699500D01*
X77319748Y-45699500D01*
X76980252Y-45699500D01*
X76980251Y-45699500D01*
X76980241Y-45699501D01*
X76921772Y-45711132D01*
X76921766Y-45711134D01*
X76855451Y-45755445D01*
X76855445Y-45755451D01*
X76811134Y-45821766D01*
X76811132Y-45821772D01*
X76799501Y-45880241D01*
X76799500Y-45880253D01*
X76799500Y-47617593D01*
X76797393Y-47637908D01*
X76795761Y-47645695D01*
X76794957Y-47649527D01*
X76799120Y-47682921D01*
X76799500Y-47689049D01*
X76799500Y-47693250D01*
X76803087Y-47714753D01*
X76809425Y-47765600D01*
X76811527Y-47772660D01*
X76813907Y-47779592D01*
X76838295Y-47824656D01*
X76860801Y-47870694D01*
X76865078Y-47876684D01*
X76869579Y-47882467D01*
X76907275Y-47917170D01*
X77122518Y-48132412D01*
X77600505Y-48610399D01*
X77628281Y-48664914D01*
X77629500Y-48680401D01*
X77629500Y-49800500D01*
X77610593Y-49858691D01*
X77561093Y-49894655D01*
X77530500Y-49899500D01*
X77185252Y-49899500D01*
X77185251Y-49899500D01*
X77185241Y-49899501D01*
X77126772Y-49911132D01*
X77126766Y-49911134D01*
X77060451Y-49955445D01*
X77060445Y-49955451D01*
X77016134Y-50021766D01*
X77016132Y-50021772D01*
X77004501Y-50080241D01*
X77004500Y-50080253D01*
X77004500Y-50300500D01*
X76985593Y-50358691D01*
X76936093Y-50394655D01*
X76905500Y-50399500D01*
X71094500Y-50399500D01*
X71036309Y-50380593D01*
X71000345Y-50331093D01*
X70995500Y-50300500D01*
X70995500Y-50080253D01*
X70995498Y-50080241D01*
X70987809Y-50041587D01*
X70983867Y-50021769D01*
X70939552Y-49955448D01*
X70938920Y-49954502D01*
X70922311Y-49895614D01*
X70943488Y-49838210D01*
X70994362Y-49804217D01*
X71021235Y-49800500D01*
X71933101Y-49800500D01*
X71933106Y-49800500D01*
X72197376Y-49768412D01*
X72455852Y-49704703D01*
X72704764Y-49610303D01*
X72940483Y-49486589D01*
X73159570Y-49335363D01*
X73358832Y-49158832D01*
X73535363Y-48959570D01*
X73686589Y-48740483D01*
X73810303Y-48504764D01*
X73904703Y-48255852D01*
X73968412Y-47997376D01*
X74000500Y-47733106D01*
X74000500Y-47600000D01*
X74000500Y-47560118D01*
X74000500Y-47560117D01*
X74000500Y-44901618D01*
X74000606Y-44898381D01*
X74001522Y-44884406D01*
X74015683Y-44668352D01*
X74016528Y-44661934D01*
X74061183Y-44437438D01*
X74062856Y-44431188D01*
X74136438Y-44214427D01*
X74138909Y-44208460D01*
X74240154Y-44003154D01*
X74243388Y-43997554D01*
X74370561Y-43807227D01*
X74374503Y-43802091D01*
X74374505Y-43802089D01*
X74525429Y-43629991D01*
X74529991Y-43625429D01*
X74702094Y-43474499D01*
X74707232Y-43470558D01*
X74897560Y-43343384D01*
X74903154Y-43340154D01*
X75108460Y-43238909D01*
X75114427Y-43236438D01*
X75331188Y-43162856D01*
X75337438Y-43161183D01*
X75401263Y-43148487D01*
X75561938Y-43116527D01*
X75568352Y-43115683D01*
X75798382Y-43100606D01*
X75801621Y-43100500D01*
X75839882Y-43100500D01*
X104160119Y-43100500D01*
X104198380Y-43100500D01*
X104201618Y-43100606D01*
G37*
%TD.AperFunction*%
%TA.AperFunction,Conductor*%
G36*
X90091240Y-47169407D02*
G01*
X90103053Y-47179496D01*
X90270504Y-47346947D01*
X90298281Y-47401464D01*
X90299500Y-47416951D01*
X90299500Y-47577981D01*
X90280593Y-47636172D01*
X90264591Y-47651402D01*
X90265367Y-47652245D01*
X90259332Y-47657800D01*
X90238664Y-47684353D01*
X90234605Y-47688951D01*
X90231619Y-47691937D01*
X90218955Y-47709676D01*
X90187483Y-47750113D01*
X90183981Y-47756582D01*
X90180758Y-47763175D01*
X90166138Y-47812284D01*
X90149499Y-47860751D01*
X90148293Y-47867982D01*
X90147383Y-47875286D01*
X90149500Y-47926470D01*
X90149500Y-49578046D01*
X90130593Y-49636237D01*
X90081093Y-49672201D01*
X90078392Y-49673036D01*
X90011684Y-49692623D01*
X90011680Y-49692624D01*
X90003017Y-49698192D01*
X89943840Y-49713742D01*
X89886826Y-49691540D01*
X89853750Y-49640065D01*
X89850500Y-49614911D01*
X89850500Y-49355960D01*
X89850500Y-49090252D01*
X89850500Y-49090251D01*
X89850500Y-48585960D01*
X89850500Y-48320252D01*
X89850500Y-48320251D01*
X89850500Y-47965858D01*
X89852607Y-47945542D01*
X89852617Y-47945493D01*
X89855043Y-47933925D01*
X89850879Y-47900528D01*
X89850500Y-47894402D01*
X89850500Y-47890201D01*
X89850500Y-47890200D01*
X89846911Y-47868697D01*
X89840573Y-47817848D01*
X89840572Y-47817846D01*
X89840572Y-47817843D01*
X89838480Y-47810817D01*
X89836091Y-47803856D01*
X89811699Y-47758785D01*
X89789198Y-47712756D01*
X89784930Y-47706778D01*
X89780420Y-47700984D01*
X89742713Y-47666271D01*
X89395946Y-47319503D01*
X89368169Y-47264987D01*
X89377740Y-47204555D01*
X89421005Y-47161290D01*
X89465950Y-47150500D01*
X90033049Y-47150500D01*
X90091240Y-47169407D01*
G37*
%TD.AperFunction*%
%TA.AperFunction,Conductor*%
G36*
X83260296Y-45169407D02*
G01*
X83296260Y-45218907D01*
X83299886Y-45264985D01*
X83294500Y-45298994D01*
X83294500Y-45875259D01*
X83294623Y-45880289D01*
X83294940Y-45886760D01*
X83295000Y-45889188D01*
X83295000Y-46710826D01*
X83294940Y-46713255D01*
X83294624Y-46719678D01*
X83294500Y-46724729D01*
X83294500Y-47301000D01*
X83297030Y-47333142D01*
X83297030Y-47333145D01*
X83297327Y-47335020D01*
X83287751Y-47395451D01*
X83244484Y-47438713D01*
X83199545Y-47449500D01*
X79593295Y-47449500D01*
X79535104Y-47430593D01*
X79523291Y-47420503D01*
X79172292Y-47069503D01*
X79144515Y-47014987D01*
X79154086Y-46954555D01*
X79197351Y-46911290D01*
X79242296Y-46900500D01*
X79319747Y-46900500D01*
X79319748Y-46900500D01*
X79378231Y-46888867D01*
X79378231Y-46888866D01*
X79380684Y-46888379D01*
X79419314Y-46888378D01*
X79421767Y-46888866D01*
X79421769Y-46888867D01*
X79480252Y-46900500D01*
X79480253Y-46900500D01*
X79819747Y-46900500D01*
X79819748Y-46900500D01*
X79878231Y-46888867D01*
X79944552Y-46844552D01*
X79988867Y-46778231D01*
X80000500Y-46719748D01*
X80000500Y-45880252D01*
X80000500Y-45336189D01*
X80019407Y-45277998D01*
X80029496Y-45266185D01*
X80116185Y-45179496D01*
X80170702Y-45151719D01*
X80186189Y-45150500D01*
X83202105Y-45150500D01*
X83260296Y-45169407D01*
G37*
%TD.AperFunction*%
%TD*%
M02*
