M48
; DRILL file {KiCad 7.0.6} date Tue Jul 25 13:01:03 2023
; FORMAT={-:-/ absolute / inch / decimal}
; #@! TF.CreationDate,2023-07-25T13:01:03+01:00
; #@! TF.GenerationSoftware,Kicad,Pcbnew,7.0.6
; #@! TF.FileFunction,Plated,1,2,PTH
FMAT,2
INCH
; #@! TA.AperFunction,Plated,PTH,ViaDrill
T1C0.0118
; #@! TA.AperFunction,Plated,PTH,ComponentDrill
T2C0.0236
; #@! TA.AperFunction,Plated,PTH,ComponentDrill
T3C0.1260
%
G90
G05
T1
X2.7303Y-2.1752
X2.9528Y-2.1752
X3.2323Y-1.8465
X3.2362Y-1.626
X3.3465Y-1.6358
X3.3465Y-1.6634
X3.3465Y-1.6909
X3.3465Y-1.7185
X3.4331Y-1.6358
X3.4331Y-1.6634
X3.4331Y-1.6909
X3.4331Y-1.7185
X3.4724Y-2.0551
X3.4724Y-2.0866
X3.4724Y-2.1181
X3.5138Y-1.8937
X3.5138Y-2.1732
X3.5433Y-2.1614
X3.5472Y-1.8937
X3.5472Y-1.9252
X3.5807Y-1.9783
X3.6142Y-2.0551
X3.6142Y-2.0866
X3.6142Y-2.1181
X3.6535Y-1.9055
X3.6811Y-1.9055
X3.8504Y-1.626
X3.8504Y-1.8858
X4.1378Y-2.1752
X4.3602Y-2.1752
T3
X3.1614Y-2.0866
X3.9291Y-2.0866
T2
G00X3.4439Y-2.002
M15
G01X3.4537Y-2.002
M16
G05
G00X3.4439Y-2.1713
M15
G01X3.4537Y-2.1713
M16
G05
G00X3.6329Y-2.002
M15
G01X3.6427Y-2.002
M16
G05
G00X3.6329Y-2.1713
M15
G01X3.6427Y-2.1713
M16
G05
T0
M30
