%TF.GenerationSoftware,KiCad,Pcbnew,7.0.6*%
%TF.CreationDate,2023-07-14T18:39:08+01:00*%
%TF.ProjectId,Galia,47616c69-612e-46b6-9963-61645f706362,V1.0*%
%TF.SameCoordinates,Original*%
%TF.FileFunction,Legend,Top*%
%TF.FilePolarity,Positive*%
%FSLAX46Y46*%
G04 Gerber Fmt 4.6, Leading zero omitted, Abs format (unit mm)*
G04 Created by KiCad (PCBNEW 7.0.6) date 2023-07-14 18:39:08*
%MOMM*%
%LPD*%
G01*
G04 APERTURE LIST*
G04 Aperture macros list*
%AMRoundRect*
0 Rectangle with rounded corners*
0 $1 Rounding radius*
0 $2 $3 $4 $5 $6 $7 $8 $9 X,Y pos of 4 corners*
0 Add a 4 corners polygon primitive as box body*
4,1,4,$2,$3,$4,$5,$6,$7,$8,$9,$2,$3,0*
0 Add four circle primitives for the rounded corners*
1,1,$1+$1,$2,$3*
1,1,$1+$1,$4,$5*
1,1,$1+$1,$6,$7*
1,1,$1+$1,$8,$9*
0 Add four rect primitives between the rounded corners*
20,1,$1+$1,$2,$3,$4,$5,0*
20,1,$1+$1,$4,$5,$6,$7,0*
20,1,$1+$1,$6,$7,$8,$9,0*
20,1,$1+$1,$8,$9,$2,$3,0*%
G04 Aperture macros list end*
%ADD10C,0.150000*%
%ADD11C,0.120000*%
%ADD12C,0.200000*%
%ADD13C,5.600000*%
%ADD14R,0.300000X0.800000*%
%ADD15R,0.400000X0.800000*%
%ADD16RoundRect,0.150000X0.150000X0.200000X-0.150000X0.200000X-0.150000X-0.200000X0.150000X-0.200000X0*%
%ADD17R,1.550000X1.300000*%
%ADD18C,0.520000*%
%ADD19R,0.300000X0.870000*%
%ADD20O,2.200000X1.100000*%
%ADD21R,0.300000X0.550000*%
%ADD22RoundRect,0.150000X-0.150000X-0.200000X0.150000X-0.200000X0.150000X0.200000X-0.150000X0.200000X0*%
G04 APERTURE END LIST*
D10*
X81566666Y-47454819D02*
X81566666Y-48169104D01*
X81566666Y-48169104D02*
X81519047Y-48311961D01*
X81519047Y-48311961D02*
X81423809Y-48407200D01*
X81423809Y-48407200D02*
X81280952Y-48454819D01*
X81280952Y-48454819D02*
X81185714Y-48454819D01*
X81995238Y-47550057D02*
X82042857Y-47502438D01*
X82042857Y-47502438D02*
X82138095Y-47454819D01*
X82138095Y-47454819D02*
X82376190Y-47454819D01*
X82376190Y-47454819D02*
X82471428Y-47502438D01*
X82471428Y-47502438D02*
X82519047Y-47550057D01*
X82519047Y-47550057D02*
X82566666Y-47645295D01*
X82566666Y-47645295D02*
X82566666Y-47740533D01*
X82566666Y-47740533D02*
X82519047Y-47883390D01*
X82519047Y-47883390D02*
X81947619Y-48454819D01*
X81947619Y-48454819D02*
X82566666Y-48454819D01*
X83461905Y-49654819D02*
X83461905Y-48654819D01*
X83461905Y-48654819D02*
X83700000Y-48654819D01*
X83700000Y-48654819D02*
X83842857Y-48702438D01*
X83842857Y-48702438D02*
X83938095Y-48797676D01*
X83938095Y-48797676D02*
X83985714Y-48892914D01*
X83985714Y-48892914D02*
X84033333Y-49083390D01*
X84033333Y-49083390D02*
X84033333Y-49226247D01*
X84033333Y-49226247D02*
X83985714Y-49416723D01*
X83985714Y-49416723D02*
X83938095Y-49511961D01*
X83938095Y-49511961D02*
X83842857Y-49607200D01*
X83842857Y-49607200D02*
X83700000Y-49654819D01*
X83700000Y-49654819D02*
X83461905Y-49654819D01*
X84414286Y-48750057D02*
X84461905Y-48702438D01*
X84461905Y-48702438D02*
X84557143Y-48654819D01*
X84557143Y-48654819D02*
X84795238Y-48654819D01*
X84795238Y-48654819D02*
X84890476Y-48702438D01*
X84890476Y-48702438D02*
X84938095Y-48750057D01*
X84938095Y-48750057D02*
X84985714Y-48845295D01*
X84985714Y-48845295D02*
X84985714Y-48940533D01*
X84985714Y-48940533D02*
X84938095Y-49083390D01*
X84938095Y-49083390D02*
X84366667Y-49654819D01*
X84366667Y-49654819D02*
X84985714Y-49654819D01*
X79266667Y-53407200D02*
X79409524Y-53454819D01*
X79409524Y-53454819D02*
X79647619Y-53454819D01*
X79647619Y-53454819D02*
X79742857Y-53407200D01*
X79742857Y-53407200D02*
X79790476Y-53359580D01*
X79790476Y-53359580D02*
X79838095Y-53264342D01*
X79838095Y-53264342D02*
X79838095Y-53169104D01*
X79838095Y-53169104D02*
X79790476Y-53073866D01*
X79790476Y-53073866D02*
X79742857Y-53026247D01*
X79742857Y-53026247D02*
X79647619Y-52978628D01*
X79647619Y-52978628D02*
X79457143Y-52931009D01*
X79457143Y-52931009D02*
X79361905Y-52883390D01*
X79361905Y-52883390D02*
X79314286Y-52835771D01*
X79314286Y-52835771D02*
X79266667Y-52740533D01*
X79266667Y-52740533D02*
X79266667Y-52645295D01*
X79266667Y-52645295D02*
X79314286Y-52550057D01*
X79314286Y-52550057D02*
X79361905Y-52502438D01*
X79361905Y-52502438D02*
X79457143Y-52454819D01*
X79457143Y-52454819D02*
X79695238Y-52454819D01*
X79695238Y-52454819D02*
X79838095Y-52502438D01*
X80171429Y-52454819D02*
X80409524Y-53454819D01*
X80409524Y-53454819D02*
X80600000Y-52740533D01*
X80600000Y-52740533D02*
X80790476Y-53454819D01*
X80790476Y-53454819D02*
X81028572Y-52454819D01*
X81361905Y-52550057D02*
X81409524Y-52502438D01*
X81409524Y-52502438D02*
X81504762Y-52454819D01*
X81504762Y-52454819D02*
X81742857Y-52454819D01*
X81742857Y-52454819D02*
X81838095Y-52502438D01*
X81838095Y-52502438D02*
X81885714Y-52550057D01*
X81885714Y-52550057D02*
X81933333Y-52645295D01*
X81933333Y-52645295D02*
X81933333Y-52740533D01*
X81933333Y-52740533D02*
X81885714Y-52883390D01*
X81885714Y-52883390D02*
X81314286Y-53454819D01*
X81314286Y-53454819D02*
X81933333Y-53454819D01*
X98066667Y-53407200D02*
X98209524Y-53454819D01*
X98209524Y-53454819D02*
X98447619Y-53454819D01*
X98447619Y-53454819D02*
X98542857Y-53407200D01*
X98542857Y-53407200D02*
X98590476Y-53359580D01*
X98590476Y-53359580D02*
X98638095Y-53264342D01*
X98638095Y-53264342D02*
X98638095Y-53169104D01*
X98638095Y-53169104D02*
X98590476Y-53073866D01*
X98590476Y-53073866D02*
X98542857Y-53026247D01*
X98542857Y-53026247D02*
X98447619Y-52978628D01*
X98447619Y-52978628D02*
X98257143Y-52931009D01*
X98257143Y-52931009D02*
X98161905Y-52883390D01*
X98161905Y-52883390D02*
X98114286Y-52835771D01*
X98114286Y-52835771D02*
X98066667Y-52740533D01*
X98066667Y-52740533D02*
X98066667Y-52645295D01*
X98066667Y-52645295D02*
X98114286Y-52550057D01*
X98114286Y-52550057D02*
X98161905Y-52502438D01*
X98161905Y-52502438D02*
X98257143Y-52454819D01*
X98257143Y-52454819D02*
X98495238Y-52454819D01*
X98495238Y-52454819D02*
X98638095Y-52502438D01*
X98971429Y-52454819D02*
X99209524Y-53454819D01*
X99209524Y-53454819D02*
X99400000Y-52740533D01*
X99400000Y-52740533D02*
X99590476Y-53454819D01*
X99590476Y-53454819D02*
X99828572Y-52454819D01*
X100733333Y-53454819D02*
X100161905Y-53454819D01*
X100447619Y-53454819D02*
X100447619Y-52454819D01*
X100447619Y-52454819D02*
X100352381Y-52597676D01*
X100352381Y-52597676D02*
X100257143Y-52692914D01*
X100257143Y-52692914D02*
X100161905Y-52740533D01*
X89666666Y-54954819D02*
X89666666Y-55669104D01*
X89666666Y-55669104D02*
X89619047Y-55811961D01*
X89619047Y-55811961D02*
X89523809Y-55907200D01*
X89523809Y-55907200D02*
X89380952Y-55954819D01*
X89380952Y-55954819D02*
X89285714Y-55954819D01*
X90666666Y-55954819D02*
X90095238Y-55954819D01*
X90380952Y-55954819D02*
X90380952Y-54954819D01*
X90380952Y-54954819D02*
X90285714Y-55097676D01*
X90285714Y-55097676D02*
X90190476Y-55192914D01*
X90190476Y-55192914D02*
X90095238Y-55240533D01*
X89238095Y-46854819D02*
X89238095Y-47664342D01*
X89238095Y-47664342D02*
X89285714Y-47759580D01*
X89285714Y-47759580D02*
X89333333Y-47807200D01*
X89333333Y-47807200D02*
X89428571Y-47854819D01*
X89428571Y-47854819D02*
X89619047Y-47854819D01*
X89619047Y-47854819D02*
X89714285Y-47807200D01*
X89714285Y-47807200D02*
X89761904Y-47759580D01*
X89761904Y-47759580D02*
X89809523Y-47664342D01*
X89809523Y-47664342D02*
X89809523Y-46854819D01*
X90238095Y-46950057D02*
X90285714Y-46902438D01*
X90285714Y-46902438D02*
X90380952Y-46854819D01*
X90380952Y-46854819D02*
X90619047Y-46854819D01*
X90619047Y-46854819D02*
X90714285Y-46902438D01*
X90714285Y-46902438D02*
X90761904Y-46950057D01*
X90761904Y-46950057D02*
X90809523Y-47045295D01*
X90809523Y-47045295D02*
X90809523Y-47140533D01*
X90809523Y-47140533D02*
X90761904Y-47283390D01*
X90761904Y-47283390D02*
X90190476Y-47854819D01*
X90190476Y-47854819D02*
X90809523Y-47854819D01*
X95061905Y-49654819D02*
X95061905Y-48654819D01*
X95061905Y-48654819D02*
X95300000Y-48654819D01*
X95300000Y-48654819D02*
X95442857Y-48702438D01*
X95442857Y-48702438D02*
X95538095Y-48797676D01*
X95538095Y-48797676D02*
X95585714Y-48892914D01*
X95585714Y-48892914D02*
X95633333Y-49083390D01*
X95633333Y-49083390D02*
X95633333Y-49226247D01*
X95633333Y-49226247D02*
X95585714Y-49416723D01*
X95585714Y-49416723D02*
X95538095Y-49511961D01*
X95538095Y-49511961D02*
X95442857Y-49607200D01*
X95442857Y-49607200D02*
X95300000Y-49654819D01*
X95300000Y-49654819D02*
X95061905Y-49654819D01*
X96585714Y-49654819D02*
X96014286Y-49654819D01*
X96300000Y-49654819D02*
X96300000Y-48654819D01*
X96300000Y-48654819D02*
X96204762Y-48797676D01*
X96204762Y-48797676D02*
X96109524Y-48892914D01*
X96109524Y-48892914D02*
X96014286Y-48940533D01*
D11*
%TO.C,J2*%
X87900000Y-46150000D02*
X87900000Y-44520000D01*
X87900000Y-46150000D02*
X87150000Y-46150000D01*
X87150000Y-43250000D02*
X76650000Y-43250000D01*
X76680000Y-46150000D02*
X75900000Y-46150000D01*
X75900000Y-46150000D02*
X75900000Y-44520000D01*
D12*
X77250000Y-47300000D02*
G75*
G03*
X77250000Y-47300000I-100000J0D01*
G01*
D11*
%TO.C,D2*%
X85340000Y-48600000D02*
X85340000Y-49800000D01*
X87300000Y-48600000D02*
X85340000Y-48600000D01*
X87300000Y-49800000D02*
X85340000Y-49800000D01*
%TO.C,SW2*%
X77230000Y-56230000D02*
X70770000Y-56230000D01*
X77230000Y-56200000D02*
X77230000Y-56230000D01*
X77230000Y-54300000D02*
X77230000Y-51700000D01*
X77230000Y-49770000D02*
X77230000Y-49800000D01*
X77230000Y-49770000D02*
X70770000Y-49770000D01*
X70770000Y-56230000D02*
X70770000Y-56200000D01*
X70770000Y-54300000D02*
X70770000Y-51700000D01*
X70770000Y-49770000D02*
X70770000Y-49800000D01*
%TO.C,SW1*%
X102770000Y-49770000D02*
X109230000Y-49770000D01*
X102770000Y-49800000D02*
X102770000Y-49770000D01*
X102770000Y-51700000D02*
X102770000Y-54300000D01*
X102770000Y-56230000D02*
X102770000Y-56200000D01*
X102770000Y-56230000D02*
X109230000Y-56230000D01*
X109230000Y-49770000D02*
X109230000Y-49800000D01*
X109230000Y-51700000D02*
X109230000Y-54300000D01*
X109230000Y-56230000D02*
X109230000Y-56200000D01*
%TO.C,J1*%
X94470000Y-54580000D02*
X94470000Y-51420000D01*
X94470000Y-51420000D02*
X93750000Y-51420000D01*
X93750000Y-54580000D02*
X94470000Y-54580000D01*
X86250000Y-54580000D02*
X85530000Y-54580000D01*
X85530000Y-54580000D02*
X85530000Y-51420000D01*
X85530000Y-51420000D02*
X86250000Y-51420000D01*
D12*
X95100000Y-53900000D02*
G75*
G03*
X95100000Y-53900000I-100000J0D01*
G01*
D11*
%TO.C,U2*%
X88600000Y-48500000D02*
X88600000Y-49800000D01*
X91400000Y-48500000D02*
X91400000Y-49500000D01*
D12*
X89100000Y-49900000D02*
G75*
G03*
X89100000Y-49900000I-100000J0D01*
G01*
D11*
%TO.C,D1*%
X94660000Y-49800000D02*
X94660000Y-48600000D01*
X92700000Y-49800000D02*
X94660000Y-49800000D01*
X92700000Y-48600000D02*
X94660000Y-48600000D01*
%TD*%
%LPC*%
D13*
%TO.C,H1*%
X65800000Y-53000000D03*
%TD*%
%TO.C,H2*%
X114200000Y-53000000D03*
%TD*%
D14*
%TO.C,J2*%
X77150000Y-46300000D03*
X77650000Y-46300000D03*
X78150000Y-46300000D03*
X78650000Y-46300000D03*
X79150000Y-46300000D03*
X79650000Y-46300000D03*
X80150000Y-46300000D03*
X80650000Y-46300000D03*
X81150000Y-46300000D03*
X81650000Y-46300000D03*
X82150000Y-46300000D03*
X82650000Y-46300000D03*
X83150000Y-46300000D03*
X83650000Y-46300000D03*
X84150000Y-46300000D03*
X84650000Y-46300000D03*
X85150000Y-46300000D03*
X85650000Y-46300000D03*
X86150000Y-46300000D03*
X86650000Y-46300000D03*
D15*
X87650000Y-43800000D03*
X76150000Y-43800000D03*
%TD*%
D16*
%TO.C,D2*%
X85900000Y-49200000D03*
X87300000Y-49200000D03*
%TD*%
D17*
%TO.C,SW2*%
X77980000Y-55250000D03*
X70020000Y-55250000D03*
X77980000Y-50750000D03*
X70020000Y-50750000D03*
%TD*%
%TO.C,SW1*%
X102020000Y-50750000D03*
X109980000Y-50750000D03*
X102020000Y-55250000D03*
X109980000Y-55250000D03*
%TD*%
D18*
%TO.C,J1*%
X93750000Y-53000000D03*
X86250000Y-53000000D03*
D19*
X92750000Y-53865000D03*
X91250000Y-53865000D03*
X90750000Y-53865000D03*
X90250000Y-53865000D03*
X89750000Y-53865000D03*
X89250000Y-53865000D03*
X88750000Y-53865000D03*
X87250000Y-53865000D03*
X87250000Y-52135000D03*
X88750000Y-52135000D03*
X89250000Y-52135000D03*
X89750000Y-52135000D03*
X90250000Y-52135000D03*
X90750000Y-52135000D03*
X91250000Y-52135000D03*
X92750000Y-52135000D03*
D20*
X92400000Y-55150000D03*
X92400000Y-50850000D03*
X87600000Y-55150000D03*
X87600000Y-50850000D03*
%TD*%
D21*
%TO.C,U2*%
X89000000Y-49385000D03*
X89500000Y-49385000D03*
X90000000Y-49385000D03*
X90500000Y-49385000D03*
X91000000Y-49385000D03*
X91000000Y-48615000D03*
X90500000Y-48615000D03*
X90000000Y-48615000D03*
X89500000Y-48615000D03*
X89000000Y-48615000D03*
%TD*%
D22*
%TO.C,D1*%
X94100000Y-49200000D03*
X92700000Y-49200000D03*
%TD*%
%LPD*%
M02*
