%TF.GenerationSoftware,KiCad,Pcbnew,7.0.6*%
%TF.CreationDate,2023-07-25T13:01:03+01:00*%
%TF.ProjectId,Galia,47616c69-612e-46b6-9963-61645f706362,V1.0*%
%TF.SameCoordinates,Original*%
%TF.FileFunction,Soldermask,Bot*%
%TF.FilePolarity,Negative*%
%FSLAX46Y46*%
G04 Gerber Fmt 4.6, Leading zero omitted, Abs format (unit mm)*
G04 Created by KiCad (PCBNEW 7.0.6) date 2023-07-25 13:01:03*
%MOMM*%
%LPD*%
G01*
G04 APERTURE LIST*
G04 Aperture macros list*
%AMRoundRect*
0 Rectangle with rounded corners*
0 $1 Rounding radius*
0 $2 $3 $4 $5 $6 $7 $8 $9 X,Y pos of 4 corners*
0 Add a 4 corners polygon primitive as box body*
4,1,4,$2,$3,$4,$5,$6,$7,$8,$9,$2,$3,0*
0 Add four circle primitives for the rounded corners*
1,1,$1+$1,$2,$3*
1,1,$1+$1,$4,$5*
1,1,$1+$1,$6,$7*
1,1,$1+$1,$8,$9*
0 Add four rect primitives between the rounded corners*
20,1,$1+$1,$2,$3,$4,$5,0*
20,1,$1+$1,$4,$5,$6,$7,0*
20,1,$1+$1,$6,$7,$8,$9,0*
20,1,$1+$1,$8,$9,$2,$3,0*%
G04 Aperture macros list end*
%ADD10RoundRect,0.150000X0.625000X-0.150000X0.625000X0.150000X-0.625000X0.150000X-0.625000X-0.150000X0*%
%ADD11RoundRect,0.250000X0.650000X-0.350000X0.650000X0.350000X-0.650000X0.350000X-0.650000X-0.350000X0*%
%ADD12RoundRect,0.150000X0.200000X-0.150000X0.200000X0.150000X-0.200000X0.150000X-0.200000X-0.150000X0*%
%ADD13RoundRect,0.250000X-0.650000X0.350000X-0.650000X-0.350000X0.650000X-0.350000X0.650000X0.350000X0*%
%ADD14RoundRect,0.150000X-0.625000X0.150000X-0.625000X-0.150000X0.625000X-0.150000X0.625000X0.150000X0*%
%ADD15C,5.600000*%
%ADD16R,0.550000X0.300000*%
%ADD17R,1.550000X1.300000*%
%ADD18O,2.200000X1.100000*%
%ADD19R,0.300000X0.870000*%
%ADD20C,0.520000*%
G04 APERTURE END LIST*
D10*
%TO.C,J2*%
X86100000Y-46600000D03*
X86100000Y-45600000D03*
X86100000Y-44600000D03*
X86100000Y-43600000D03*
X86100000Y-42600000D03*
X86100000Y-41600000D03*
D11*
X82225000Y-47900000D03*
X82225000Y-40300000D03*
%TD*%
D12*
%TO.C,D1*%
X88200000Y-44800000D03*
X88200000Y-43400000D03*
%TD*%
D13*
%TO.C,J3*%
X97775000Y-48900000D03*
X97775000Y-40300000D03*
D14*
X93900000Y-47600000D03*
X93900000Y-46600000D03*
X93900000Y-45600000D03*
X93900000Y-44600000D03*
X93900000Y-43600000D03*
X93900000Y-42600000D03*
X93900000Y-41600000D03*
%TD*%
D15*
%TO.C,H1*%
X99800000Y-53000000D03*
%TD*%
%TO.C,H2*%
X80300000Y-53000000D03*
%TD*%
D16*
%TO.C,U1*%
X91685000Y-47400000D03*
X91685000Y-47900000D03*
X91685000Y-48400000D03*
X91685000Y-48900000D03*
X91685000Y-49400000D03*
X90915000Y-49400000D03*
X90915000Y-48900000D03*
X90915000Y-48400000D03*
X90915000Y-47900000D03*
X90915000Y-47400000D03*
%TD*%
D17*
%TO.C,SW2*%
X103920000Y-55250000D03*
X111880000Y-55250000D03*
X103920000Y-50750000D03*
X111880000Y-50750000D03*
%TD*%
%TO.C,SW1*%
X68220000Y-55250000D03*
X76180000Y-55250000D03*
X68220000Y-50750000D03*
X76180000Y-50750000D03*
%TD*%
D18*
%TO.C,J1*%
X92400000Y-55150000D03*
X92400000Y-50850000D03*
X87600000Y-55150000D03*
X87600000Y-50850000D03*
D19*
X87250000Y-52135000D03*
X88750000Y-52135000D03*
X89250000Y-52135000D03*
X89750000Y-52135000D03*
X90250000Y-52135000D03*
X90750000Y-52135000D03*
X91250000Y-52135000D03*
X92750000Y-52135000D03*
X92750000Y-53865000D03*
X91250000Y-53865000D03*
X90750000Y-53865000D03*
X90250000Y-53865000D03*
X89750000Y-53865000D03*
X89250000Y-53865000D03*
X88750000Y-53865000D03*
X87250000Y-53865000D03*
D20*
X93750000Y-53000000D03*
X86250000Y-53000000D03*
%TD*%
M02*
