%TF.GenerationSoftware,KiCad,Pcbnew,7.0.6*%
%TF.CreationDate,2023-07-25T13:01:03+01:00*%
%TF.ProjectId,Galia,47616c69-612e-46b6-9963-61645f706362,V1.0*%
%TF.SameCoordinates,Original*%
%TF.FileFunction,Profile,NP*%
%FSLAX46Y46*%
G04 Gerber Fmt 4.6, Leading zero omitted, Abs format (unit mm)*
G04 Created by KiCad (PCBNEW 7.0.6) date 2023-07-25 13:01:03*
%MOMM*%
%LPD*%
G01*
G04 APERTURE LIST*
%TA.AperFunction,Profile*%
%ADD10C,0.100000*%
%TD*%
%TA.AperFunction,Profile*%
%ADD11C,0.010000*%
%TD*%
G04 APERTURE END LIST*
D10*
X100400000Y-47600000D02*
G75*
G03*
X102400000Y-49600000I2000000J0D01*
G01*
X103100000Y-51300000D02*
X103100000Y-54700001D01*
X102700000Y-51300000D02*
X102700000Y-54700001D01*
X77400000Y-51299999D02*
X77400000Y-54700000D01*
X77000000Y-51299999D02*
X77000000Y-54700000D01*
X77400000Y-51299999D02*
G75*
G03*
X77000000Y-51299999I-200000J0D01*
G01*
X77000001Y-54700000D02*
G75*
G03*
X77399999Y-54700000I199999J0D01*
G01*
X102700000Y-54700001D02*
G75*
G03*
X103099998Y-54700001I199999J0D01*
G01*
X103100000Y-51300000D02*
G75*
G03*
X102700000Y-51300000I-200000J0D01*
G01*
X67500000Y-49600000D02*
X77600000Y-49600000D01*
X81600000Y-39000000D02*
G75*
G03*
X79600000Y-41000000I0J-2000000D01*
G01*
X79600000Y-47600000D02*
X79600000Y-41000000D01*
X102400000Y-49600000D02*
X112500000Y-49600000D01*
X67500000Y-56400000D02*
X112500000Y-56400000D01*
X114500000Y-51600000D02*
G75*
G03*
X112500000Y-49600000I-2000000J0D01*
G01*
X98400000Y-39000000D02*
X81600000Y-39000000D01*
X114500000Y-51600000D02*
X114500000Y-54400000D01*
X100400000Y-47600000D02*
X100400000Y-41000000D01*
X65500000Y-54400000D02*
G75*
G03*
X67500000Y-56400000I2000000J0D01*
G01*
X65500000Y-54400000D02*
X65500000Y-51600000D01*
X100400000Y-41000000D02*
G75*
G03*
X98400000Y-39000000I-2000000J0D01*
G01*
X77600000Y-49600000D02*
G75*
G03*
X79600000Y-47600000I0J2000000D01*
G01*
X112500000Y-56400000D02*
G75*
G03*
X114500000Y-54400000I0J2000000D01*
G01*
X67500000Y-49600000D02*
G75*
G03*
X65500000Y-51600000I0J-2000000D01*
G01*
D11*
%TO.C,J1*%
X93850000Y-53260000D02*
G75*
G03*
X94110000Y-53000000I0J260000D01*
G01*
X94110000Y-53000000D02*
G75*
G03*
X93850000Y-52740000I-260000J0D01*
G01*
X93390000Y-53000000D02*
G75*
G03*
X93650000Y-53260000I260000J0D01*
G01*
X93650000Y-52740000D02*
G75*
G03*
X93390000Y-53000000I0J-260000D01*
G01*
X93850000Y-52740000D02*
X93650000Y-52740000D01*
X93650000Y-53260000D02*
X93850000Y-53260000D01*
%TD*%
M02*
