M48
; DRILL file {KiCad 7.0.6} date Fri Jul 21 15:27:00 2023
; FORMAT={-:-/ absolute / inch / decimal}
; #@! TF.CreationDate,2023-07-21T15:27:00+01:00
; #@! TF.GenerationSoftware,Kicad,Pcbnew,7.0.6
; #@! TF.FileFunction,Plated,1,2,PTH
FMAT,2
INCH
; #@! TA.AperFunction,Plated,PTH,ViaDrill
T1C0.0118
; #@! TA.AperFunction,Plated,PTH,ComponentDrill
T2C0.0236
; #@! TA.AperFunction,Plated,PTH,ComponentDrill
T3C0.1260
%
G90
G05
T1
X2.7303Y-2.1752
X2.9528Y-2.1752
X3.1102Y-1.685
X3.1181Y-1.8189
X3.1181Y-1.9055
X3.1496Y-1.8189
X3.1496Y-1.9055
X3.1811Y-1.8189
X3.1811Y-1.9055
X3.2126Y-1.8189
X3.2126Y-1.9055
X3.2441Y-1.8189
X3.2441Y-1.9055
X3.4094Y-1.685
X3.4724Y-2.0551
X3.4724Y-2.0866
X3.4724Y-2.1181
X3.5138Y-1.8937
X3.5138Y-2.1732
X3.5433Y-2.1614
X3.5472Y-1.8937
X3.5472Y-1.9252
X3.5807Y-1.9783
X3.6142Y-2.0551
X3.6142Y-2.0866
X3.6142Y-2.1181
X3.6535Y-1.9055
X3.7165Y-1.685
X3.9764Y-1.685
X4.1378Y-2.1752
X4.3602Y-2.1752
T3
X3.1614Y-2.0866
X3.9291Y-2.0866
T2
G00X3.4439Y-2.002
M15
G01X3.4537Y-2.002
M16
G05
G00X3.4439Y-2.1713
M15
G01X3.4537Y-2.1713
M16
G05
G00X3.6329Y-2.002
M15
G01X3.6427Y-2.002
M16
G05
G00X3.6329Y-2.1713
M15
G01X3.6427Y-2.1713
M16
G05
T0
M30
