M48
; DRILL file {KiCad 7.0.6} date Tue Jul 18 13:47:25 2023
; FORMAT={-:-/ absolute / inch / decimal}
; #@! TF.CreationDate,2023-07-18T13:47:25+01:00
; #@! TF.GenerationSoftware,Kicad,Pcbnew,7.0.6
; #@! TF.FileFunction,Plated,1,2,PTH
FMAT,2
INCH
; #@! TA.AperFunction,Plated,PTH,ViaDrill
T1C0.0118
; #@! TA.AperFunction,Plated,PTH,ComponentDrill
T2C0.0236
; #@! TA.AperFunction,Plated,PTH,ComponentDrill
T3C0.1260
%
G90
G05
T1
X3.1299Y-1.9134
X3.1614Y-1.9134
X3.1929Y-1.9134
X3.2244Y-1.9134
X3.2953Y-1.7205
X3.3957Y-1.9744
X3.4173Y-1.7244
X3.4173Y-1.7795
X3.4488Y-1.7244
X3.4488Y-1.7795
X3.4685Y-1.937
X3.4724Y-2.0551
X3.4724Y-2.0866
X3.4724Y-2.1181
X3.4803Y-1.7244
X3.4803Y-1.7795
X3.5118Y-1.7244
X3.5118Y-1.7795
X3.5433Y-1.7244
X3.5433Y-1.7795
X3.5433Y-1.937
X3.5433Y-2.1575
X3.5748Y-1.7244
X3.5748Y-1.7795
X3.6142Y-2.0551
X3.6142Y-2.0866
X3.6142Y-2.1181
X3.6181Y-1.937
X3.624Y-1.7835
X3.624Y-1.8465
X3.6555Y-1.7835
X3.6555Y-1.8465
X3.687Y-1.7835
X3.687Y-1.8465
X3.7185Y-1.7835
X3.7185Y-1.8465
X3.7756Y-2.1614
X3.7913Y-1.7205
X3.7953Y-2.189
X3.8543Y-1.7992
X3.8543Y-1.8543
X3.8858Y-1.7992
X3.8858Y-1.8543
T3
X3.1575Y-2.0866
X3.9252Y-2.0866
T2
G00X3.4537Y-2.002
M15
G01X3.4439Y-2.002
M16
G05
G00X3.4537Y-2.1713
M15
G01X3.4439Y-2.1713
M16
G05
G00X3.6427Y-2.002
M15
G01X3.6329Y-2.002
M16
G05
G00X3.6427Y-2.1713
M15
G01X3.6329Y-2.1713
M16
G05
T0
M30
