%TF.GenerationSoftware,KiCad,Pcbnew,7.0.6*%
%TF.CreationDate,2023-07-17T12:40:32+01:00*%
%TF.ProjectId,Galia,47616c69-612e-46b6-9963-61645f706362,V1.0*%
%TF.SameCoordinates,Original*%
%TF.FileFunction,Copper,L1,Top*%
%TF.FilePolarity,Positive*%
%FSLAX46Y46*%
G04 Gerber Fmt 4.6, Leading zero omitted, Abs format (unit mm)*
G04 Created by KiCad (PCBNEW 7.0.6) date 2023-07-17 12:40:32*
%MOMM*%
%LPD*%
G01*
G04 APERTURE LIST*
G04 Aperture macros list*
%AMRoundRect*
0 Rectangle with rounded corners*
0 $1 Rounding radius*
0 $2 $3 $4 $5 $6 $7 $8 $9 X,Y pos of 4 corners*
0 Add a 4 corners polygon primitive as box body*
4,1,4,$2,$3,$4,$5,$6,$7,$8,$9,$2,$3,0*
0 Add four circle primitives for the rounded corners*
1,1,$1+$1,$2,$3*
1,1,$1+$1,$4,$5*
1,1,$1+$1,$6,$7*
1,1,$1+$1,$8,$9*
0 Add four rect primitives between the rounded corners*
20,1,$1+$1,$2,$3,$4,$5,0*
20,1,$1+$1,$4,$5,$6,$7,0*
20,1,$1+$1,$6,$7,$8,$9,0*
20,1,$1+$1,$8,$9,$2,$3,0*%
G04 Aperture macros list end*
%TA.AperFunction,SMDPad,CuDef*%
%ADD10RoundRect,0.150000X0.150000X0.200000X-0.150000X0.200000X-0.150000X-0.200000X0.150000X-0.200000X0*%
%TD*%
%TA.AperFunction,SMDPad,CuDef*%
%ADD11RoundRect,0.150000X0.150000X0.625000X-0.150000X0.625000X-0.150000X-0.625000X0.150000X-0.625000X0*%
%TD*%
%TA.AperFunction,SMDPad,CuDef*%
%ADD12RoundRect,0.250000X0.350000X0.650000X-0.350000X0.650000X-0.350000X-0.650000X0.350000X-0.650000X0*%
%TD*%
%TA.AperFunction,SMDPad,CuDef*%
%ADD13R,0.300000X0.500000*%
%TD*%
%TA.AperFunction,SMDPad,CuDef*%
%ADD14R,0.500000X0.300000*%
%TD*%
%TA.AperFunction,ComponentPad*%
%ADD15O,2.200000X1.100000*%
%TD*%
%TA.AperFunction,SMDPad,CuDef*%
%ADD16R,0.300000X0.870000*%
%TD*%
%TA.AperFunction,ComponentPad*%
%ADD17C,5.600000*%
%TD*%
%TA.AperFunction,SMDPad,CuDef*%
%ADD18R,1.550000X1.300000*%
%TD*%
%TA.AperFunction,ViaPad*%
%ADD19C,0.600000*%
%TD*%
%TA.AperFunction,ViaPad*%
%ADD20C,0.500000*%
%TD*%
%TA.AperFunction,Conductor*%
%ADD21C,0.300000*%
%TD*%
G04 APERTURE END LIST*
D10*
%TO.P,D1,1,K*%
%TO.N,VBUS*%
X96400000Y-50200000D03*
%TO.P,D1,2,A*%
%TO.N,GND*%
X97800000Y-50200000D03*
%TD*%
D11*
%TO.P,J3,1,Pin_1*%
%TO.N,VBUS*%
X96500000Y-48100000D03*
%TO.P,J3,2,Pin_2*%
X95500000Y-48100000D03*
%TO.P,J3,3,Pin_3*%
X94500000Y-48100000D03*
%TO.P,J3,4,Pin_4*%
X93500000Y-48100000D03*
%TO.P,J3,5,Pin_5*%
%TO.N,GND*%
X92500000Y-48100000D03*
%TO.P,J3,6,Pin_6*%
X91500000Y-48100000D03*
%TO.P,J3,7,Pin_7*%
X90500000Y-48100000D03*
%TO.P,J3,8,Pin_8*%
X89500000Y-48100000D03*
%TO.P,J3,9,Pin_9*%
%TO.N,CC2*%
X88500000Y-48100000D03*
%TO.P,J3,10,Pin_10*%
%TO.N,CC1*%
X87500000Y-48100000D03*
%TO.P,J3,11,Pin_11*%
%TO.N,/D-*%
X86500000Y-48100000D03*
%TO.P,J3,12,Pin_12*%
%TO.N,/D+*%
X85500000Y-48100000D03*
%TO.P,J3,13,Pin_13*%
%TO.N,/~{RST}*%
X84500000Y-48100000D03*
%TO.P,J3,14,Pin_14*%
%TO.N,/BOOTSEL*%
X83500000Y-48100000D03*
D12*
%TO.P,J3,MP,MountPin*%
%TO.N,GND*%
X97800000Y-44225000D03*
X82200000Y-44225000D03*
%TD*%
D13*
%TO.P,D5,1,K*%
%TO.N,/D+*%
X80950000Y-55000000D03*
%TO.P,D5,2,A*%
%TO.N,GND*%
X80250000Y-55000000D03*
%TD*%
%TO.P,D4,2,A*%
%TO.N,GND*%
X82550000Y-55000000D03*
%TO.P,D4,1,K*%
%TO.N,/D-*%
X81850000Y-55000000D03*
%TD*%
D14*
%TO.P,D3,2,A*%
%TO.N,GND*%
X95700000Y-55650000D03*
%TO.P,D3,1,K*%
%TO.N,CC1*%
X95700000Y-56350000D03*
%TD*%
%TO.P,D2,2,A*%
%TO.N,GND*%
X98100000Y-52950000D03*
%TO.P,D2,1,K*%
%TO.N,CC2*%
X98100000Y-52250000D03*
%TD*%
D15*
%TO.P,J1,S1,SHIELD*%
%TO.N,GND*%
X87600000Y-50850000D03*
X87600000Y-55150000D03*
X92400000Y-50850000D03*
X92400000Y-55150000D03*
D16*
%TO.P,J1,B12,GND*%
X92750000Y-52135000D03*
%TO.P,J1,B9,VBUS*%
%TO.N,VBUS*%
X91250000Y-52135000D03*
%TO.P,J1,B8,SBU2*%
%TO.N,unconnected-(J1-SBU2-PadB8)*%
X90750000Y-52135000D03*
%TO.P,J1,B7,D-*%
%TO.N,/D-*%
X90250000Y-52135000D03*
%TO.P,J1,B6,D+*%
%TO.N,/D+*%
X89750000Y-52135000D03*
%TO.P,J1,B5,CC2*%
%TO.N,CC2*%
X89250000Y-52135000D03*
%TO.P,J1,B4,VBUS*%
%TO.N,VBUS*%
X88750000Y-52135000D03*
%TO.P,J1,B1,GND*%
%TO.N,GND*%
X87250000Y-52135000D03*
%TO.P,J1,A12,GND*%
X87250000Y-53865000D03*
%TO.P,J1,A9,VBUS*%
%TO.N,VBUS*%
X88750000Y-53865000D03*
%TO.P,J1,A8,SBU1*%
%TO.N,unconnected-(J1-SBU1-PadA8)*%
X89250000Y-53865000D03*
%TO.P,J1,A7,D-*%
%TO.N,/D-*%
X89750000Y-53865000D03*
%TO.P,J1,A6,D+*%
%TO.N,/D+*%
X90250000Y-53865000D03*
%TO.P,J1,A5,CC1*%
%TO.N,CC1*%
X90750000Y-53865000D03*
%TO.P,J1,A4,VBUS*%
%TO.N,VBUS*%
X91250000Y-53865000D03*
%TO.P,J1,A1,GND*%
%TO.N,GND*%
X92750000Y-53865000D03*
%TD*%
D17*
%TO.P,H1,1*%
%TO.N,N/C*%
X65800000Y-53000000D03*
%TD*%
%TO.P,H2,1,1*%
%TO.N,GND*%
X114200000Y-53000000D03*
%TD*%
D18*
%TO.P,SW2,1,A*%
%TO.N,GND*%
X77980000Y-55250000D03*
X70020000Y-55250000D03*
%TO.P,SW2,2,B*%
%TO.N,/BOOTSEL*%
X77980000Y-50750000D03*
X70020000Y-50750000D03*
%TD*%
%TO.P,SW1,2,B*%
%TO.N,/~{RST}*%
X102020000Y-50750000D03*
X109980000Y-50750000D03*
%TO.P,SW1,1,A*%
%TO.N,GND*%
X102020000Y-55250000D03*
X109980000Y-55250000D03*
%TD*%
D19*
%TO.N,GND*%
X98200000Y-49500000D03*
X98200000Y-50900000D03*
X97400000Y-49500000D03*
X97400000Y-50900000D03*
D20*
%TO.N,/~{RST}*%
X96500000Y-44700000D03*
X99100000Y-44700000D03*
D19*
%TO.N,GND*%
X98700000Y-52950000D03*
X97500000Y-52950000D03*
X96300000Y-55650000D03*
X95100000Y-55650000D03*
X80250000Y-54400000D03*
X80250000Y-55600000D03*
X82550000Y-54400000D03*
X82550000Y-55650000D03*
D20*
%TO.N,/D-*%
X89509020Y-54736081D03*
X90000000Y-51100000D03*
D19*
%TO.N,VBUS*%
X93400000Y-47000000D03*
X94200000Y-47000000D03*
X95000000Y-47000000D03*
X95800000Y-47000000D03*
X96600000Y-47000000D03*
X96600000Y-49200000D03*
X91800000Y-53000000D03*
X88200000Y-52200000D03*
X88200000Y-53000000D03*
X88200000Y-53800000D03*
X91800000Y-53800000D03*
X95800000Y-49200000D03*
X91800000Y-52200000D03*
X94200000Y-49200000D03*
X95000000Y-49200000D03*
X93400000Y-49200000D03*
%TO.N,GND*%
X102000000Y-54200000D03*
X110000000Y-54200000D03*
X70000000Y-54200000D03*
X78000000Y-54200000D03*
%TD*%
D21*
%TO.N,/~{RST}*%
X86000000Y-44700000D02*
X96500000Y-44700000D01*
X84500000Y-46200000D02*
X86000000Y-44700000D01*
X84500000Y-48100000D02*
X84500000Y-46200000D01*
%TO.N,/D-*%
X81850000Y-53857106D02*
X81850000Y-55000000D01*
X86500000Y-48100000D02*
X86500000Y-49207106D01*
X86500000Y-49207106D02*
X81850000Y-53857106D01*
%TO.N,/D+*%
X85500000Y-49500000D02*
X85500000Y-48100000D01*
X80950000Y-55000000D02*
X80950000Y-54050000D01*
X80950000Y-54050000D02*
X85500000Y-49500000D01*
X88900001Y-56800000D02*
X90250000Y-55450000D01*
X82042894Y-56800000D02*
X88900001Y-56800000D01*
X80950000Y-55707106D02*
X82042894Y-56800000D01*
X80950000Y-55000000D02*
X80950000Y-55707106D01*
X90250000Y-55450000D02*
X90250000Y-53865000D01*
%TO.N,/D-*%
X89509020Y-54736081D02*
X89509020Y-55483874D01*
X89509020Y-55483874D02*
X88692894Y-56300000D01*
X82250000Y-56300000D02*
X88692894Y-56300000D01*
X81850000Y-55900000D02*
X81850000Y-55000000D01*
X82250000Y-56300000D02*
X81850000Y-55900000D01*
%TO.N,CC2*%
X98550000Y-52250000D02*
X98100000Y-52250000D01*
X98850000Y-47450000D02*
X98850000Y-51950000D01*
X98850000Y-51950000D02*
X98550000Y-52250000D01*
X89200000Y-46300000D02*
X97700000Y-46300000D01*
X97700000Y-46300000D02*
X98850000Y-47450000D01*
X88500000Y-48100000D02*
X88500000Y-47000000D01*
X88500000Y-47000000D02*
X89200000Y-46300000D01*
X89250000Y-50342894D02*
X89250000Y-52135000D01*
X93950000Y-49950000D02*
X89642894Y-49950000D01*
X89642894Y-49950000D02*
X89250000Y-50342894D01*
X98100000Y-52250000D02*
X96250000Y-52250000D01*
X96250000Y-52250000D02*
X93950000Y-49950000D01*
%TO.N,/~{RST}*%
X102020000Y-47620000D02*
X102020000Y-50750000D01*
X99100000Y-44700000D02*
X102020000Y-47620000D01*
%TO.N,/BOOTSEL*%
X83500000Y-49500000D02*
X83500000Y-48100000D01*
X82250000Y-50750000D02*
X83500000Y-49500000D01*
X77980000Y-50750000D02*
X82250000Y-50750000D01*
%TO.N,CC1*%
X90750000Y-55850000D02*
X90750000Y-53865000D01*
X99400000Y-53469239D02*
X96519239Y-56350000D01*
X99400000Y-47292894D02*
X99400000Y-53469239D01*
X96519239Y-56350000D02*
X91250000Y-56350000D01*
X88992893Y-45800000D02*
X97907106Y-45800000D01*
X97907106Y-45800000D02*
X99400000Y-47292894D01*
X87500000Y-47292894D02*
X88992893Y-45800000D01*
X87500000Y-48100000D02*
X87500000Y-47292894D01*
X91250000Y-56350000D02*
X90750000Y-55850000D01*
%TO.N,/~{RST}*%
X109980000Y-50750000D02*
X102020000Y-50750000D01*
%TO.N,/D-*%
X90250000Y-51350000D02*
X90000000Y-51100000D01*
X90250000Y-52135000D02*
X90250000Y-51350000D01*
X89750000Y-54495101D02*
X89509020Y-54736081D01*
X89750000Y-53865000D02*
X89750000Y-54495101D01*
%TO.N,/D+*%
X90250000Y-53250000D02*
X90250000Y-53865000D01*
X89750000Y-52750000D02*
X90250000Y-53250000D01*
X89750000Y-52135000D02*
X89750000Y-52750000D01*
%TO.N,/BOOTSEL*%
X77980000Y-50750000D02*
X70020000Y-50750000D01*
%TD*%
%TA.AperFunction,Conductor*%
%TO.N,VBUS*%
G36*
X96859191Y-46718907D02*
G01*
X96895155Y-46768407D01*
X96900000Y-46799000D01*
X96900000Y-49453644D01*
X96898992Y-49467733D01*
X96894353Y-49500000D01*
X96898823Y-49531093D01*
X96898992Y-49532264D01*
X96900000Y-49546354D01*
X96900000Y-50501000D01*
X96881093Y-50559191D01*
X96831593Y-50595155D01*
X96801000Y-50600000D01*
X95136690Y-50600000D01*
X95078499Y-50581093D01*
X95066686Y-50571004D01*
X94230801Y-49735119D01*
X94217925Y-49719262D01*
X94211437Y-49709331D01*
X94184885Y-49688665D01*
X94180283Y-49684601D01*
X94177307Y-49681625D01*
X94159560Y-49668954D01*
X94119128Y-49637484D01*
X94112677Y-49633993D01*
X94106068Y-49630761D01*
X94106066Y-49630760D01*
X94056954Y-49616138D01*
X94008488Y-49599500D01*
X94008485Y-49599499D01*
X94001260Y-49598293D01*
X93993955Y-49597383D01*
X93993954Y-49597383D01*
X93993952Y-49597383D01*
X93942769Y-49599500D01*
X93199000Y-49599500D01*
X93140809Y-49580593D01*
X93104845Y-49531093D01*
X93100000Y-49500500D01*
X93100000Y-46799000D01*
X93118907Y-46740809D01*
X93168407Y-46704845D01*
X93199000Y-46700000D01*
X96801000Y-46700000D01*
X96859191Y-46718907D01*
G37*
%TD.AperFunction*%
%TD*%
%TA.AperFunction,Conductor*%
%TO.N,VBUS*%
G36*
X88858691Y-51718907D02*
G01*
X88894655Y-51768407D01*
X88899500Y-51799000D01*
X88899500Y-52589747D01*
X88899761Y-52592398D01*
X88900000Y-52597255D01*
X88900000Y-53402739D01*
X88899762Y-53407592D01*
X88899500Y-53410253D01*
X88899500Y-54201000D01*
X88880593Y-54259191D01*
X88831093Y-54295155D01*
X88800500Y-54300000D01*
X87999000Y-54300000D01*
X87940809Y-54281093D01*
X87904845Y-54231593D01*
X87900000Y-54201000D01*
X87900000Y-51799000D01*
X87918907Y-51740809D01*
X87968407Y-51704845D01*
X87999000Y-51700000D01*
X88800500Y-51700000D01*
X88858691Y-51718907D01*
G37*
%TD.AperFunction*%
%TD*%
%TA.AperFunction,Conductor*%
%TO.N,VBUS*%
G36*
X92059191Y-51718907D02*
G01*
X92095155Y-51768407D01*
X92100000Y-51799000D01*
X92100000Y-54201000D01*
X92081093Y-54259191D01*
X92031593Y-54295155D01*
X92001000Y-54300000D01*
X91199500Y-54300000D01*
X91141309Y-54281093D01*
X91105345Y-54231593D01*
X91100500Y-54201000D01*
X91100500Y-53410253D01*
X91100238Y-53407592D01*
X91100000Y-53402739D01*
X91100000Y-52597255D01*
X91100239Y-52592398D01*
X91100500Y-52589747D01*
X91100500Y-51799000D01*
X91119407Y-51740809D01*
X91168907Y-51704845D01*
X91199500Y-51700000D01*
X92001000Y-51700000D01*
X92059191Y-51718907D01*
G37*
%TD.AperFunction*%
%TD*%
%TA.AperFunction,Conductor*%
%TO.N,GND*%
G36*
X85044945Y-48922478D02*
G01*
X85070000Y-48940681D01*
X85120505Y-48991186D01*
X85148281Y-49045701D01*
X85149500Y-49061188D01*
X85149500Y-49313809D01*
X85130593Y-49372000D01*
X85120504Y-49383813D01*
X80735118Y-53769198D01*
X80719265Y-53782071D01*
X80709335Y-53788559D01*
X80709332Y-53788561D01*
X80688664Y-53815114D01*
X80684605Y-53819712D01*
X80681619Y-53822698D01*
X80668955Y-53840437D01*
X80637483Y-53880874D01*
X80633981Y-53887343D01*
X80630758Y-53893936D01*
X80616138Y-53943045D01*
X80599499Y-53991512D01*
X80598293Y-53998743D01*
X80597383Y-54006047D01*
X80599500Y-54057231D01*
X80599500Y-55660487D01*
X80597393Y-55680802D01*
X80594957Y-55692421D01*
X80599120Y-55725815D01*
X80599500Y-55731943D01*
X80599500Y-55736144D01*
X80603087Y-55757647D01*
X80609425Y-55808494D01*
X80611527Y-55815554D01*
X80613907Y-55822486D01*
X80638295Y-55867550D01*
X80660801Y-55913588D01*
X80665078Y-55919578D01*
X80669579Y-55925361D01*
X80707275Y-55960064D01*
X81762093Y-57014881D01*
X81774969Y-57030738D01*
X81785170Y-57046352D01*
X81801168Y-57105408D01*
X81779398Y-57162590D01*
X81728176Y-57196055D01*
X81702290Y-57199499D01*
X64501621Y-57199499D01*
X64498383Y-57199393D01*
X64268360Y-57184316D01*
X64261934Y-57183470D01*
X64037438Y-57138815D01*
X64031177Y-57137138D01*
X63814430Y-57063561D01*
X63808448Y-57061083D01*
X63603166Y-56959850D01*
X63597552Y-56956609D01*
X63407233Y-56829441D01*
X63402091Y-56825495D01*
X63264739Y-56705041D01*
X63230000Y-56674576D01*
X63225420Y-56669996D01*
X63218862Y-56662518D01*
X63074495Y-56497899D01*
X63070558Y-56492767D01*
X63070557Y-56492766D01*
X62943391Y-56302447D01*
X62940150Y-56296834D01*
X62940150Y-56296833D01*
X62838908Y-56091536D01*
X62836436Y-56085567D01*
X62762857Y-55868810D01*
X62761186Y-55862573D01*
X62716528Y-55638062D01*
X62715683Y-55631644D01*
X62700605Y-55401596D01*
X62700500Y-55398367D01*
X62700500Y-55360117D01*
X62700500Y-54602121D01*
X62700500Y-53784689D01*
X62719406Y-53726502D01*
X62768906Y-53690538D01*
X62830092Y-53690538D01*
X62879592Y-53726502D01*
X62894340Y-53756299D01*
X62975673Y-54027970D01*
X62975674Y-54027972D01*
X63079335Y-54268284D01*
X63114111Y-54348904D01*
X63288870Y-54651596D01*
X63497588Y-54931953D01*
X63737442Y-55186183D01*
X64005189Y-55410849D01*
X64172537Y-55520916D01*
X64278972Y-55590920D01*
X64297207Y-55602913D01*
X64609549Y-55759777D01*
X64937989Y-55879319D01*
X64937992Y-55879319D01*
X64937993Y-55879320D01*
X65278075Y-55959921D01*
X65278080Y-55959921D01*
X65278086Y-55959923D01*
X65625241Y-56000500D01*
X65625244Y-56000500D01*
X65974756Y-56000500D01*
X65974759Y-56000500D01*
X66321914Y-55959923D01*
X66321920Y-55959921D01*
X66321924Y-55959921D01*
X66572472Y-55900540D01*
X66662011Y-55879319D01*
X66990451Y-55759777D01*
X67302793Y-55602913D01*
X67594811Y-55410849D01*
X67862558Y-55186183D01*
X68102412Y-54931953D01*
X68311130Y-54651596D01*
X68485889Y-54348904D01*
X68624326Y-54027971D01*
X68724569Y-53693136D01*
X68785262Y-53348927D01*
X68805585Y-53000000D01*
X68785262Y-52651073D01*
X68724569Y-52306864D01*
X68624326Y-51972029D01*
X68485889Y-51651096D01*
X68311130Y-51348404D01*
X68102412Y-51068047D01*
X67862558Y-50813817D01*
X67852646Y-50805500D01*
X67730689Y-50703166D01*
X67594811Y-50589151D01*
X67460789Y-50501003D01*
X67302794Y-50397087D01*
X66990453Y-50240224D01*
X66990452Y-50240223D01*
X66990451Y-50240223D01*
X66727165Y-50144395D01*
X66662006Y-50120679D01*
X66321924Y-50040078D01*
X66165306Y-50021772D01*
X65974759Y-49999500D01*
X65625241Y-49999500D01*
X65434745Y-50021766D01*
X65278075Y-50040078D01*
X64937993Y-50120679D01*
X64741191Y-50192309D01*
X64609549Y-50240223D01*
X64609548Y-50240223D01*
X64609546Y-50240224D01*
X64297205Y-50397087D01*
X64005190Y-50589150D01*
X63737443Y-50813815D01*
X63497591Y-51068043D01*
X63288871Y-51348402D01*
X63288869Y-51348405D01*
X63114111Y-51651095D01*
X63114108Y-51651102D01*
X62975674Y-51972027D01*
X62975673Y-51972029D01*
X62894340Y-52243700D01*
X62859537Y-52294023D01*
X62801802Y-52314279D01*
X62743187Y-52296731D01*
X62706082Y-52248081D01*
X62700500Y-52215311D01*
X62700500Y-51601618D01*
X62700606Y-51598381D01*
X62701230Y-51588865D01*
X62715683Y-51368352D01*
X62716528Y-51361934D01*
X62719220Y-51348404D01*
X62761183Y-51137438D01*
X62762856Y-51131188D01*
X62836438Y-50914427D01*
X62838909Y-50908460D01*
X62940154Y-50703154D01*
X62943384Y-50697560D01*
X63070561Y-50507227D01*
X63074503Y-50502091D01*
X63225429Y-50329991D01*
X63229991Y-50325429D01*
X63402094Y-50174499D01*
X63407227Y-50170561D01*
X63597560Y-50043384D01*
X63603154Y-50040154D01*
X63808460Y-49938909D01*
X63814427Y-49936438D01*
X64031188Y-49862856D01*
X64037438Y-49861183D01*
X64101263Y-49848487D01*
X64261938Y-49816527D01*
X64268352Y-49815683D01*
X64498382Y-49800606D01*
X64501621Y-49800500D01*
X69018765Y-49800500D01*
X69076956Y-49819407D01*
X69112920Y-49868907D01*
X69112920Y-49930093D01*
X69101080Y-49954502D01*
X69056134Y-50021766D01*
X69056132Y-50021772D01*
X69044501Y-50080241D01*
X69044500Y-50080253D01*
X69044500Y-51419746D01*
X69044501Y-51419758D01*
X69056132Y-51478227D01*
X69056134Y-51478233D01*
X69100445Y-51544548D01*
X69100448Y-51544552D01*
X69166769Y-51588867D01*
X69211231Y-51597711D01*
X69225241Y-51600498D01*
X69225246Y-51600498D01*
X69225252Y-51600500D01*
X69225253Y-51600500D01*
X70814747Y-51600500D01*
X70814748Y-51600500D01*
X70873231Y-51588867D01*
X70939552Y-51544552D01*
X70983867Y-51478231D01*
X70995500Y-51419748D01*
X70995500Y-51199500D01*
X71014407Y-51141309D01*
X71063907Y-51105345D01*
X71094500Y-51100500D01*
X76905500Y-51100500D01*
X76963691Y-51119407D01*
X76999655Y-51168907D01*
X77004500Y-51199500D01*
X77004500Y-51419746D01*
X77004501Y-51419758D01*
X77016132Y-51478227D01*
X77016134Y-51478233D01*
X77060445Y-51544548D01*
X77060448Y-51544552D01*
X77126769Y-51588867D01*
X77171231Y-51597711D01*
X77185241Y-51600498D01*
X77185246Y-51600498D01*
X77185252Y-51600500D01*
X77185253Y-51600500D01*
X78774747Y-51600500D01*
X78774748Y-51600500D01*
X78833231Y-51588867D01*
X78899552Y-51544552D01*
X78943867Y-51478231D01*
X78955500Y-51419748D01*
X78955500Y-51199500D01*
X78974407Y-51141309D01*
X79023907Y-51105345D01*
X79054500Y-51100500D01*
X82203381Y-51100500D01*
X82223696Y-51102607D01*
X82225844Y-51103057D01*
X82235315Y-51105043D01*
X82268712Y-51100879D01*
X82274837Y-51100500D01*
X82279041Y-51100500D01*
X82289790Y-51098706D01*
X82300540Y-51096912D01*
X82351393Y-51090573D01*
X82351396Y-51090571D01*
X82358429Y-51088477D01*
X82365377Y-51086092D01*
X82365381Y-51086092D01*
X82410444Y-51061704D01*
X82456484Y-51039198D01*
X82462470Y-51034923D01*
X82468256Y-51030420D01*
X82502957Y-50992724D01*
X83106201Y-50389480D01*
X83714884Y-49780796D01*
X83730734Y-49767926D01*
X83740669Y-49761437D01*
X83761338Y-49734879D01*
X83765388Y-49730292D01*
X83768375Y-49727307D01*
X83781044Y-49709561D01*
X83812517Y-49669126D01*
X83812518Y-49669120D01*
X83816023Y-49662645D01*
X83819239Y-49656067D01*
X83819238Y-49656067D01*
X83819240Y-49656066D01*
X83833861Y-49606954D01*
X83850500Y-49558488D01*
X83850500Y-49558483D01*
X83851708Y-49551247D01*
X83852617Y-49543955D01*
X83850499Y-49492769D01*
X83850499Y-49258170D01*
X83850499Y-49061185D01*
X83869406Y-49002997D01*
X83879490Y-48991190D01*
X83929997Y-48940683D01*
X83984514Y-48912907D01*
X84044946Y-48922479D01*
X84070000Y-48940681D01*
X84143517Y-49014198D01*
X84197285Y-49040483D01*
X84248604Y-49065572D01*
X84248605Y-49065572D01*
X84248607Y-49065573D01*
X84316740Y-49075500D01*
X84316743Y-49075500D01*
X84683257Y-49075500D01*
X84683260Y-49075500D01*
X84751393Y-49065573D01*
X84856483Y-49014198D01*
X84929998Y-48940682D01*
X84984513Y-48912907D01*
X85044945Y-48922478D01*
G37*
%TD.AperFunction*%
%TA.AperFunction,Conductor*%
G36*
X106201618Y-43100606D02*
G01*
X106431644Y-43115682D01*
X106438065Y-43116528D01*
X106662562Y-43161184D01*
X106668816Y-43162859D01*
X106779216Y-43200335D01*
X106885565Y-43236436D01*
X106891553Y-43238916D01*
X107096835Y-43340150D01*
X107102449Y-43343391D01*
X107292768Y-43470558D01*
X107297907Y-43474501D01*
X107469995Y-43625419D01*
X107469997Y-43625420D01*
X107474580Y-43630003D01*
X107625496Y-43802089D01*
X107629442Y-43807232D01*
X107756611Y-43997554D01*
X107759852Y-44003168D01*
X107861082Y-44208442D01*
X107863562Y-44214430D01*
X107937139Y-44431177D01*
X107938816Y-44437438D01*
X107983471Y-44661934D01*
X107984317Y-44668360D01*
X107998019Y-44877410D01*
X107999395Y-44898392D01*
X107999501Y-44901631D01*
X107999501Y-47558992D01*
X107999500Y-47558995D01*
X107999500Y-47733100D01*
X107999501Y-47733117D01*
X108031586Y-47997365D01*
X108031588Y-47997380D01*
X108095295Y-48255846D01*
X108095296Y-48255849D01*
X108095297Y-48255852D01*
X108189697Y-48504764D01*
X108189699Y-48504767D01*
X108313414Y-48740487D01*
X108313415Y-48740488D01*
X108464626Y-48959556D01*
X108464631Y-48959562D01*
X108464637Y-48959571D01*
X108641168Y-49158833D01*
X108840430Y-49335364D01*
X108840440Y-49335371D01*
X108840444Y-49335374D01*
X109059512Y-49486585D01*
X109059513Y-49486586D01*
X109059515Y-49486587D01*
X109059518Y-49486589D01*
X109265996Y-49594957D01*
X109295239Y-49610305D01*
X109304740Y-49613908D01*
X109544149Y-49704703D01*
X109544164Y-49704706D01*
X109547006Y-49705593D01*
X109546645Y-49706748D01*
X109594804Y-49736664D01*
X109617874Y-49793333D01*
X109603229Y-49852740D01*
X109556462Y-49892193D01*
X109519134Y-49899500D01*
X109185252Y-49899500D01*
X109185251Y-49899500D01*
X109185241Y-49899501D01*
X109126772Y-49911132D01*
X109126766Y-49911134D01*
X109060451Y-49955445D01*
X109060445Y-49955451D01*
X109016134Y-50021766D01*
X109016132Y-50021772D01*
X109004501Y-50080241D01*
X109004500Y-50080253D01*
X109004500Y-50300500D01*
X108985593Y-50358691D01*
X108936093Y-50394655D01*
X108905500Y-50399500D01*
X103094500Y-50399500D01*
X103036309Y-50380593D01*
X103000345Y-50331093D01*
X102995500Y-50300500D01*
X102995500Y-50080253D01*
X102995498Y-50080241D01*
X102987809Y-50041587D01*
X102983867Y-50021769D01*
X102939552Y-49955448D01*
X102939548Y-49955445D01*
X102873233Y-49911134D01*
X102873231Y-49911133D01*
X102873228Y-49911132D01*
X102873227Y-49911132D01*
X102814758Y-49899501D01*
X102814748Y-49899500D01*
X102814747Y-49899500D01*
X102469500Y-49899500D01*
X102411309Y-49880593D01*
X102375345Y-49831093D01*
X102370500Y-49800500D01*
X102370500Y-47666618D01*
X102372607Y-47646302D01*
X102372617Y-47646253D01*
X102375043Y-47634685D01*
X102370879Y-47601288D01*
X102370500Y-47595162D01*
X102370500Y-47590961D01*
X102370500Y-47590960D01*
X102366911Y-47569457D01*
X102360573Y-47518608D01*
X102360572Y-47518606D01*
X102360572Y-47518603D01*
X102358480Y-47511577D01*
X102356091Y-47504616D01*
X102331699Y-47459545D01*
X102309198Y-47413516D01*
X102304930Y-47407538D01*
X102300420Y-47401744D01*
X102262712Y-47367030D01*
X99571622Y-44675940D01*
X99543845Y-44621423D01*
X99543655Y-44620169D01*
X99536697Y-44571774D01*
X99482882Y-44453937D01*
X99398049Y-44356033D01*
X99398048Y-44356032D01*
X99398047Y-44356031D01*
X99289073Y-44285998D01*
X99289070Y-44285996D01*
X99289069Y-44285996D01*
X99289066Y-44285995D01*
X99164774Y-44249500D01*
X99164772Y-44249500D01*
X99035228Y-44249500D01*
X99035225Y-44249500D01*
X98910933Y-44285995D01*
X98910926Y-44285998D01*
X98801952Y-44356031D01*
X98717117Y-44453938D01*
X98663302Y-44571774D01*
X98644867Y-44699997D01*
X98644867Y-44700002D01*
X98663302Y-44828225D01*
X98695342Y-44898381D01*
X98717118Y-44946063D01*
X98801951Y-45043967D01*
X98801952Y-45043968D01*
X98814013Y-45051719D01*
X98910931Y-45114004D01*
X99035228Y-45150500D01*
X99035230Y-45150500D01*
X99038714Y-45151523D01*
X99080827Y-45176509D01*
X101640504Y-47736186D01*
X101668281Y-47790703D01*
X101669500Y-47806190D01*
X101669500Y-49800500D01*
X101650593Y-49858691D01*
X101601093Y-49894655D01*
X101570500Y-49899500D01*
X101225252Y-49899500D01*
X101225251Y-49899500D01*
X101225241Y-49899501D01*
X101166772Y-49911132D01*
X101166766Y-49911134D01*
X101100451Y-49955445D01*
X101100445Y-49955451D01*
X101056134Y-50021766D01*
X101056132Y-50021772D01*
X101044501Y-50080241D01*
X101044500Y-50080253D01*
X101044500Y-51419746D01*
X101044501Y-51419758D01*
X101056132Y-51478227D01*
X101056134Y-51478233D01*
X101100445Y-51544548D01*
X101100448Y-51544552D01*
X101166769Y-51588867D01*
X101211231Y-51597711D01*
X101225241Y-51600498D01*
X101225246Y-51600498D01*
X101225252Y-51600500D01*
X101225253Y-51600500D01*
X102814747Y-51600500D01*
X102814748Y-51600500D01*
X102873231Y-51588867D01*
X102939552Y-51544552D01*
X102983867Y-51478231D01*
X102995500Y-51419748D01*
X102995499Y-51199500D01*
X103014407Y-51141309D01*
X103063907Y-51105345D01*
X103094500Y-51100500D01*
X108905500Y-51100500D01*
X108963691Y-51119407D01*
X108999655Y-51168907D01*
X109004500Y-51199500D01*
X109004500Y-51419746D01*
X109004501Y-51419758D01*
X109016132Y-51478227D01*
X109016134Y-51478233D01*
X109060445Y-51544548D01*
X109060448Y-51544552D01*
X109126769Y-51588867D01*
X109171231Y-51597711D01*
X109185241Y-51600498D01*
X109185246Y-51600498D01*
X109185252Y-51600500D01*
X109185253Y-51600500D01*
X110774747Y-51600500D01*
X110774748Y-51600500D01*
X110833231Y-51588867D01*
X110899552Y-51544552D01*
X110943867Y-51478231D01*
X110955500Y-51419748D01*
X110955500Y-50080252D01*
X110943867Y-50021769D01*
X110899552Y-49955448D01*
X110898920Y-49954502D01*
X110882311Y-49895614D01*
X110903488Y-49838210D01*
X110954362Y-49804217D01*
X110981235Y-49800500D01*
X115460118Y-49800500D01*
X115498379Y-49800500D01*
X115501617Y-49800606D01*
X115731645Y-49815682D01*
X115738063Y-49816527D01*
X115801890Y-49829223D01*
X115962561Y-49861183D01*
X115968814Y-49862858D01*
X116111024Y-49911132D01*
X116185569Y-49936437D01*
X116191544Y-49938911D01*
X116396838Y-50040151D01*
X116402446Y-50043388D01*
X116457616Y-50080252D01*
X116592766Y-50170557D01*
X116597908Y-50174503D01*
X116667963Y-50235939D01*
X116770000Y-50325422D01*
X116774577Y-50329999D01*
X116826740Y-50389480D01*
X116925496Y-50502091D01*
X116929442Y-50507233D01*
X117056610Y-50697552D01*
X117059851Y-50703166D01*
X117136973Y-50859555D01*
X117161082Y-50908442D01*
X117163562Y-50914430D01*
X117237139Y-51131177D01*
X117238816Y-51137438D01*
X117283471Y-51361934D01*
X117284317Y-51368360D01*
X117299394Y-51598381D01*
X117299500Y-51601620D01*
X117299500Y-55398379D01*
X117299394Y-55401618D01*
X117284317Y-55631639D01*
X117283471Y-55638065D01*
X117238816Y-55862561D01*
X117237139Y-55868822D01*
X117163562Y-56085569D01*
X117161082Y-56091557D01*
X117059851Y-56296833D01*
X117056610Y-56302447D01*
X116929442Y-56492766D01*
X116925496Y-56497908D01*
X116774580Y-56669997D01*
X116769997Y-56674580D01*
X116597908Y-56825496D01*
X116592766Y-56829442D01*
X116402447Y-56956610D01*
X116396833Y-56959851D01*
X116191557Y-57061082D01*
X116185569Y-57063562D01*
X115968822Y-57137139D01*
X115962561Y-57138816D01*
X115738065Y-57183471D01*
X115731639Y-57184317D01*
X115520336Y-57198167D01*
X115501631Y-57199393D01*
X115498394Y-57199499D01*
X89235190Y-57199499D01*
X89176999Y-57180592D01*
X89141035Y-57131092D01*
X89141035Y-57069906D01*
X89165184Y-57030497D01*
X90255556Y-55940125D01*
X90310071Y-55912350D01*
X90370503Y-55921921D01*
X90412626Y-55963012D01*
X90438295Y-56010444D01*
X90460801Y-56056482D01*
X90465069Y-56062460D01*
X90469581Y-56068257D01*
X90469582Y-56068258D01*
X90488387Y-56085569D01*
X90507276Y-56102957D01*
X90969197Y-56564879D01*
X90982072Y-56580734D01*
X90988563Y-56590669D01*
X91015110Y-56611331D01*
X91019709Y-56615391D01*
X91022689Y-56618371D01*
X91022693Y-56618374D01*
X91039563Y-56630420D01*
X91040428Y-56631037D01*
X91080874Y-56662517D01*
X91080875Y-56662517D01*
X91080876Y-56662518D01*
X91087337Y-56666014D01*
X91093934Y-56669240D01*
X91143045Y-56683861D01*
X91191512Y-56700500D01*
X91191516Y-56700500D01*
X91198733Y-56701705D01*
X91206039Y-56702615D01*
X91206046Y-56702617D01*
X91257242Y-56700500D01*
X95430252Y-56700500D01*
X95969748Y-56700500D01*
X96472620Y-56700500D01*
X96492935Y-56702607D01*
X96495083Y-56703057D01*
X96504554Y-56705043D01*
X96537951Y-56700879D01*
X96544076Y-56700500D01*
X96548280Y-56700500D01*
X96559029Y-56698706D01*
X96569779Y-56696912D01*
X96620632Y-56690573D01*
X96620635Y-56690571D01*
X96627668Y-56688477D01*
X96634616Y-56686092D01*
X96634620Y-56686092D01*
X96679683Y-56661704D01*
X96725723Y-56639198D01*
X96731709Y-56634923D01*
X96737495Y-56630420D01*
X96772196Y-56592724D01*
X98178737Y-55186183D01*
X99614884Y-53750035D01*
X99630734Y-53737165D01*
X99640669Y-53730676D01*
X99661338Y-53704118D01*
X99665388Y-53699531D01*
X99668375Y-53696546D01*
X99668381Y-53696538D01*
X99681041Y-53678805D01*
X99712516Y-53638366D01*
X99716008Y-53631912D01*
X99719237Y-53625308D01*
X99719237Y-53625307D01*
X99719239Y-53625305D01*
X99733856Y-53576205D01*
X99750500Y-53527727D01*
X99750500Y-53527723D01*
X99751706Y-53520498D01*
X99752617Y-53513193D01*
X99750500Y-53462008D01*
X99750500Y-47339512D01*
X99752607Y-47319196D01*
X99752617Y-47319147D01*
X99755043Y-47307579D01*
X99750879Y-47274182D01*
X99750500Y-47268056D01*
X99750500Y-47263853D01*
X99746912Y-47242353D01*
X99742731Y-47208814D01*
X99740573Y-47191501D01*
X99740572Y-47191499D01*
X99740572Y-47191497D01*
X99738479Y-47184469D01*
X99736091Y-47177510D01*
X99711704Y-47132448D01*
X99689198Y-47086409D01*
X99684948Y-47080456D01*
X99680418Y-47074636D01*
X99642724Y-47039935D01*
X98187907Y-45585119D01*
X98175031Y-45569262D01*
X98168543Y-45559331D01*
X98141991Y-45538665D01*
X98137389Y-45534601D01*
X98134413Y-45531625D01*
X98116666Y-45518954D01*
X98076234Y-45487484D01*
X98069783Y-45483993D01*
X98063174Y-45480761D01*
X98063172Y-45480760D01*
X98014060Y-45466138D01*
X97965594Y-45449500D01*
X97965591Y-45449499D01*
X97958366Y-45448293D01*
X97951061Y-45447383D01*
X97951060Y-45447383D01*
X97951058Y-45447383D01*
X97899875Y-45449500D01*
X89039506Y-45449500D01*
X89019191Y-45447393D01*
X89007578Y-45444958D01*
X88974187Y-45449120D01*
X88968062Y-45449500D01*
X88963849Y-45449500D01*
X88942341Y-45453089D01*
X88891500Y-45459426D01*
X88884468Y-45461519D01*
X88877509Y-45463908D01*
X88832448Y-45488295D01*
X88786410Y-45510801D01*
X88780435Y-45515066D01*
X88774637Y-45519579D01*
X88739935Y-45557275D01*
X87285120Y-47012091D01*
X87269270Y-47024963D01*
X87259331Y-47031457D01*
X87259327Y-47031461D01*
X87238661Y-47058012D01*
X87234607Y-47062604D01*
X87231630Y-47065582D01*
X87231622Y-47065591D01*
X87225164Y-47074636D01*
X87220506Y-47081161D01*
X87218962Y-47083323D01*
X87187483Y-47123767D01*
X87183981Y-47130240D01*
X87177158Y-47144197D01*
X87174841Y-47143064D01*
X87147246Y-47183073D01*
X87144649Y-47184992D01*
X87143525Y-47185794D01*
X87143517Y-47185801D01*
X87143517Y-47185802D01*
X87070001Y-47259317D01*
X87015487Y-47287093D01*
X86955055Y-47277522D01*
X86929999Y-47259318D01*
X86856483Y-47185802D01*
X86840499Y-47177988D01*
X86751395Y-47134427D01*
X86722656Y-47130240D01*
X86683260Y-47124500D01*
X86316740Y-47124500D01*
X86282673Y-47129463D01*
X86248604Y-47134427D01*
X86143518Y-47185801D01*
X86143517Y-47185801D01*
X86143517Y-47185802D01*
X86070001Y-47259317D01*
X86015487Y-47287093D01*
X85955055Y-47277522D01*
X85929999Y-47259318D01*
X85856483Y-47185802D01*
X85840499Y-47177988D01*
X85751395Y-47134427D01*
X85722656Y-47130240D01*
X85683260Y-47124500D01*
X85316740Y-47124500D01*
X85282673Y-47129463D01*
X85248604Y-47134427D01*
X85143518Y-47185801D01*
X85143517Y-47185801D01*
X85143517Y-47185802D01*
X85070001Y-47259317D01*
X85015487Y-47287093D01*
X84955055Y-47277522D01*
X84929999Y-47259318D01*
X84879494Y-47208813D01*
X84851719Y-47154299D01*
X84850500Y-47138812D01*
X84850500Y-46386189D01*
X84869407Y-46327998D01*
X84879496Y-46316185D01*
X86116186Y-45079496D01*
X86170703Y-45051719D01*
X86186190Y-45050500D01*
X96183048Y-45050500D01*
X96236571Y-45066216D01*
X96310926Y-45114001D01*
X96310931Y-45114004D01*
X96435228Y-45150500D01*
X96435230Y-45150500D01*
X96564770Y-45150500D01*
X96564772Y-45150500D01*
X96689069Y-45114004D01*
X96798049Y-45043967D01*
X96882882Y-44946063D01*
X96936697Y-44828226D01*
X96955133Y-44700000D01*
X96943835Y-44621423D01*
X96936697Y-44571774D01*
X96882882Y-44453938D01*
X96882882Y-44453937D01*
X96798049Y-44356033D01*
X96798048Y-44356032D01*
X96798047Y-44356031D01*
X96689073Y-44285998D01*
X96689070Y-44285996D01*
X96689069Y-44285996D01*
X96689066Y-44285995D01*
X96564774Y-44249500D01*
X96564772Y-44249500D01*
X96435228Y-44249500D01*
X96435225Y-44249500D01*
X96310933Y-44285995D01*
X96310926Y-44285998D01*
X96236571Y-44333784D01*
X96183048Y-44349500D01*
X86046613Y-44349500D01*
X86026298Y-44347393D01*
X86014685Y-44344958D01*
X85981294Y-44349120D01*
X85975169Y-44349500D01*
X85970956Y-44349500D01*
X85949448Y-44353089D01*
X85898607Y-44359426D01*
X85891575Y-44361519D01*
X85884616Y-44363908D01*
X85839555Y-44388295D01*
X85793517Y-44410801D01*
X85787542Y-44415066D01*
X85781744Y-44419579D01*
X85747042Y-44457275D01*
X84285118Y-45919198D01*
X84269265Y-45932071D01*
X84259335Y-45938559D01*
X84259332Y-45938561D01*
X84238664Y-45965114D01*
X84234605Y-45969712D01*
X84231619Y-45972698D01*
X84218955Y-45990437D01*
X84187483Y-46030874D01*
X84183981Y-46037343D01*
X84180758Y-46043936D01*
X84166138Y-46093045D01*
X84149499Y-46141512D01*
X84148293Y-46148743D01*
X84147383Y-46156047D01*
X84149500Y-46207231D01*
X84149500Y-47138811D01*
X84130593Y-47197002D01*
X84120504Y-47208814D01*
X84070004Y-47259315D01*
X84015488Y-47287093D01*
X83955056Y-47277522D01*
X83929999Y-47259318D01*
X83856483Y-47185802D01*
X83840499Y-47177988D01*
X83751395Y-47134427D01*
X83722656Y-47130240D01*
X83683260Y-47124500D01*
X83316740Y-47124500D01*
X83282673Y-47129463D01*
X83248604Y-47134427D01*
X83143518Y-47185801D01*
X83060801Y-47268518D01*
X83009427Y-47373604D01*
X83009427Y-47373607D01*
X82999500Y-47441740D01*
X82999500Y-48758260D01*
X83000000Y-48761691D01*
X83009427Y-48826395D01*
X83031937Y-48872439D01*
X83060802Y-48931483D01*
X83120505Y-48991186D01*
X83148281Y-49045701D01*
X83149500Y-49061188D01*
X83149500Y-49313809D01*
X83130593Y-49372000D01*
X83120504Y-49383813D01*
X82133814Y-50370504D01*
X82079297Y-50398281D01*
X82063810Y-50399500D01*
X79054500Y-50399500D01*
X78996309Y-50380593D01*
X78960345Y-50331093D01*
X78955500Y-50300500D01*
X78955500Y-50080253D01*
X78955498Y-50080241D01*
X78947809Y-50041587D01*
X78943867Y-50021769D01*
X78899552Y-49955448D01*
X78899548Y-49955445D01*
X78833233Y-49911134D01*
X78833231Y-49911133D01*
X78833228Y-49911132D01*
X78833227Y-49911132D01*
X78774758Y-49899501D01*
X78774748Y-49899500D01*
X77185252Y-49899500D01*
X77185251Y-49899500D01*
X77185241Y-49899501D01*
X77126772Y-49911132D01*
X77126766Y-49911134D01*
X77060451Y-49955445D01*
X77060445Y-49955451D01*
X77016134Y-50021766D01*
X77016132Y-50021772D01*
X77004501Y-50080241D01*
X77004500Y-50080253D01*
X77004500Y-50300500D01*
X76985593Y-50358691D01*
X76936093Y-50394655D01*
X76905500Y-50399500D01*
X71094500Y-50399500D01*
X71036309Y-50380593D01*
X71000345Y-50331093D01*
X70995500Y-50300500D01*
X70995500Y-50080253D01*
X70995498Y-50080241D01*
X70987809Y-50041587D01*
X70983867Y-50021769D01*
X70939552Y-49955448D01*
X70939548Y-49955445D01*
X70873233Y-49911134D01*
X70873231Y-49911133D01*
X70873228Y-49911132D01*
X70873227Y-49911132D01*
X70814758Y-49899501D01*
X70814748Y-49899500D01*
X70480867Y-49899500D01*
X70422676Y-49880593D01*
X70386712Y-49831093D01*
X70386712Y-49769907D01*
X70422676Y-49720407D01*
X70453192Y-49706226D01*
X70452995Y-49705593D01*
X70455833Y-49704707D01*
X70455852Y-49704703D01*
X70704764Y-49610303D01*
X70940483Y-49486589D01*
X71159570Y-49335363D01*
X71358832Y-49158832D01*
X71535363Y-48959570D01*
X71686589Y-48740483D01*
X71810303Y-48504764D01*
X71904703Y-48255852D01*
X71968412Y-47997376D01*
X72000500Y-47733106D01*
X72000500Y-47600000D01*
X72000500Y-47560118D01*
X72000500Y-47560117D01*
X72000500Y-44901618D01*
X72000606Y-44898381D01*
X72015683Y-44668352D01*
X72016528Y-44661934D01*
X72018377Y-44652642D01*
X72061183Y-44437438D01*
X72062856Y-44431188D01*
X72136438Y-44214427D01*
X72138909Y-44208460D01*
X72240154Y-44003154D01*
X72243388Y-43997554D01*
X72370561Y-43807227D01*
X72374503Y-43802091D01*
X72374505Y-43802089D01*
X72525429Y-43629991D01*
X72529991Y-43625429D01*
X72702094Y-43474499D01*
X72707232Y-43470558D01*
X72897560Y-43343384D01*
X72903154Y-43340154D01*
X73108460Y-43238909D01*
X73114427Y-43236438D01*
X73331188Y-43162856D01*
X73337438Y-43161183D01*
X73401263Y-43148487D01*
X73561938Y-43116527D01*
X73568352Y-43115683D01*
X73798382Y-43100606D01*
X73801621Y-43100500D01*
X73839882Y-43100500D01*
X106160119Y-43100500D01*
X106198380Y-43100500D01*
X106201618Y-43100606D01*
G37*
%TD.AperFunction*%
%TA.AperFunction,Conductor*%
G36*
X93331867Y-50319407D02*
G01*
X93367831Y-50368907D01*
X93372168Y-50389480D01*
X93379995Y-50466423D01*
X93399573Y-50524378D01*
X93399578Y-50524390D01*
X93418508Y-50560496D01*
X93420120Y-50563876D01*
X93445017Y-50621596D01*
X93445018Y-50621599D01*
X93445021Y-50621604D01*
X93473261Y-50668604D01*
X93473263Y-50668607D01*
X93505970Y-50709482D01*
X93505970Y-50709481D01*
X93505974Y-50709486D01*
X93524416Y-50729628D01*
X93602926Y-50776536D01*
X93661117Y-50795443D01*
X93673171Y-50797352D01*
X93724615Y-50805500D01*
X93724619Y-50805500D01*
X93865309Y-50805500D01*
X93865310Y-50805500D01*
X93913282Y-50799822D01*
X93932957Y-50795098D01*
X93958216Y-50789035D01*
X93958216Y-50789034D01*
X93958227Y-50789032D01*
X93978127Y-50783178D01*
X94055565Y-50734520D01*
X94077199Y-50712885D01*
X94131714Y-50685110D01*
X94192146Y-50694681D01*
X94217205Y-50712887D01*
X95969199Y-52464881D01*
X95982074Y-52480737D01*
X95988563Y-52490669D01*
X96015110Y-52511332D01*
X96019708Y-52515392D01*
X96022687Y-52518370D01*
X96022690Y-52518372D01*
X96022693Y-52518375D01*
X96035370Y-52527425D01*
X96040435Y-52531042D01*
X96050914Y-52539198D01*
X96080874Y-52562517D01*
X96080875Y-52562517D01*
X96080876Y-52562518D01*
X96087318Y-52566005D01*
X96093932Y-52569238D01*
X96093933Y-52569238D01*
X96093934Y-52569239D01*
X96143033Y-52583856D01*
X96191512Y-52600500D01*
X96191513Y-52600500D01*
X96198732Y-52601705D01*
X96206039Y-52602615D01*
X96206046Y-52602617D01*
X96257231Y-52600500D01*
X97830252Y-52600500D01*
X98041512Y-52600500D01*
X98503381Y-52600500D01*
X98523696Y-52602607D01*
X98525844Y-52603057D01*
X98535315Y-52605043D01*
X98568712Y-52600879D01*
X98574837Y-52600500D01*
X98579041Y-52600500D01*
X98589790Y-52598706D01*
X98600540Y-52596912D01*
X98651393Y-52590573D01*
X98651396Y-52590571D01*
X98658429Y-52588477D01*
X98665377Y-52586092D01*
X98665381Y-52586092D01*
X98710444Y-52561704D01*
X98756484Y-52539198D01*
X98762470Y-52534923D01*
X98768256Y-52530420D01*
X98785828Y-52511332D01*
X98802957Y-52492724D01*
X98880498Y-52415182D01*
X98935013Y-52387407D01*
X98995445Y-52396978D01*
X99038710Y-52440243D01*
X99049500Y-52485188D01*
X99049500Y-53283048D01*
X99030593Y-53341239D01*
X99020504Y-53353052D01*
X96403053Y-55970504D01*
X96348536Y-55998281D01*
X96333049Y-55999500D01*
X91436190Y-55999500D01*
X91377999Y-55980593D01*
X91366186Y-55970504D01*
X91129496Y-55733814D01*
X91101719Y-55679297D01*
X91100500Y-55663810D01*
X91100500Y-54604500D01*
X91119407Y-54546309D01*
X91168907Y-54510345D01*
X91199500Y-54505500D01*
X92000996Y-54505500D01*
X92001000Y-54505500D01*
X92033144Y-54502970D01*
X92048747Y-54500499D01*
X92063738Y-54498125D01*
X92064874Y-54497931D01*
X92068287Y-54497352D01*
X92152383Y-54461408D01*
X92201883Y-54425444D01*
X92229628Y-54401203D01*
X92276536Y-54322693D01*
X92295443Y-54264502D01*
X92305500Y-54201000D01*
X92305500Y-53808095D01*
X92305647Y-53806054D01*
X92305647Y-53793960D01*
X92305500Y-53791903D01*
X92305500Y-53073402D01*
X93239500Y-53073402D01*
X93263827Y-53156252D01*
X93280857Y-53214250D01*
X93360222Y-53337744D01*
X93471164Y-53433877D01*
X93604696Y-53494859D01*
X93604697Y-53494859D01*
X93604699Y-53494860D01*
X93713479Y-53510500D01*
X93713484Y-53510500D01*
X93786521Y-53510500D01*
X93895300Y-53494860D01*
X93895301Y-53494859D01*
X93895304Y-53494859D01*
X94028836Y-53433877D01*
X94139778Y-53337744D01*
X94219143Y-53214250D01*
X94260500Y-53073399D01*
X94260500Y-52926601D01*
X94219143Y-52785750D01*
X94139778Y-52662256D01*
X94028836Y-52566123D01*
X93932027Y-52521912D01*
X93895300Y-52505139D01*
X93786521Y-52489500D01*
X93786516Y-52489500D01*
X93713484Y-52489500D01*
X93713479Y-52489500D01*
X93604699Y-52505139D01*
X93471164Y-52566123D01*
X93360222Y-52662256D01*
X93280857Y-52785749D01*
X93280856Y-52785752D01*
X93239500Y-52926597D01*
X93239500Y-53073402D01*
X92305500Y-53073402D01*
X92305500Y-53008109D01*
X92305647Y-53006053D01*
X92305647Y-52993960D01*
X92305500Y-52991903D01*
X92305500Y-52208109D01*
X92305647Y-52206053D01*
X92305647Y-52193960D01*
X92305500Y-52191903D01*
X92305500Y-51799004D01*
X92305499Y-51798996D01*
X92302970Y-51766856D01*
X92298125Y-51736263D01*
X92297995Y-51735498D01*
X92297353Y-51731714D01*
X92297352Y-51731713D01*
X92261408Y-51647617D01*
X92225444Y-51598117D01*
X92201203Y-51570372D01*
X92122693Y-51523464D01*
X92122691Y-51523463D01*
X92122689Y-51523462D01*
X92064499Y-51504556D01*
X92064500Y-51504556D01*
X92001003Y-51494500D01*
X92001000Y-51494500D01*
X91199500Y-51494500D01*
X91167356Y-51497030D01*
X91162042Y-51497871D01*
X91159456Y-51498281D01*
X91143971Y-51499500D01*
X91080248Y-51499500D01*
X91019314Y-51511621D01*
X90980686Y-51511621D01*
X90919751Y-51499500D01*
X90919748Y-51499500D01*
X90699500Y-51499500D01*
X90641309Y-51480593D01*
X90605345Y-51431093D01*
X90600500Y-51400500D01*
X90600500Y-51396613D01*
X90602607Y-51376297D01*
X90604271Y-51368360D01*
X90605042Y-51364685D01*
X90600879Y-51331294D01*
X90600500Y-51325168D01*
X90600500Y-51320954D01*
X90596911Y-51299449D01*
X90593290Y-51270407D01*
X90590573Y-51248607D01*
X90590571Y-51248604D01*
X90588477Y-51241569D01*
X90586091Y-51234616D01*
X90561704Y-51189554D01*
X90539198Y-51143515D01*
X90534948Y-51137562D01*
X90530418Y-51131742D01*
X90492724Y-51097041D01*
X90471622Y-51075940D01*
X90443845Y-51021423D01*
X90443645Y-51020102D01*
X90436697Y-50971774D01*
X90424080Y-50944148D01*
X90382883Y-50853939D01*
X90382882Y-50853938D01*
X90382882Y-50853937D01*
X90298049Y-50756033D01*
X90298048Y-50756032D01*
X90298047Y-50756031D01*
X90189073Y-50685998D01*
X90189070Y-50685996D01*
X90189069Y-50685996D01*
X90189066Y-50685995D01*
X90064774Y-50649500D01*
X90064772Y-50649500D01*
X89935228Y-50649500D01*
X89935225Y-50649500D01*
X89810933Y-50685995D01*
X89810931Y-50685996D01*
X89753023Y-50723211D01*
X89693847Y-50738764D01*
X89636831Y-50716565D01*
X89603752Y-50665093D01*
X89600500Y-50639926D01*
X89600500Y-50529082D01*
X89619407Y-50470891D01*
X89629497Y-50459078D01*
X89759080Y-50329496D01*
X89813596Y-50301719D01*
X89829083Y-50300500D01*
X93273676Y-50300500D01*
X93331867Y-50319407D01*
G37*
%TD.AperFunction*%
%TA.AperFunction,Conductor*%
G36*
X92860296Y-46669407D02*
G01*
X92896260Y-46718907D01*
X92899886Y-46764985D01*
X92894500Y-46798994D01*
X92894500Y-46991903D01*
X92894353Y-46993960D01*
X92894353Y-47006053D01*
X92894500Y-47008109D01*
X92894500Y-49191903D01*
X92894353Y-49193960D01*
X92894353Y-49206053D01*
X92894500Y-49208109D01*
X92894500Y-49500500D01*
X92875593Y-49558691D01*
X92826093Y-49594655D01*
X92795500Y-49599500D01*
X89689513Y-49599500D01*
X89669198Y-49597393D01*
X89657580Y-49594957D01*
X89657579Y-49594957D01*
X89624181Y-49599120D01*
X89618057Y-49599500D01*
X89613854Y-49599500D01*
X89603103Y-49601293D01*
X89592352Y-49603087D01*
X89541500Y-49609426D01*
X89534475Y-49611517D01*
X89527510Y-49613908D01*
X89482449Y-49638295D01*
X89436411Y-49660801D01*
X89430436Y-49665066D01*
X89424638Y-49669579D01*
X89389936Y-49707275D01*
X89035117Y-50062092D01*
X89019265Y-50074965D01*
X89009335Y-50081453D01*
X89009332Y-50081455D01*
X88988664Y-50108008D01*
X88984605Y-50112606D01*
X88981619Y-50115592D01*
X88968955Y-50133331D01*
X88937483Y-50173768D01*
X88933981Y-50180237D01*
X88930758Y-50186830D01*
X88916138Y-50235939D01*
X88899499Y-50284406D01*
X88898293Y-50291637D01*
X88897383Y-50298941D01*
X88899500Y-50350125D01*
X88899500Y-51395500D01*
X88880593Y-51453691D01*
X88831093Y-51489655D01*
X88800500Y-51494500D01*
X87999000Y-51494500D01*
X87966856Y-51497030D01*
X87958957Y-51498281D01*
X87936262Y-51501875D01*
X87931715Y-51502647D01*
X87931713Y-51502647D01*
X87847617Y-51538591D01*
X87798118Y-51574555D01*
X87770372Y-51598797D01*
X87723464Y-51677307D01*
X87723462Y-51677310D01*
X87704556Y-51735499D01*
X87694500Y-51798996D01*
X87694500Y-52191903D01*
X87694353Y-52193960D01*
X87694353Y-52206054D01*
X87694500Y-52208108D01*
X87694499Y-52991903D01*
X87694353Y-52993961D01*
X87694353Y-53006054D01*
X87694500Y-53008108D01*
X87694499Y-53791903D01*
X87694353Y-53793961D01*
X87694353Y-53806054D01*
X87694500Y-53808108D01*
X87694500Y-54201000D01*
X87697030Y-54233142D01*
X87697030Y-54233143D01*
X87701875Y-54263738D01*
X87702647Y-54268284D01*
X87702647Y-54268286D01*
X87738591Y-54352382D01*
X87738592Y-54352383D01*
X87774556Y-54401883D01*
X87798797Y-54429628D01*
X87877307Y-54476536D01*
X87935498Y-54495443D01*
X87947552Y-54497352D01*
X87998996Y-54505500D01*
X87999000Y-54505500D01*
X88800496Y-54505500D01*
X88800500Y-54505500D01*
X88832644Y-54502970D01*
X88837957Y-54502128D01*
X88840544Y-54501719D01*
X88856029Y-54500500D01*
X88919747Y-54500500D01*
X88919748Y-54500500D01*
X88955486Y-54493391D01*
X89016246Y-54500581D01*
X89061177Y-54542112D01*
X89073115Y-54602121D01*
X89072793Y-54604576D01*
X89053887Y-54736076D01*
X89053887Y-54736083D01*
X89072322Y-54864306D01*
X89126138Y-54982144D01*
X89134337Y-54991606D01*
X89158157Y-55047964D01*
X89158520Y-55056439D01*
X89158520Y-55297683D01*
X89139613Y-55355874D01*
X89129524Y-55367687D01*
X88576708Y-55920504D01*
X88522191Y-55948281D01*
X88506704Y-55949500D01*
X82436189Y-55949500D01*
X82377998Y-55930593D01*
X82366185Y-55920503D01*
X82229496Y-55783813D01*
X82201719Y-55729297D01*
X82200500Y-55713810D01*
X82200500Y-54043295D01*
X82219407Y-53985104D01*
X82229490Y-53973297D01*
X83142161Y-53060626D01*
X85689500Y-53060626D01*
X85713074Y-53148607D01*
X85720883Y-53177751D01*
X85781504Y-53282749D01*
X85781506Y-53282751D01*
X85781508Y-53282754D01*
X85867246Y-53368492D01*
X85867248Y-53368493D01*
X85944346Y-53413006D01*
X85959672Y-53423919D01*
X85971164Y-53433877D01*
X86104696Y-53494859D01*
X86104697Y-53494859D01*
X86104699Y-53494860D01*
X86213479Y-53510500D01*
X86213484Y-53510500D01*
X86286521Y-53510500D01*
X86395300Y-53494860D01*
X86395301Y-53494859D01*
X86395304Y-53494859D01*
X86528836Y-53433877D01*
X86540328Y-53423918D01*
X86555648Y-53413008D01*
X86632754Y-53368492D01*
X86718492Y-53282754D01*
X86718495Y-53282749D01*
X86779116Y-53177751D01*
X86779116Y-53177749D01*
X86779118Y-53177747D01*
X86810500Y-53060626D01*
X86810500Y-53000000D01*
X86810500Y-52960118D01*
X86810500Y-52939374D01*
X86779118Y-52822253D01*
X86779116Y-52822250D01*
X86779116Y-52822248D01*
X86718495Y-52717250D01*
X86718493Y-52717248D01*
X86718492Y-52717246D01*
X86632754Y-52631508D01*
X86555652Y-52586993D01*
X86540326Y-52576079D01*
X86528837Y-52566124D01*
X86528836Y-52566123D01*
X86424282Y-52518375D01*
X86395300Y-52505139D01*
X86286521Y-52489500D01*
X86286516Y-52489500D01*
X86213484Y-52489500D01*
X86213479Y-52489500D01*
X86104697Y-52505140D01*
X86104695Y-52505140D01*
X85971162Y-52566123D01*
X85959674Y-52576078D01*
X85944346Y-52586993D01*
X85867248Y-52631506D01*
X85781504Y-52717250D01*
X85720883Y-52822248D01*
X85715124Y-52843743D01*
X85689500Y-52939374D01*
X85689500Y-52960118D01*
X85689500Y-53000000D01*
X85689500Y-53060626D01*
X83142161Y-53060626D01*
X86714884Y-49487902D01*
X86730734Y-49475032D01*
X86740669Y-49468543D01*
X86761338Y-49441985D01*
X86765388Y-49437398D01*
X86768375Y-49434413D01*
X86781044Y-49416667D01*
X86812517Y-49376232D01*
X86812518Y-49376226D01*
X86816023Y-49369751D01*
X86819239Y-49363173D01*
X86819238Y-49363173D01*
X86819240Y-49363172D01*
X86833861Y-49314060D01*
X86850500Y-49265594D01*
X86850500Y-49265589D01*
X86851707Y-49258360D01*
X86852617Y-49251060D01*
X86850500Y-49199875D01*
X86850500Y-49061188D01*
X86869407Y-49002997D01*
X86879490Y-48991190D01*
X86929998Y-48940682D01*
X86984513Y-48912907D01*
X87044945Y-48922478D01*
X87070000Y-48940681D01*
X87143517Y-49014198D01*
X87197285Y-49040483D01*
X87248604Y-49065572D01*
X87248605Y-49065572D01*
X87248607Y-49065573D01*
X87316740Y-49075500D01*
X87316743Y-49075500D01*
X87683257Y-49075500D01*
X87683260Y-49075500D01*
X87751393Y-49065573D01*
X87856483Y-49014198D01*
X87929998Y-48940682D01*
X87984513Y-48912907D01*
X88044945Y-48922478D01*
X88070000Y-48940681D01*
X88143517Y-49014198D01*
X88197285Y-49040483D01*
X88248604Y-49065572D01*
X88248605Y-49065572D01*
X88248607Y-49065573D01*
X88316740Y-49075500D01*
X88316743Y-49075500D01*
X88683257Y-49075500D01*
X88683260Y-49075500D01*
X88751393Y-49065573D01*
X88856483Y-49014198D01*
X88939198Y-48931483D01*
X88990573Y-48826393D01*
X89000500Y-48758260D01*
X89000500Y-47441740D01*
X88990573Y-47373607D01*
X88987358Y-47367031D01*
X88941968Y-47274184D01*
X88939198Y-47268517D01*
X88903183Y-47232502D01*
X88875408Y-47177988D01*
X88884979Y-47117556D01*
X88903185Y-47092497D01*
X89316186Y-46679496D01*
X89370703Y-46651719D01*
X89386190Y-46650500D01*
X92802105Y-46650500D01*
X92860296Y-46669407D01*
G37*
%TD.AperFunction*%
%TA.AperFunction,Conductor*%
G36*
X97572001Y-46669407D02*
G01*
X97583814Y-46679496D01*
X98470503Y-47566185D01*
X98498280Y-47620702D01*
X98499499Y-47636189D01*
X98499500Y-51763810D01*
X98480593Y-51822001D01*
X98470509Y-51833808D01*
X98433813Y-51870504D01*
X98379299Y-51898281D01*
X98363811Y-51899500D01*
X96436190Y-51899500D01*
X96377999Y-51880593D01*
X96366186Y-51870504D01*
X95470186Y-50974504D01*
X95442409Y-50919987D01*
X95451980Y-50859555D01*
X95495245Y-50816290D01*
X95540190Y-50805500D01*
X96800996Y-50805500D01*
X96801000Y-50805500D01*
X96833144Y-50802970D01*
X96853028Y-50799821D01*
X96863738Y-50798125D01*
X96864874Y-50797931D01*
X96868287Y-50797352D01*
X96952383Y-50761408D01*
X97001883Y-50725444D01*
X97029628Y-50701203D01*
X97076536Y-50622693D01*
X97095443Y-50564502D01*
X97104513Y-50507233D01*
X97105500Y-50501003D01*
X97105500Y-49542683D01*
X97105238Y-49535349D01*
X97103707Y-49513948D01*
X97103572Y-49512700D01*
X97103345Y-49510583D01*
X97103345Y-49489413D01*
X97103706Y-49486056D01*
X97105238Y-49464649D01*
X97105500Y-49457314D01*
X97105500Y-49208109D01*
X97105647Y-49206053D01*
X97105647Y-49193960D01*
X97105500Y-49191903D01*
X97105500Y-47008109D01*
X97105647Y-47006053D01*
X97105647Y-46993960D01*
X97105500Y-46991903D01*
X97105500Y-46799004D01*
X97105499Y-46798994D01*
X97102970Y-46766856D01*
X97102672Y-46764980D01*
X97112249Y-46704549D01*
X97155516Y-46661287D01*
X97200455Y-46650500D01*
X97513810Y-46650500D01*
X97572001Y-46669407D01*
G37*
%TD.AperFunction*%
%TD*%
M02*
