%TF.GenerationSoftware,KiCad,Pcbnew,7.0.6*%
%TF.CreationDate,2023-07-17T12:40:32+01:00*%
%TF.ProjectId,Galia,47616c69-612e-46b6-9963-61645f706362,V1.0*%
%TF.SameCoordinates,Original*%
%TF.FileFunction,Legend,Top*%
%TF.FilePolarity,Positive*%
%FSLAX46Y46*%
G04 Gerber Fmt 4.6, Leading zero omitted, Abs format (unit mm)*
G04 Created by KiCad (PCBNEW 7.0.6) date 2023-07-17 12:40:32*
%MOMM*%
%LPD*%
G01*
G04 APERTURE LIST*
G04 Aperture macros list*
%AMRoundRect*
0 Rectangle with rounded corners*
0 $1 Rounding radius*
0 $2 $3 $4 $5 $6 $7 $8 $9 X,Y pos of 4 corners*
0 Add a 4 corners polygon primitive as box body*
4,1,4,$2,$3,$4,$5,$6,$7,$8,$9,$2,$3,0*
0 Add four circle primitives for the rounded corners*
1,1,$1+$1,$2,$3*
1,1,$1+$1,$4,$5*
1,1,$1+$1,$6,$7*
1,1,$1+$1,$8,$9*
0 Add four rect primitives between the rounded corners*
20,1,$1+$1,$2,$3,$4,$5,0*
20,1,$1+$1,$4,$5,$6,$7,0*
20,1,$1+$1,$6,$7,$8,$9,0*
20,1,$1+$1,$8,$9,$2,$3,0*%
G04 Aperture macros list end*
%ADD10C,0.150000*%
%ADD11C,0.120000*%
%ADD12C,0.100000*%
%ADD13C,0.200000*%
%ADD14RoundRect,0.150000X0.150000X0.200000X-0.150000X0.200000X-0.150000X-0.200000X0.150000X-0.200000X0*%
%ADD15RoundRect,0.150000X0.150000X0.625000X-0.150000X0.625000X-0.150000X-0.625000X0.150000X-0.625000X0*%
%ADD16RoundRect,0.250000X0.350000X0.650000X-0.350000X0.650000X-0.350000X-0.650000X0.350000X-0.650000X0*%
%ADD17R,0.300000X0.500000*%
%ADD18R,0.500000X0.300000*%
%ADD19O,2.200000X1.100000*%
%ADD20R,0.300000X0.870000*%
%ADD21C,0.520000*%
%ADD22C,5.600000*%
%ADD23R,1.550000X1.300000*%
G04 APERTURE END LIST*
D10*
X98561905Y-50654819D02*
X98561905Y-49654819D01*
X98561905Y-49654819D02*
X98800000Y-49654819D01*
X98800000Y-49654819D02*
X98942857Y-49702438D01*
X98942857Y-49702438D02*
X99038095Y-49797676D01*
X99038095Y-49797676D02*
X99085714Y-49892914D01*
X99085714Y-49892914D02*
X99133333Y-50083390D01*
X99133333Y-50083390D02*
X99133333Y-50226247D01*
X99133333Y-50226247D02*
X99085714Y-50416723D01*
X99085714Y-50416723D02*
X99038095Y-50511961D01*
X99038095Y-50511961D02*
X98942857Y-50607200D01*
X98942857Y-50607200D02*
X98800000Y-50654819D01*
X98800000Y-50654819D02*
X98561905Y-50654819D01*
X100085714Y-50654819D02*
X99514286Y-50654819D01*
X99800000Y-50654819D02*
X99800000Y-49654819D01*
X99800000Y-49654819D02*
X99704762Y-49797676D01*
X99704762Y-49797676D02*
X99609524Y-49892914D01*
X99609524Y-49892914D02*
X99514286Y-49940533D01*
X89666666Y-49534819D02*
X89666666Y-50249104D01*
X89666666Y-50249104D02*
X89619047Y-50391961D01*
X89619047Y-50391961D02*
X89523809Y-50487200D01*
X89523809Y-50487200D02*
X89380952Y-50534819D01*
X89380952Y-50534819D02*
X89285714Y-50534819D01*
X90047619Y-49534819D02*
X90666666Y-49534819D01*
X90666666Y-49534819D02*
X90333333Y-49915771D01*
X90333333Y-49915771D02*
X90476190Y-49915771D01*
X90476190Y-49915771D02*
X90571428Y-49963390D01*
X90571428Y-49963390D02*
X90619047Y-50011009D01*
X90619047Y-50011009D02*
X90666666Y-50106247D01*
X90666666Y-50106247D02*
X90666666Y-50344342D01*
X90666666Y-50344342D02*
X90619047Y-50439580D01*
X90619047Y-50439580D02*
X90571428Y-50487200D01*
X90571428Y-50487200D02*
X90476190Y-50534819D01*
X90476190Y-50534819D02*
X90190476Y-50534819D01*
X90190476Y-50534819D02*
X90095238Y-50487200D01*
X90095238Y-50487200D02*
X90047619Y-50439580D01*
X79611905Y-56754819D02*
X79611905Y-55754819D01*
X79611905Y-55754819D02*
X79850000Y-55754819D01*
X79850000Y-55754819D02*
X79992857Y-55802438D01*
X79992857Y-55802438D02*
X80088095Y-55897676D01*
X80088095Y-55897676D02*
X80135714Y-55992914D01*
X80135714Y-55992914D02*
X80183333Y-56183390D01*
X80183333Y-56183390D02*
X80183333Y-56326247D01*
X80183333Y-56326247D02*
X80135714Y-56516723D01*
X80135714Y-56516723D02*
X80088095Y-56611961D01*
X80088095Y-56611961D02*
X79992857Y-56707200D01*
X79992857Y-56707200D02*
X79850000Y-56754819D01*
X79850000Y-56754819D02*
X79611905Y-56754819D01*
X81088095Y-55754819D02*
X80611905Y-55754819D01*
X80611905Y-55754819D02*
X80564286Y-56231009D01*
X80564286Y-56231009D02*
X80611905Y-56183390D01*
X80611905Y-56183390D02*
X80707143Y-56135771D01*
X80707143Y-56135771D02*
X80945238Y-56135771D01*
X80945238Y-56135771D02*
X81040476Y-56183390D01*
X81040476Y-56183390D02*
X81088095Y-56231009D01*
X81088095Y-56231009D02*
X81135714Y-56326247D01*
X81135714Y-56326247D02*
X81135714Y-56564342D01*
X81135714Y-56564342D02*
X81088095Y-56659580D01*
X81088095Y-56659580D02*
X81040476Y-56707200D01*
X81040476Y-56707200D02*
X80945238Y-56754819D01*
X80945238Y-56754819D02*
X80707143Y-56754819D01*
X80707143Y-56754819D02*
X80611905Y-56707200D01*
X80611905Y-56707200D02*
X80564286Y-56659580D01*
X81711905Y-56754819D02*
X81711905Y-55754819D01*
X81711905Y-55754819D02*
X81950000Y-55754819D01*
X81950000Y-55754819D02*
X82092857Y-55802438D01*
X82092857Y-55802438D02*
X82188095Y-55897676D01*
X82188095Y-55897676D02*
X82235714Y-55992914D01*
X82235714Y-55992914D02*
X82283333Y-56183390D01*
X82283333Y-56183390D02*
X82283333Y-56326247D01*
X82283333Y-56326247D02*
X82235714Y-56516723D01*
X82235714Y-56516723D02*
X82188095Y-56611961D01*
X82188095Y-56611961D02*
X82092857Y-56707200D01*
X82092857Y-56707200D02*
X81950000Y-56754819D01*
X81950000Y-56754819D02*
X81711905Y-56754819D01*
X83140476Y-56088152D02*
X83140476Y-56754819D01*
X82902381Y-55707200D02*
X82664286Y-56421485D01*
X82664286Y-56421485D02*
X83283333Y-56421485D01*
X96761905Y-56454819D02*
X96761905Y-55454819D01*
X96761905Y-55454819D02*
X97000000Y-55454819D01*
X97000000Y-55454819D02*
X97142857Y-55502438D01*
X97142857Y-55502438D02*
X97238095Y-55597676D01*
X97238095Y-55597676D02*
X97285714Y-55692914D01*
X97285714Y-55692914D02*
X97333333Y-55883390D01*
X97333333Y-55883390D02*
X97333333Y-56026247D01*
X97333333Y-56026247D02*
X97285714Y-56216723D01*
X97285714Y-56216723D02*
X97238095Y-56311961D01*
X97238095Y-56311961D02*
X97142857Y-56407200D01*
X97142857Y-56407200D02*
X97000000Y-56454819D01*
X97000000Y-56454819D02*
X96761905Y-56454819D01*
X97666667Y-55454819D02*
X98285714Y-55454819D01*
X98285714Y-55454819D02*
X97952381Y-55835771D01*
X97952381Y-55835771D02*
X98095238Y-55835771D01*
X98095238Y-55835771D02*
X98190476Y-55883390D01*
X98190476Y-55883390D02*
X98238095Y-55931009D01*
X98238095Y-55931009D02*
X98285714Y-56026247D01*
X98285714Y-56026247D02*
X98285714Y-56264342D01*
X98285714Y-56264342D02*
X98238095Y-56359580D01*
X98238095Y-56359580D02*
X98190476Y-56407200D01*
X98190476Y-56407200D02*
X98095238Y-56454819D01*
X98095238Y-56454819D02*
X97809524Y-56454819D01*
X97809524Y-56454819D02*
X97714286Y-56407200D01*
X97714286Y-56407200D02*
X97666667Y-56359580D01*
X98761905Y-53054819D02*
X98761905Y-52054819D01*
X98761905Y-52054819D02*
X99000000Y-52054819D01*
X99000000Y-52054819D02*
X99142857Y-52102438D01*
X99142857Y-52102438D02*
X99238095Y-52197676D01*
X99238095Y-52197676D02*
X99285714Y-52292914D01*
X99285714Y-52292914D02*
X99333333Y-52483390D01*
X99333333Y-52483390D02*
X99333333Y-52626247D01*
X99333333Y-52626247D02*
X99285714Y-52816723D01*
X99285714Y-52816723D02*
X99238095Y-52911961D01*
X99238095Y-52911961D02*
X99142857Y-53007200D01*
X99142857Y-53007200D02*
X99000000Y-53054819D01*
X99000000Y-53054819D02*
X98761905Y-53054819D01*
X99714286Y-52150057D02*
X99761905Y-52102438D01*
X99761905Y-52102438D02*
X99857143Y-52054819D01*
X99857143Y-52054819D02*
X100095238Y-52054819D01*
X100095238Y-52054819D02*
X100190476Y-52102438D01*
X100190476Y-52102438D02*
X100238095Y-52150057D01*
X100238095Y-52150057D02*
X100285714Y-52245295D01*
X100285714Y-52245295D02*
X100285714Y-52340533D01*
X100285714Y-52340533D02*
X100238095Y-52483390D01*
X100238095Y-52483390D02*
X99666667Y-53054819D01*
X99666667Y-53054819D02*
X100285714Y-53054819D01*
X89666666Y-55254819D02*
X89666666Y-55969104D01*
X89666666Y-55969104D02*
X89619047Y-56111961D01*
X89619047Y-56111961D02*
X89523809Y-56207200D01*
X89523809Y-56207200D02*
X89380952Y-56254819D01*
X89380952Y-56254819D02*
X89285714Y-56254819D01*
X90666666Y-56254819D02*
X90095238Y-56254819D01*
X90380952Y-56254819D02*
X90380952Y-55254819D01*
X90380952Y-55254819D02*
X90285714Y-55397676D01*
X90285714Y-55397676D02*
X90190476Y-55492914D01*
X90190476Y-55492914D02*
X90095238Y-55540533D01*
X72666667Y-49207200D02*
X72809524Y-49254819D01*
X72809524Y-49254819D02*
X73047619Y-49254819D01*
X73047619Y-49254819D02*
X73142857Y-49207200D01*
X73142857Y-49207200D02*
X73190476Y-49159580D01*
X73190476Y-49159580D02*
X73238095Y-49064342D01*
X73238095Y-49064342D02*
X73238095Y-48969104D01*
X73238095Y-48969104D02*
X73190476Y-48873866D01*
X73190476Y-48873866D02*
X73142857Y-48826247D01*
X73142857Y-48826247D02*
X73047619Y-48778628D01*
X73047619Y-48778628D02*
X72857143Y-48731009D01*
X72857143Y-48731009D02*
X72761905Y-48683390D01*
X72761905Y-48683390D02*
X72714286Y-48635771D01*
X72714286Y-48635771D02*
X72666667Y-48540533D01*
X72666667Y-48540533D02*
X72666667Y-48445295D01*
X72666667Y-48445295D02*
X72714286Y-48350057D01*
X72714286Y-48350057D02*
X72761905Y-48302438D01*
X72761905Y-48302438D02*
X72857143Y-48254819D01*
X72857143Y-48254819D02*
X73095238Y-48254819D01*
X73095238Y-48254819D02*
X73238095Y-48302438D01*
X73571429Y-48254819D02*
X73809524Y-49254819D01*
X73809524Y-49254819D02*
X74000000Y-48540533D01*
X74000000Y-48540533D02*
X74190476Y-49254819D01*
X74190476Y-49254819D02*
X74428572Y-48254819D01*
X74761905Y-48350057D02*
X74809524Y-48302438D01*
X74809524Y-48302438D02*
X74904762Y-48254819D01*
X74904762Y-48254819D02*
X75142857Y-48254819D01*
X75142857Y-48254819D02*
X75238095Y-48302438D01*
X75238095Y-48302438D02*
X75285714Y-48350057D01*
X75285714Y-48350057D02*
X75333333Y-48445295D01*
X75333333Y-48445295D02*
X75333333Y-48540533D01*
X75333333Y-48540533D02*
X75285714Y-48683390D01*
X75285714Y-48683390D02*
X74714286Y-49254819D01*
X74714286Y-49254819D02*
X75333333Y-49254819D01*
X104666667Y-49207200D02*
X104809524Y-49254819D01*
X104809524Y-49254819D02*
X105047619Y-49254819D01*
X105047619Y-49254819D02*
X105142857Y-49207200D01*
X105142857Y-49207200D02*
X105190476Y-49159580D01*
X105190476Y-49159580D02*
X105238095Y-49064342D01*
X105238095Y-49064342D02*
X105238095Y-48969104D01*
X105238095Y-48969104D02*
X105190476Y-48873866D01*
X105190476Y-48873866D02*
X105142857Y-48826247D01*
X105142857Y-48826247D02*
X105047619Y-48778628D01*
X105047619Y-48778628D02*
X104857143Y-48731009D01*
X104857143Y-48731009D02*
X104761905Y-48683390D01*
X104761905Y-48683390D02*
X104714286Y-48635771D01*
X104714286Y-48635771D02*
X104666667Y-48540533D01*
X104666667Y-48540533D02*
X104666667Y-48445295D01*
X104666667Y-48445295D02*
X104714286Y-48350057D01*
X104714286Y-48350057D02*
X104761905Y-48302438D01*
X104761905Y-48302438D02*
X104857143Y-48254819D01*
X104857143Y-48254819D02*
X105095238Y-48254819D01*
X105095238Y-48254819D02*
X105238095Y-48302438D01*
X105571429Y-48254819D02*
X105809524Y-49254819D01*
X105809524Y-49254819D02*
X106000000Y-48540533D01*
X106000000Y-48540533D02*
X106190476Y-49254819D01*
X106190476Y-49254819D02*
X106428572Y-48254819D01*
X107333333Y-49254819D02*
X106761905Y-49254819D01*
X107047619Y-49254819D02*
X107047619Y-48254819D01*
X107047619Y-48254819D02*
X106952381Y-48397676D01*
X106952381Y-48397676D02*
X106857143Y-48492914D01*
X106857143Y-48492914D02*
X106761905Y-48540533D01*
D11*
%TO.C,D1*%
X97800000Y-49600000D02*
X95840000Y-49600000D01*
X95840000Y-49600000D02*
X95840000Y-50800000D01*
X97800000Y-50800000D02*
X95840000Y-50800000D01*
%TO.C,J3*%
X98110000Y-47885000D02*
X97060000Y-47885000D01*
X98110000Y-45385000D02*
X98110000Y-47885000D01*
X97060000Y-47885000D02*
X97060000Y-48875000D01*
X96940000Y-43415000D02*
X83060000Y-43415000D01*
X81890000Y-47885000D02*
X82940000Y-47885000D01*
X81890000Y-45385000D02*
X81890000Y-47885000D01*
D12*
%TO.C,D5*%
X81450000Y-55000000D02*
G75*
G03*
X81450000Y-55000000I-50000J0D01*
G01*
%TO.C,D4*%
X81450000Y-55000000D02*
G75*
G03*
X81450000Y-55000000I-50000J0D01*
G01*
%TO.C,D3*%
X95750000Y-56800000D02*
G75*
G03*
X95750000Y-56800000I-50000J0D01*
G01*
%TO.C,D2*%
X98150000Y-51800000D02*
G75*
G03*
X98150000Y-51800000I-50000J0D01*
G01*
D13*
%TO.C,J1*%
X95100000Y-53900000D02*
G75*
G03*
X95100000Y-53900000I-100000J0D01*
G01*
D11*
X85530000Y-51420000D02*
X86250000Y-51420000D01*
X85530000Y-54580000D02*
X85530000Y-51420000D01*
X86250000Y-54580000D02*
X85530000Y-54580000D01*
X93750000Y-54580000D02*
X94470000Y-54580000D01*
X94470000Y-51420000D02*
X93750000Y-51420000D01*
X94470000Y-54580000D02*
X94470000Y-51420000D01*
%TO.C,SW2*%
X77230000Y-56230000D02*
X70770000Y-56230000D01*
X77230000Y-56200000D02*
X77230000Y-56230000D01*
X77230000Y-54300000D02*
X77230000Y-51700000D01*
X77230000Y-49770000D02*
X77230000Y-49800000D01*
X77230000Y-49770000D02*
X70770000Y-49770000D01*
X70770000Y-56230000D02*
X70770000Y-56200000D01*
X70770000Y-54300000D02*
X70770000Y-51700000D01*
X70770000Y-49770000D02*
X70770000Y-49800000D01*
%TO.C,SW1*%
X102770000Y-49770000D02*
X102770000Y-49800000D01*
X102770000Y-54300000D02*
X102770000Y-51700000D01*
X102770000Y-56230000D02*
X102770000Y-56200000D01*
X109230000Y-49770000D02*
X102770000Y-49770000D01*
X109230000Y-49770000D02*
X109230000Y-49800000D01*
X109230000Y-54300000D02*
X109230000Y-51700000D01*
X109230000Y-56200000D02*
X109230000Y-56230000D01*
X109230000Y-56230000D02*
X102770000Y-56230000D01*
%TD*%
%LPC*%
D14*
%TO.C,D1*%
X96400000Y-50200000D03*
X97800000Y-50200000D03*
%TD*%
D15*
%TO.C,J3*%
X96500000Y-48100000D03*
X95500000Y-48100000D03*
X94500000Y-48100000D03*
X93500000Y-48100000D03*
X92500000Y-48100000D03*
X91500000Y-48100000D03*
X90500000Y-48100000D03*
X89500000Y-48100000D03*
X88500000Y-48100000D03*
X87500000Y-48100000D03*
X86500000Y-48100000D03*
X85500000Y-48100000D03*
X84500000Y-48100000D03*
X83500000Y-48100000D03*
D16*
X97800000Y-44225000D03*
X82200000Y-44225000D03*
%TD*%
D17*
%TO.C,D5*%
X80950000Y-55000000D03*
X80250000Y-55000000D03*
%TD*%
%TO.C,D4*%
X82550000Y-55000000D03*
X81850000Y-55000000D03*
%TD*%
D18*
%TO.C,D3*%
X95700000Y-55650000D03*
X95700000Y-56350000D03*
%TD*%
%TO.C,D2*%
X98100000Y-52950000D03*
X98100000Y-52250000D03*
%TD*%
D19*
%TO.C,J1*%
X87600000Y-50850000D03*
X87600000Y-55150000D03*
X92400000Y-50850000D03*
X92400000Y-55150000D03*
D20*
X92750000Y-52135000D03*
X91250000Y-52135000D03*
X90750000Y-52135000D03*
X90250000Y-52135000D03*
X89750000Y-52135000D03*
X89250000Y-52135000D03*
X88750000Y-52135000D03*
X87250000Y-52135000D03*
X87250000Y-53865000D03*
X88750000Y-53865000D03*
X89250000Y-53865000D03*
X89750000Y-53865000D03*
X90250000Y-53865000D03*
X90750000Y-53865000D03*
X91250000Y-53865000D03*
X92750000Y-53865000D03*
D21*
X86250000Y-53000000D03*
X93750000Y-53000000D03*
%TD*%
D22*
%TO.C,H1*%
X65800000Y-53000000D03*
%TD*%
%TO.C,H2*%
X114200000Y-53000000D03*
%TD*%
D23*
%TO.C,SW2*%
X77980000Y-55250000D03*
X70020000Y-55250000D03*
X77980000Y-50750000D03*
X70020000Y-50750000D03*
%TD*%
%TO.C,SW1*%
X102020000Y-50750000D03*
X109980000Y-50750000D03*
X102020000Y-55250000D03*
X109980000Y-55250000D03*
%TD*%
%LPD*%
M02*
