%TF.GenerationSoftware,KiCad,Pcbnew,7.0.6*%
%TF.CreationDate,2023-07-17T12:40:32+01:00*%
%TF.ProjectId,Galia,47616c69-612e-46b6-9963-61645f706362,V1.0*%
%TF.SameCoordinates,Original*%
%TF.FileFunction,Copper,L2,Bot*%
%TF.FilePolarity,Positive*%
%FSLAX46Y46*%
G04 Gerber Fmt 4.6, Leading zero omitted, Abs format (unit mm)*
G04 Created by KiCad (PCBNEW 7.0.6) date 2023-07-17 12:40:32*
%MOMM*%
%LPD*%
G01*
G04 APERTURE LIST*
%TA.AperFunction,ComponentPad*%
%ADD10O,2.200000X1.100000*%
%TD*%
%TA.AperFunction,ComponentPad*%
%ADD11C,5.600000*%
%TD*%
%TA.AperFunction,ViaPad*%
%ADD12C,0.600000*%
%TD*%
%TA.AperFunction,ViaPad*%
%ADD13C,0.500000*%
%TD*%
%TA.AperFunction,Conductor*%
%ADD14C,0.300000*%
%TD*%
G04 APERTURE END LIST*
D10*
%TO.P,J1,S1,SHIELD*%
%TO.N,GND*%
X87600000Y-50850000D03*
X87600000Y-55150000D03*
X92400000Y-50850000D03*
X92400000Y-55150000D03*
%TD*%
D11*
%TO.P,H1,1*%
%TO.N,N/C*%
X65800000Y-53000000D03*
%TD*%
%TO.P,H2,1,1*%
%TO.N,GND*%
X114200000Y-53000000D03*
%TD*%
D12*
%TO.N,GND*%
X98200000Y-49500000D03*
X98200000Y-50900000D03*
X97400000Y-49500000D03*
X97400000Y-50900000D03*
D13*
%TO.N,/~{RST}*%
X96500000Y-44700000D03*
X99100000Y-44700000D03*
D12*
%TO.N,GND*%
X98700000Y-52950000D03*
X97500000Y-52950000D03*
X96300000Y-55650000D03*
X95100000Y-55650000D03*
X80250000Y-54400000D03*
X80250000Y-55600000D03*
X82550000Y-54400000D03*
X82550000Y-55650000D03*
D13*
%TO.N,/D-*%
X89509020Y-54736081D03*
X90000000Y-51100000D03*
D12*
%TO.N,VBUS*%
X93400000Y-47000000D03*
X94200000Y-47000000D03*
X95000000Y-47000000D03*
X95800000Y-47000000D03*
X96600000Y-47000000D03*
X96600000Y-49200000D03*
X91800000Y-53000000D03*
X88200000Y-52200000D03*
X88200000Y-53000000D03*
X88200000Y-53800000D03*
X91800000Y-53800000D03*
X95800000Y-49200000D03*
X91800000Y-52200000D03*
X94200000Y-49200000D03*
X95000000Y-49200000D03*
X93400000Y-49200000D03*
%TO.N,GND*%
X102000000Y-54200000D03*
X110000000Y-54200000D03*
X70000000Y-54200000D03*
X78000000Y-54200000D03*
%TD*%
D14*
%TO.N,/~{RST}*%
X96500000Y-44700000D02*
X99100000Y-44700000D01*
%TO.N,/D-*%
X89509020Y-51590980D02*
X89509020Y-54736081D01*
X90000000Y-51100000D02*
X89509020Y-51590980D01*
%TD*%
%TA.AperFunction,Conductor*%
%TO.N,GND*%
G36*
X106201618Y-43100606D02*
G01*
X106431644Y-43115682D01*
X106438065Y-43116528D01*
X106662562Y-43161184D01*
X106668816Y-43162859D01*
X106779216Y-43200335D01*
X106885565Y-43236436D01*
X106891553Y-43238916D01*
X107096835Y-43340150D01*
X107102449Y-43343391D01*
X107292768Y-43470558D01*
X107297907Y-43474501D01*
X107469995Y-43625419D01*
X107469997Y-43625420D01*
X107474580Y-43630003D01*
X107625496Y-43802089D01*
X107629442Y-43807232D01*
X107756611Y-43997554D01*
X107759852Y-44003168D01*
X107861082Y-44208442D01*
X107863562Y-44214430D01*
X107937139Y-44431177D01*
X107938816Y-44437438D01*
X107983471Y-44661934D01*
X107984317Y-44668360D01*
X107998019Y-44877410D01*
X107999395Y-44898392D01*
X107999501Y-44901631D01*
X107999501Y-47558992D01*
X107999500Y-47558995D01*
X107999500Y-47733100D01*
X107999501Y-47733117D01*
X108031586Y-47997365D01*
X108031588Y-47997380D01*
X108095295Y-48255846D01*
X108095296Y-48255849D01*
X108095297Y-48255852D01*
X108189697Y-48504764D01*
X108189699Y-48504767D01*
X108313414Y-48740487D01*
X108313415Y-48740488D01*
X108464626Y-48959556D01*
X108464631Y-48959562D01*
X108464637Y-48959571D01*
X108641168Y-49158833D01*
X108840430Y-49335364D01*
X108840440Y-49335371D01*
X108840444Y-49335374D01*
X109059512Y-49486585D01*
X109059513Y-49486586D01*
X109059515Y-49486587D01*
X109059518Y-49486589D01*
X109166398Y-49542684D01*
X109295239Y-49610305D01*
X109343658Y-49628667D01*
X109544149Y-49704703D01*
X109579479Y-49713411D01*
X109802620Y-49768411D01*
X109802622Y-49768411D01*
X109802625Y-49768412D01*
X110066895Y-49800500D01*
X110177410Y-49800500D01*
X115460118Y-49800500D01*
X115498379Y-49800500D01*
X115501617Y-49800606D01*
X115731645Y-49815682D01*
X115738063Y-49816527D01*
X115801890Y-49829223D01*
X115962561Y-49861183D01*
X115968814Y-49862858D01*
X116140488Y-49921134D01*
X116185569Y-49936437D01*
X116191544Y-49938911D01*
X116396838Y-50040151D01*
X116402447Y-50043389D01*
X116592766Y-50170557D01*
X116597908Y-50174503D01*
X116672848Y-50240223D01*
X116770000Y-50325422D01*
X116774580Y-50330002D01*
X116925496Y-50502091D01*
X116929442Y-50507233D01*
X117056610Y-50697552D01*
X117059851Y-50703166D01*
X117160196Y-50906647D01*
X117161082Y-50908442D01*
X117163562Y-50914430D01*
X117237139Y-51131177D01*
X117238816Y-51137438D01*
X117283471Y-51361934D01*
X117284317Y-51368360D01*
X117299394Y-51598381D01*
X117299500Y-51601620D01*
X117299500Y-55398379D01*
X117299394Y-55401618D01*
X117284317Y-55631639D01*
X117283471Y-55638065D01*
X117238816Y-55862561D01*
X117237139Y-55868822D01*
X117163562Y-56085569D01*
X117161082Y-56091557D01*
X117059851Y-56296833D01*
X117056610Y-56302447D01*
X116929442Y-56492766D01*
X116925496Y-56497908D01*
X116774580Y-56669997D01*
X116769997Y-56674580D01*
X116597908Y-56825496D01*
X116592766Y-56829442D01*
X116402447Y-56956610D01*
X116396833Y-56959851D01*
X116191557Y-57061082D01*
X116185569Y-57063562D01*
X115968822Y-57137139D01*
X115962561Y-57138816D01*
X115738065Y-57183471D01*
X115731639Y-57184317D01*
X115520336Y-57198167D01*
X115501631Y-57199393D01*
X115498394Y-57199499D01*
X64501621Y-57199499D01*
X64498383Y-57199393D01*
X64268360Y-57184316D01*
X64261934Y-57183470D01*
X64037438Y-57138815D01*
X64031177Y-57137138D01*
X63814430Y-57063561D01*
X63808448Y-57061083D01*
X63603166Y-56959850D01*
X63597552Y-56956609D01*
X63407233Y-56829441D01*
X63402091Y-56825495D01*
X63230003Y-56674579D01*
X63225420Y-56669996D01*
X63074495Y-56497899D01*
X63070558Y-56492767D01*
X63070557Y-56492766D01*
X62943391Y-56302447D01*
X62940150Y-56296834D01*
X62940150Y-56296833D01*
X62838908Y-56091536D01*
X62836436Y-56085567D01*
X62762857Y-55868810D01*
X62761186Y-55862573D01*
X62716528Y-55638062D01*
X62715683Y-55631644D01*
X62700605Y-55401596D01*
X62700500Y-55398367D01*
X62700500Y-55360117D01*
X62700500Y-54607855D01*
X62700500Y-53784689D01*
X62719406Y-53726502D01*
X62768906Y-53690538D01*
X62830092Y-53690538D01*
X62879592Y-53726502D01*
X62894340Y-53756299D01*
X62975673Y-54027970D01*
X62975674Y-54027972D01*
X63079335Y-54268284D01*
X63114111Y-54348904D01*
X63288870Y-54651596D01*
X63497588Y-54931953D01*
X63737442Y-55186183D01*
X64005189Y-55410849D01*
X64297207Y-55602913D01*
X64609549Y-55759777D01*
X64937989Y-55879319D01*
X64937992Y-55879319D01*
X64937993Y-55879320D01*
X65278075Y-55959921D01*
X65278080Y-55959921D01*
X65278086Y-55959923D01*
X65625241Y-56000500D01*
X65625244Y-56000500D01*
X65974756Y-56000500D01*
X65974759Y-56000500D01*
X66321914Y-55959923D01*
X66321920Y-55959921D01*
X66321924Y-55959921D01*
X66548645Y-55906187D01*
X66662011Y-55879319D01*
X66990451Y-55759777D01*
X67302793Y-55602913D01*
X67594811Y-55410849D01*
X67862558Y-55186183D01*
X68102412Y-54931953D01*
X68248232Y-54736083D01*
X89053887Y-54736083D01*
X89072322Y-54864306D01*
X89126137Y-54982142D01*
X89126138Y-54982144D01*
X89210971Y-55080048D01*
X89210972Y-55080049D01*
X89319946Y-55150082D01*
X89319951Y-55150085D01*
X89444248Y-55186581D01*
X89444250Y-55186581D01*
X89573790Y-55186581D01*
X89573792Y-55186581D01*
X89698089Y-55150085D01*
X89807069Y-55080048D01*
X89891902Y-54982144D01*
X89945717Y-54864307D01*
X89964153Y-54736081D01*
X89945717Y-54607855D01*
X89891902Y-54490018D01*
X89883699Y-54480551D01*
X89859882Y-54424193D01*
X89859519Y-54415744D01*
X89859519Y-51777168D01*
X89878426Y-51718978D01*
X89888508Y-51707172D01*
X90019174Y-51576507D01*
X90061283Y-51551524D01*
X90064770Y-51550500D01*
X90064772Y-51550500D01*
X90189069Y-51514004D01*
X90298049Y-51443967D01*
X90382882Y-51346063D01*
X90436697Y-51228226D01*
X90450208Y-51134255D01*
X90455133Y-51100002D01*
X90455133Y-51099997D01*
X90436697Y-50971774D01*
X90423411Y-50942683D01*
X90382882Y-50853937D01*
X90298049Y-50756033D01*
X90298048Y-50756032D01*
X90298047Y-50756031D01*
X90189073Y-50685998D01*
X90189070Y-50685996D01*
X90189069Y-50685996D01*
X90189066Y-50685995D01*
X90064774Y-50649500D01*
X90064772Y-50649500D01*
X89935228Y-50649500D01*
X89935225Y-50649500D01*
X89810933Y-50685995D01*
X89810926Y-50685998D01*
X89701952Y-50756031D01*
X89617117Y-50853938D01*
X89563304Y-50971770D01*
X89563303Y-50971772D01*
X89556364Y-51020028D01*
X89529366Y-51074935D01*
X89528376Y-51075940D01*
X89294138Y-51310178D01*
X89278285Y-51323051D01*
X89268355Y-51329539D01*
X89268352Y-51329541D01*
X89247684Y-51356094D01*
X89243625Y-51360692D01*
X89240639Y-51363678D01*
X89227975Y-51381417D01*
X89196503Y-51421854D01*
X89193001Y-51428323D01*
X89189778Y-51434916D01*
X89175158Y-51484025D01*
X89158519Y-51532492D01*
X89157313Y-51539723D01*
X89156403Y-51547027D01*
X89158520Y-51598211D01*
X89158520Y-54415721D01*
X89139613Y-54473912D01*
X89134341Y-54480550D01*
X89126138Y-54490016D01*
X89126137Y-54490017D01*
X89072322Y-54607855D01*
X89053887Y-54736078D01*
X89053887Y-54736083D01*
X68248232Y-54736083D01*
X68311130Y-54651596D01*
X68485889Y-54348904D01*
X68549689Y-54201000D01*
X82894500Y-54201000D01*
X82897030Y-54233142D01*
X82897030Y-54233143D01*
X82901875Y-54263738D01*
X82902647Y-54268284D01*
X82902647Y-54268286D01*
X82938591Y-54352382D01*
X82938592Y-54352383D01*
X82974556Y-54401883D01*
X82998797Y-54429628D01*
X83077307Y-54476536D01*
X83135498Y-54495443D01*
X83147552Y-54497352D01*
X83198996Y-54505500D01*
X83199000Y-54505500D01*
X88500996Y-54505500D01*
X88501000Y-54505500D01*
X88533144Y-54502970D01*
X88548440Y-54500547D01*
X88563738Y-54498125D01*
X88564874Y-54497931D01*
X88568287Y-54497352D01*
X88652383Y-54461408D01*
X88701883Y-54425444D01*
X88729628Y-54401203D01*
X88776536Y-54322693D01*
X88795443Y-54264502D01*
X88805500Y-54201000D01*
X88805500Y-51799000D01*
X88802970Y-51766856D01*
X88798125Y-51736263D01*
X88797995Y-51735498D01*
X88797353Y-51731714D01*
X88797352Y-51731713D01*
X88761408Y-51647617D01*
X88725444Y-51598117D01*
X88701203Y-51570372D01*
X88622693Y-51523464D01*
X88622691Y-51523463D01*
X88622689Y-51523462D01*
X88564499Y-51504556D01*
X88564500Y-51504556D01*
X88501003Y-51494500D01*
X88501000Y-51494500D01*
X86504500Y-51494500D01*
X86446309Y-51475593D01*
X86410345Y-51426093D01*
X86405500Y-51395500D01*
X86405500Y-49804500D01*
X86424407Y-49746309D01*
X86473907Y-49710345D01*
X86504500Y-49705500D01*
X93495499Y-49705500D01*
X93553690Y-49724407D01*
X93589654Y-49773907D01*
X93594499Y-49804500D01*
X93594500Y-51395500D01*
X93575593Y-51453691D01*
X93526093Y-51489655D01*
X93495500Y-51494500D01*
X91499000Y-51494500D01*
X91466856Y-51497030D01*
X91451559Y-51499452D01*
X91436262Y-51501875D01*
X91431715Y-51502647D01*
X91431713Y-51502647D01*
X91347617Y-51538591D01*
X91298118Y-51574555D01*
X91270372Y-51598797D01*
X91223464Y-51677307D01*
X91223462Y-51677310D01*
X91204556Y-51735499D01*
X91194500Y-51798996D01*
X91194500Y-51798999D01*
X91194500Y-51799000D01*
X91194500Y-53043854D01*
X91194500Y-54201000D01*
X91197030Y-54233142D01*
X91197030Y-54233143D01*
X91201875Y-54263738D01*
X91202647Y-54268284D01*
X91202647Y-54268286D01*
X91238591Y-54352382D01*
X91238592Y-54352383D01*
X91274556Y-54401883D01*
X91298797Y-54429628D01*
X91377307Y-54476536D01*
X91435498Y-54495443D01*
X91447552Y-54497352D01*
X91498996Y-54505500D01*
X91499000Y-54505500D01*
X96800996Y-54505500D01*
X96801000Y-54505500D01*
X96833144Y-54502970D01*
X96848440Y-54500547D01*
X96863738Y-54498125D01*
X96864874Y-54497931D01*
X96868287Y-54497352D01*
X96952383Y-54461408D01*
X97001883Y-54425444D01*
X97029628Y-54401203D01*
X97076536Y-54322693D01*
X97095443Y-54264502D01*
X97105500Y-54201000D01*
X97105500Y-50942684D01*
X97105238Y-50935350D01*
X97105238Y-50935349D01*
X97103707Y-50913947D01*
X97103572Y-50912699D01*
X97103345Y-50910582D01*
X97103345Y-50889412D01*
X97103706Y-50886055D01*
X97105238Y-50864649D01*
X97105500Y-50857314D01*
X97105500Y-49542684D01*
X97105238Y-49535350D01*
X97105238Y-49535349D01*
X97103707Y-49513948D01*
X97103572Y-49512700D01*
X97103345Y-49510583D01*
X97103345Y-49489413D01*
X97103706Y-49486056D01*
X97105238Y-49464649D01*
X97105500Y-49457314D01*
X97105500Y-49208109D01*
X97105647Y-49206053D01*
X97105647Y-49193960D01*
X97105500Y-49191903D01*
X97105500Y-47008109D01*
X97105647Y-47006053D01*
X97105647Y-46993960D01*
X97105500Y-46991903D01*
X97105500Y-46799004D01*
X97105499Y-46798996D01*
X97102970Y-46766856D01*
X97098125Y-46736263D01*
X97097995Y-46735498D01*
X97097353Y-46731714D01*
X97097352Y-46731713D01*
X97061408Y-46647617D01*
X97061408Y-46647616D01*
X97025444Y-46598117D01*
X97001203Y-46570372D01*
X96922693Y-46523464D01*
X96922691Y-46523463D01*
X96922689Y-46523462D01*
X96864499Y-46504556D01*
X96864500Y-46504556D01*
X96801003Y-46494500D01*
X96801000Y-46494500D01*
X83199000Y-46494500D01*
X83166856Y-46497030D01*
X83151559Y-46499452D01*
X83136262Y-46501875D01*
X83131715Y-46502647D01*
X83131713Y-46502647D01*
X83047617Y-46538591D01*
X82998118Y-46574555D01*
X82970372Y-46598797D01*
X82923464Y-46677307D01*
X82923462Y-46677310D01*
X82904556Y-46735499D01*
X82894500Y-46798996D01*
X82894500Y-46798999D01*
X82894500Y-46799000D01*
X82894500Y-53033572D01*
X82894500Y-54201000D01*
X68549689Y-54201000D01*
X68624326Y-54027971D01*
X68724569Y-53693136D01*
X68785262Y-53348927D01*
X68805585Y-53000000D01*
X68785262Y-52651073D01*
X68724569Y-52306864D01*
X68624326Y-51972029D01*
X68485889Y-51651096D01*
X68311130Y-51348404D01*
X68102412Y-51068047D01*
X67862558Y-50813817D01*
X67594811Y-50589151D01*
X67397713Y-50459517D01*
X67302794Y-50397087D01*
X66990453Y-50240224D01*
X66990452Y-50240223D01*
X66990451Y-50240223D01*
X66662011Y-50120681D01*
X66662012Y-50120681D01*
X66662006Y-50120679D01*
X66321924Y-50040078D01*
X66209089Y-50026889D01*
X65974759Y-49999500D01*
X65625241Y-49999500D01*
X65433950Y-50021858D01*
X65278075Y-50040078D01*
X64937993Y-50120679D01*
X64741191Y-50192309D01*
X64609549Y-50240223D01*
X64609548Y-50240223D01*
X64609546Y-50240224D01*
X64297205Y-50397087D01*
X64005190Y-50589150D01*
X63737443Y-50813815D01*
X63497591Y-51068043D01*
X63288871Y-51348402D01*
X63288869Y-51348405D01*
X63114111Y-51651095D01*
X63114108Y-51651102D01*
X62975674Y-51972027D01*
X62975673Y-51972029D01*
X62894340Y-52243700D01*
X62859537Y-52294023D01*
X62801802Y-52314279D01*
X62743187Y-52296731D01*
X62706082Y-52248081D01*
X62700500Y-52215311D01*
X62700500Y-51601618D01*
X62700606Y-51598381D01*
X62700623Y-51598117D01*
X62715683Y-51368352D01*
X62716528Y-51361934D01*
X62719220Y-51348404D01*
X62761183Y-51137438D01*
X62762856Y-51131188D01*
X62836438Y-50914427D01*
X62838909Y-50908460D01*
X62940154Y-50703154D01*
X62943384Y-50697560D01*
X63070561Y-50507227D01*
X63074503Y-50502091D01*
X63225429Y-50329991D01*
X63229991Y-50325429D01*
X63402094Y-50174499D01*
X63407227Y-50170561D01*
X63597560Y-50043384D01*
X63603154Y-50040154D01*
X63808460Y-49938909D01*
X63814427Y-49936438D01*
X64031188Y-49862856D01*
X64037438Y-49861183D01*
X64101263Y-49848487D01*
X64261938Y-49816527D01*
X64268352Y-49815683D01*
X64498382Y-49800606D01*
X64501621Y-49800500D01*
X69933101Y-49800500D01*
X69933106Y-49800500D01*
X70197376Y-49768412D01*
X70455852Y-49704703D01*
X70704764Y-49610303D01*
X70940483Y-49486589D01*
X71159570Y-49335363D01*
X71358832Y-49158832D01*
X71535363Y-48959570D01*
X71686589Y-48740483D01*
X71810303Y-48504764D01*
X71904703Y-48255852D01*
X71968412Y-47997376D01*
X72000500Y-47733106D01*
X72000500Y-47600000D01*
X72000500Y-47560118D01*
X72000500Y-47560117D01*
X72000500Y-44901618D01*
X72000606Y-44898381D01*
X72013609Y-44700002D01*
X96044867Y-44700002D01*
X96063302Y-44828225D01*
X96095342Y-44898381D01*
X96117118Y-44946063D01*
X96201951Y-45043967D01*
X96201952Y-45043968D01*
X96236571Y-45066216D01*
X96310931Y-45114004D01*
X96435228Y-45150500D01*
X96435230Y-45150500D01*
X96564770Y-45150500D01*
X96564772Y-45150500D01*
X96689069Y-45114004D01*
X96730345Y-45087477D01*
X96763429Y-45066216D01*
X96816952Y-45050500D01*
X98783048Y-45050500D01*
X98836571Y-45066216D01*
X98910926Y-45114001D01*
X98910931Y-45114004D01*
X99035228Y-45150500D01*
X99035230Y-45150500D01*
X99164770Y-45150500D01*
X99164772Y-45150500D01*
X99289069Y-45114004D01*
X99398049Y-45043967D01*
X99482882Y-44946063D01*
X99536697Y-44828226D01*
X99555133Y-44700000D01*
X99536697Y-44571774D01*
X99482882Y-44453937D01*
X99398049Y-44356033D01*
X99398048Y-44356032D01*
X99398047Y-44356031D01*
X99289073Y-44285998D01*
X99289070Y-44285996D01*
X99289069Y-44285996D01*
X99289066Y-44285995D01*
X99164774Y-44249500D01*
X99164772Y-44249500D01*
X99035228Y-44249500D01*
X99035225Y-44249500D01*
X98910933Y-44285995D01*
X98910926Y-44285998D01*
X98836571Y-44333784D01*
X98783048Y-44349500D01*
X96816952Y-44349500D01*
X96763429Y-44333784D01*
X96689073Y-44285998D01*
X96689070Y-44285996D01*
X96689069Y-44285996D01*
X96689066Y-44285995D01*
X96564774Y-44249500D01*
X96564772Y-44249500D01*
X96435228Y-44249500D01*
X96435225Y-44249500D01*
X96310933Y-44285995D01*
X96310926Y-44285998D01*
X96201952Y-44356031D01*
X96117117Y-44453938D01*
X96063302Y-44571774D01*
X96044867Y-44699997D01*
X96044867Y-44700002D01*
X72013609Y-44700002D01*
X72015683Y-44668352D01*
X72016528Y-44661934D01*
X72061183Y-44437438D01*
X72062856Y-44431188D01*
X72136438Y-44214427D01*
X72138909Y-44208460D01*
X72240154Y-44003154D01*
X72243388Y-43997554D01*
X72370561Y-43807227D01*
X72374503Y-43802091D01*
X72374505Y-43802089D01*
X72525429Y-43629991D01*
X72529991Y-43625429D01*
X72702094Y-43474499D01*
X72707232Y-43470558D01*
X72897560Y-43343384D01*
X72903154Y-43340154D01*
X73108460Y-43238909D01*
X73114427Y-43236438D01*
X73331188Y-43162856D01*
X73337438Y-43161183D01*
X73401263Y-43148487D01*
X73561938Y-43116527D01*
X73568352Y-43115683D01*
X73798382Y-43100606D01*
X73801621Y-43100500D01*
X73839882Y-43100500D01*
X106160119Y-43100500D01*
X106198380Y-43100500D01*
X106201618Y-43100606D01*
G37*
%TD.AperFunction*%
%TD*%
%TA.AperFunction,Conductor*%
%TO.N,VBUS*%
G36*
X96859191Y-46718907D02*
G01*
X96895155Y-46768407D01*
X96900000Y-46799000D01*
X96900000Y-49453644D01*
X96898992Y-49467733D01*
X96894353Y-49499998D01*
X96894353Y-49500000D01*
X96898992Y-49532264D01*
X96900000Y-49546354D01*
X96900000Y-50853644D01*
X96898992Y-50867733D01*
X96894353Y-50899998D01*
X96894353Y-50900001D01*
X96898992Y-50932264D01*
X96900000Y-50946354D01*
X96900000Y-54201000D01*
X96881093Y-54259191D01*
X96831593Y-54295155D01*
X96801000Y-54300000D01*
X91499000Y-54300000D01*
X91440809Y-54281093D01*
X91404845Y-54231593D01*
X91400000Y-54201000D01*
X91400000Y-53073402D01*
X93239500Y-53073402D01*
X93270139Y-53177747D01*
X93280857Y-53214250D01*
X93360222Y-53337744D01*
X93471164Y-53433877D01*
X93604696Y-53494859D01*
X93604697Y-53494859D01*
X93604699Y-53494860D01*
X93713479Y-53510500D01*
X93713484Y-53510500D01*
X93786521Y-53510500D01*
X93895300Y-53494860D01*
X93895301Y-53494859D01*
X93895304Y-53494859D01*
X94028836Y-53433877D01*
X94139778Y-53337744D01*
X94219143Y-53214250D01*
X94260500Y-53073399D01*
X94260500Y-52926601D01*
X94219143Y-52785750D01*
X94139778Y-52662256D01*
X94028836Y-52566123D01*
X93895304Y-52505141D01*
X93895300Y-52505139D01*
X93786521Y-52489500D01*
X93786516Y-52489500D01*
X93713484Y-52489500D01*
X93713479Y-52489500D01*
X93604699Y-52505139D01*
X93471164Y-52566123D01*
X93360222Y-52662256D01*
X93280857Y-52785749D01*
X93280856Y-52785752D01*
X93239500Y-52926597D01*
X93239500Y-53073402D01*
X91400000Y-53073402D01*
X91400000Y-51799000D01*
X91418907Y-51740809D01*
X91468407Y-51704845D01*
X91499000Y-51700000D01*
X93799999Y-51700000D01*
X93800000Y-51700000D01*
X93800000Y-49500000D01*
X93799999Y-49500000D01*
X86200000Y-49500000D01*
X86200000Y-51700000D01*
X88501000Y-51700000D01*
X88559191Y-51718907D01*
X88595155Y-51768407D01*
X88600000Y-51799000D01*
X88600000Y-54201000D01*
X88581093Y-54259191D01*
X88531593Y-54295155D01*
X88501000Y-54300000D01*
X83199000Y-54300000D01*
X83140809Y-54281093D01*
X83104845Y-54231593D01*
X83100000Y-54201000D01*
X83100000Y-53060626D01*
X85689500Y-53060626D01*
X85717175Y-53163915D01*
X85720883Y-53177751D01*
X85781504Y-53282749D01*
X85781506Y-53282751D01*
X85781508Y-53282754D01*
X85867246Y-53368492D01*
X85867248Y-53368493D01*
X85944346Y-53413006D01*
X85959672Y-53423919D01*
X85971164Y-53433877D01*
X86104696Y-53494859D01*
X86104697Y-53494859D01*
X86104699Y-53494860D01*
X86213479Y-53510500D01*
X86213484Y-53510500D01*
X86286521Y-53510500D01*
X86395300Y-53494860D01*
X86395301Y-53494859D01*
X86395304Y-53494859D01*
X86528836Y-53433877D01*
X86540328Y-53423918D01*
X86555648Y-53413008D01*
X86632754Y-53368492D01*
X86718492Y-53282754D01*
X86779118Y-53177747D01*
X86810500Y-53060626D01*
X86810500Y-53000000D01*
X86810500Y-52960118D01*
X86810500Y-52939374D01*
X86779118Y-52822253D01*
X86779116Y-52822250D01*
X86779116Y-52822248D01*
X86718495Y-52717250D01*
X86718493Y-52717248D01*
X86718492Y-52717246D01*
X86632754Y-52631508D01*
X86555652Y-52586993D01*
X86540326Y-52576079D01*
X86528837Y-52566124D01*
X86528836Y-52566123D01*
X86395304Y-52505141D01*
X86395300Y-52505139D01*
X86286521Y-52489500D01*
X86286516Y-52489500D01*
X86213484Y-52489500D01*
X86213479Y-52489500D01*
X86104697Y-52505140D01*
X86104695Y-52505140D01*
X85971162Y-52566123D01*
X85959674Y-52576078D01*
X85944346Y-52586993D01*
X85867248Y-52631506D01*
X85781504Y-52717250D01*
X85720883Y-52822248D01*
X85720882Y-52822253D01*
X85689500Y-52939374D01*
X85689500Y-52960118D01*
X85689500Y-53000000D01*
X85689500Y-53060626D01*
X83100000Y-53060626D01*
X83100000Y-46799000D01*
X83118907Y-46740809D01*
X83168407Y-46704845D01*
X83199000Y-46700000D01*
X96801000Y-46700000D01*
X96859191Y-46718907D01*
G37*
%TD.AperFunction*%
%TD*%
M02*
