%TF.GenerationSoftware,KiCad,Pcbnew,7.0.6*%
%TF.CreationDate,2023-07-17T12:40:32+01:00*%
%TF.ProjectId,Galia,47616c69-612e-46b6-9963-61645f706362,V1.0*%
%TF.SameCoordinates,Original*%
%TF.FileFunction,Paste,Top*%
%TF.FilePolarity,Positive*%
%FSLAX46Y46*%
G04 Gerber Fmt 4.6, Leading zero omitted, Abs format (unit mm)*
G04 Created by KiCad (PCBNEW 7.0.6) date 2023-07-17 12:40:32*
%MOMM*%
%LPD*%
G01*
G04 APERTURE LIST*
G04 Aperture macros list*
%AMRoundRect*
0 Rectangle with rounded corners*
0 $1 Rounding radius*
0 $2 $3 $4 $5 $6 $7 $8 $9 X,Y pos of 4 corners*
0 Add a 4 corners polygon primitive as box body*
4,1,4,$2,$3,$4,$5,$6,$7,$8,$9,$2,$3,0*
0 Add four circle primitives for the rounded corners*
1,1,$1+$1,$2,$3*
1,1,$1+$1,$4,$5*
1,1,$1+$1,$6,$7*
1,1,$1+$1,$8,$9*
0 Add four rect primitives between the rounded corners*
20,1,$1+$1,$2,$3,$4,$5,0*
20,1,$1+$1,$4,$5,$6,$7,0*
20,1,$1+$1,$6,$7,$8,$9,0*
20,1,$1+$1,$8,$9,$2,$3,0*%
G04 Aperture macros list end*
%ADD10RoundRect,0.150000X0.150000X0.200000X-0.150000X0.200000X-0.150000X-0.200000X0.150000X-0.200000X0*%
%ADD11RoundRect,0.150000X0.150000X0.625000X-0.150000X0.625000X-0.150000X-0.625000X0.150000X-0.625000X0*%
%ADD12RoundRect,0.250000X0.350000X0.650000X-0.350000X0.650000X-0.350000X-0.650000X0.350000X-0.650000X0*%
%ADD13R,0.300000X0.500000*%
%ADD14R,0.500000X0.300000*%
%ADD15R,0.300000X0.870000*%
%ADD16R,1.550000X1.300000*%
G04 APERTURE END LIST*
D10*
%TO.C,D1*%
X96400000Y-50200000D03*
X97800000Y-50200000D03*
%TD*%
D11*
%TO.C,J3*%
X96500000Y-48100000D03*
X95500000Y-48100000D03*
X94500000Y-48100000D03*
X93500000Y-48100000D03*
X92500000Y-48100000D03*
X91500000Y-48100000D03*
X90500000Y-48100000D03*
X89500000Y-48100000D03*
X88500000Y-48100000D03*
X87500000Y-48100000D03*
X86500000Y-48100000D03*
X85500000Y-48100000D03*
X84500000Y-48100000D03*
X83500000Y-48100000D03*
D12*
X97800000Y-44225000D03*
X82200000Y-44225000D03*
%TD*%
D13*
%TO.C,D5*%
X80950000Y-55000000D03*
X80250000Y-55000000D03*
%TD*%
%TO.C,D4*%
X82550000Y-55000000D03*
X81850000Y-55000000D03*
%TD*%
D14*
%TO.C,D3*%
X95700000Y-55650000D03*
X95700000Y-56350000D03*
%TD*%
%TO.C,D2*%
X98100000Y-52950000D03*
X98100000Y-52250000D03*
%TD*%
D15*
%TO.C,J1*%
X92750000Y-52135000D03*
X91250000Y-52135000D03*
X90750000Y-52135000D03*
X90250000Y-52135000D03*
X89750000Y-52135000D03*
X89250000Y-52135000D03*
X88750000Y-52135000D03*
X87250000Y-52135000D03*
X87250000Y-53865000D03*
X88750000Y-53865000D03*
X89250000Y-53865000D03*
X89750000Y-53865000D03*
X90250000Y-53865000D03*
X90750000Y-53865000D03*
X91250000Y-53865000D03*
X92750000Y-53865000D03*
%TD*%
D16*
%TO.C,SW2*%
X77980000Y-55250000D03*
X70020000Y-55250000D03*
X77980000Y-50750000D03*
X70020000Y-50750000D03*
%TD*%
%TO.C,SW1*%
X102020000Y-50750000D03*
X109980000Y-50750000D03*
X102020000Y-55250000D03*
X109980000Y-55250000D03*
%TD*%
M02*
