M48
; DRILL file {KiCad 7.0.6} date Mon Jul 17 12:40:32 2023
; FORMAT={-:-/ absolute / inch / decimal}
; #@! TF.CreationDate,2023-07-17T12:40:32+01:00
; #@! TF.GenerationSoftware,Kicad,Pcbnew,7.0.6
; #@! TF.FileFunction,Plated,1,2,PTH
FMAT,2
INCH
; #@! TA.AperFunction,Plated,PTH,ViaDrill
T1C0.0098
; #@! TA.AperFunction,Plated,PTH,ViaDrill
T2C0.0118
; #@! TA.AperFunction,Plated,PTH,ComponentDrill
T3C0.0236
; #@! TA.AperFunction,Plated,PTH,ComponentDrill
T4C0.1260
%
G90
G05
T1
X3.524Y-2.155
X3.5433Y-2.0118
X3.7992Y-1.7598
X3.9016Y-1.7598
T2
X2.7559Y-2.1339
X3.0709Y-2.1339
X3.1594Y-2.1417
X3.1594Y-2.189
X3.25Y-2.1417
X3.25Y-2.1909
X3.4724Y-2.0551
X3.4724Y-2.0866
X3.4724Y-2.1181
X3.6142Y-2.0551
X3.6142Y-2.0866
X3.6142Y-2.1181
X3.6772Y-1.8504
X3.6772Y-1.937
X3.7087Y-1.8504
X3.7087Y-1.937
X3.7402Y-1.8504
X3.7402Y-1.937
X3.7441Y-2.1909
X3.7717Y-1.8504
X3.7717Y-1.937
X3.7913Y-2.1909
X3.8031Y-1.8504
X3.8031Y-1.937
X3.8346Y-1.9488
X3.8346Y-2.0039
X3.8386Y-2.0846
X3.8661Y-1.9488
X3.8661Y-2.0039
X3.8858Y-2.0846
X4.0157Y-2.1339
X4.3307Y-2.1339
T4
X2.5906Y-2.0866
X4.4961Y-2.0866
T3
G00X3.4537Y-2.002
M15
G01X3.4439Y-2.002
M16
G05
G00X3.4537Y-2.1713
M15
G01X3.4439Y-2.1713
M16
G05
G00X3.6427Y-2.002
M15
G01X3.6329Y-2.002
M16
G05
G00X3.6427Y-2.1713
M15
G01X3.6329Y-2.1713
M16
G05
T0
M30
