%TF.GenerationSoftware,KiCad,Pcbnew,7.0.6*%
%TF.CreationDate,2023-07-26T14:32:06+01:00*%
%TF.ProjectId,Galia,47616c69-612e-46b6-9963-61645f706362,V1.0*%
%TF.SameCoordinates,Original*%
%TF.FileFunction,Copper,L2,Bot*%
%TF.FilePolarity,Positive*%
%FSLAX46Y46*%
G04 Gerber Fmt 4.6, Leading zero omitted, Abs format (unit mm)*
G04 Created by KiCad (PCBNEW 7.0.6) date 2023-07-26 14:32:06*
%MOMM*%
%LPD*%
G01*
G04 APERTURE LIST*
G04 Aperture macros list*
%AMRoundRect*
0 Rectangle with rounded corners*
0 $1 Rounding radius*
0 $2 $3 $4 $5 $6 $7 $8 $9 X,Y pos of 4 corners*
0 Add a 4 corners polygon primitive as box body*
4,1,4,$2,$3,$4,$5,$6,$7,$8,$9,$2,$3,0*
0 Add four circle primitives for the rounded corners*
1,1,$1+$1,$2,$3*
1,1,$1+$1,$4,$5*
1,1,$1+$1,$6,$7*
1,1,$1+$1,$8,$9*
0 Add four rect primitives between the rounded corners*
20,1,$1+$1,$2,$3,$4,$5,0*
20,1,$1+$1,$4,$5,$6,$7,0*
20,1,$1+$1,$6,$7,$8,$9,0*
20,1,$1+$1,$8,$9,$2,$3,0*%
G04 Aperture macros list end*
%TA.AperFunction,ComponentPad*%
%ADD10C,6.000000*%
%TD*%
%TA.AperFunction,SMDPad,CuDef*%
%ADD11R,0.550000X0.300000*%
%TD*%
%TA.AperFunction,SMDPad,CuDef*%
%ADD12R,1.550000X1.300000*%
%TD*%
%TA.AperFunction,SMDPad,CuDef*%
%ADD13RoundRect,0.150000X0.625000X-0.150000X0.625000X0.150000X-0.625000X0.150000X-0.625000X-0.150000X0*%
%TD*%
%TA.AperFunction,SMDPad,CuDef*%
%ADD14RoundRect,0.250000X0.650000X-0.350000X0.650000X0.350000X-0.650000X0.350000X-0.650000X-0.350000X0*%
%TD*%
%TA.AperFunction,SMDPad,CuDef*%
%ADD15RoundRect,0.150000X-0.625000X0.150000X-0.625000X-0.150000X0.625000X-0.150000X0.625000X0.150000X0*%
%TD*%
%TA.AperFunction,SMDPad,CuDef*%
%ADD16RoundRect,0.250000X-0.650000X0.350000X-0.650000X-0.350000X0.650000X-0.350000X0.650000X0.350000X0*%
%TD*%
%TA.AperFunction,SMDPad,CuDef*%
%ADD17R,0.300000X0.870000*%
%TD*%
%TA.AperFunction,ComponentPad*%
%ADD18O,2.200000X1.100000*%
%TD*%
%TA.AperFunction,SMDPad,CuDef*%
%ADD19RoundRect,0.150000X0.200000X-0.150000X0.200000X0.150000X-0.200000X0.150000X-0.200000X-0.150000X0*%
%TD*%
%TA.AperFunction,ViaPad*%
%ADD20C,0.600000*%
%TD*%
%TA.AperFunction,Conductor*%
%ADD21C,0.300000*%
%TD*%
G04 APERTURE END LIST*
D10*
%TO.P,H1,1*%
%TO.N,N/C*%
X99800000Y-53000000D03*
%TD*%
%TO.P,H2,1,1*%
%TO.N,GND*%
X80200000Y-53000000D03*
%TD*%
D11*
%TO.P,U1,1,IO1*%
%TO.N,CC1*%
X91685000Y-47400000D03*
%TO.P,U1,2,IO2*%
%TO.N,CC2*%
X91685000Y-47900000D03*
%TO.P,U1,3,GND*%
%TO.N,GND*%
X91685000Y-48400000D03*
%TO.P,U1,4,IO3*%
%TO.N,/D-*%
X91685000Y-48900000D03*
%TO.P,U1,5,IO4*%
%TO.N,/D+*%
X91685000Y-49400000D03*
%TO.P,U1,6,NC*%
X90915000Y-49400000D03*
%TO.P,U1,7,NC*%
%TO.N,/D-*%
X90915000Y-48900000D03*
%TO.P,U1,8,GND*%
%TO.N,GND*%
X90915000Y-48400000D03*
%TO.P,U1,9,NC*%
%TO.N,CC2*%
X90915000Y-47900000D03*
%TO.P,U1,10,NC*%
%TO.N,CC1*%
X90915000Y-47400000D03*
%TD*%
D12*
%TO.P,SW2,1,A*%
%TO.N,GND*%
X103920000Y-55250000D03*
X111880000Y-55250000D03*
%TO.P,SW2,2,B*%
%TO.N,/BOOTSEL*%
X103920000Y-50750000D03*
X111880000Y-50750000D03*
%TD*%
%TO.P,SW1,1,A*%
%TO.N,GND*%
X68120000Y-55250000D03*
X76080000Y-55250000D03*
%TO.P,SW1,2,B*%
%TO.N,/~{RST}*%
X68120000Y-50750000D03*
X76080000Y-50750000D03*
%TD*%
D13*
%TO.P,J2,1,Pin_1*%
%TO.N,GND*%
X86100000Y-46600000D03*
%TO.P,J2,2,Pin_2*%
X86100000Y-45600000D03*
%TO.P,J2,3,Pin_3*%
X86100000Y-44600000D03*
%TO.P,J2,4,Pin_4*%
%TO.N,VBUS*%
X86100000Y-43600000D03*
%TO.P,J2,5,Pin_5*%
X86100000Y-42600000D03*
%TO.P,J2,6,Pin_6*%
X86100000Y-41600000D03*
D14*
%TO.P,J2,MP,MountPin*%
%TO.N,GND*%
X82225000Y-47900000D03*
X82225000Y-40300000D03*
%TD*%
D15*
%TO.P,J3,1,Pin_1*%
%TO.N,/BOOTSEL*%
X93900000Y-41600000D03*
%TO.P,J3,2,Pin_2*%
%TO.N,/~{RST}*%
X93900000Y-42600000D03*
%TO.P,J3,3,Pin_3*%
%TO.N,CC1*%
X93900000Y-43600000D03*
%TO.P,J3,4,Pin_4*%
%TO.N,CC2*%
X93900000Y-44600000D03*
%TO.P,J3,5,Pin_5*%
%TO.N,/D+*%
X93900000Y-45600000D03*
%TO.P,J3,6,Pin_6*%
%TO.N,/D-*%
X93900000Y-46600000D03*
%TO.P,J3,7,Pin_7*%
%TO.N,GND*%
X93900000Y-47600000D03*
D16*
%TO.P,J3,MP,MountPin*%
X97775000Y-40300000D03*
X97775000Y-48900000D03*
%TD*%
D17*
%TO.P,J1,A1,GND*%
%TO.N,GND*%
X87250000Y-53865000D03*
%TO.P,J1,A4,VBUS*%
%TO.N,VBUS*%
X88750000Y-53865000D03*
%TO.P,J1,A5,CC1*%
%TO.N,CC1*%
X89250000Y-53865000D03*
%TO.P,J1,A6,D+*%
%TO.N,/D+*%
X89750000Y-53865000D03*
%TO.P,J1,A7,D-*%
%TO.N,/D-*%
X90250000Y-53865000D03*
%TO.P,J1,A8,SBU1*%
%TO.N,unconnected-(J1-SBU1-PadA8)*%
X90750000Y-53865000D03*
%TO.P,J1,A9,VBUS*%
%TO.N,VBUS*%
X91250000Y-53865000D03*
%TO.P,J1,A12,GND*%
%TO.N,GND*%
X92750000Y-53865000D03*
%TO.P,J1,B1,GND*%
X92750000Y-52135000D03*
%TO.P,J1,B4,VBUS*%
%TO.N,VBUS*%
X91250000Y-52135000D03*
%TO.P,J1,B5,CC2*%
%TO.N,CC2*%
X90750000Y-52135000D03*
%TO.P,J1,B6,D+*%
%TO.N,/D+*%
X90250000Y-52135000D03*
%TO.P,J1,B7,D-*%
%TO.N,/D-*%
X89750000Y-52135000D03*
%TO.P,J1,B8,SBU2*%
%TO.N,unconnected-(J1-SBU2-PadB8)*%
X89250000Y-52135000D03*
%TO.P,J1,B9,VBUS*%
%TO.N,VBUS*%
X88750000Y-52135000D03*
%TO.P,J1,B12,GND*%
%TO.N,GND*%
X87250000Y-52135000D03*
D18*
%TO.P,J1,S1,SHIELD*%
X87600000Y-50850000D03*
X87600000Y-55150000D03*
X92400000Y-50850000D03*
X92400000Y-55150000D03*
%TD*%
D19*
%TO.P,D1,1,K*%
%TO.N,VBUS*%
X88200000Y-43400000D03*
%TO.P,D1,2,A*%
%TO.N,GND*%
X88200000Y-44800000D03*
%TD*%
D20*
%TO.N,VBUS*%
X85000000Y-41550000D03*
X87200000Y-41550000D03*
X87200000Y-42950000D03*
X85000000Y-43650000D03*
X85000000Y-42950000D03*
X91800000Y-53000000D03*
X87200000Y-43650000D03*
X87200000Y-42250000D03*
X88200000Y-53800000D03*
X91800000Y-53800000D03*
X91800000Y-52200000D03*
X88200000Y-53000000D03*
X88200000Y-52200000D03*
X85000000Y-42250000D03*
%TO.N,GND*%
X75000000Y-55250000D03*
X105100000Y-55250000D03*
X93500000Y-48400000D03*
X82200000Y-41300000D03*
X110750000Y-55250000D03*
X97800000Y-47900000D03*
X97800000Y-41300000D03*
X92800000Y-48400000D03*
X69350000Y-55250000D03*
X82100000Y-46900000D03*
%TO.N,CC1*%
X89250000Y-48100000D03*
X89250000Y-55200000D03*
%TO.N,/D-*%
X90100000Y-48900000D03*
X90000000Y-54900000D03*
%TO.N,CC2*%
X90100000Y-48100000D03*
X90950000Y-50250000D03*
%TD*%
D21*
%TO.N,/~{RST}*%
X78617684Y-50000000D02*
X76930000Y-50000000D01*
X84700000Y-40100000D02*
X80600000Y-44200000D01*
X80600000Y-44200000D02*
X80600000Y-48017684D01*
X89600000Y-40100000D02*
X84700000Y-40100000D01*
X80600000Y-48017684D02*
X78617684Y-50000000D01*
X92100000Y-42600000D02*
X89600000Y-40100000D01*
X94400000Y-42600000D02*
X92100000Y-42600000D01*
X76930000Y-50000000D02*
X76630000Y-50300000D01*
%TO.N,GND*%
X91685000Y-48400000D02*
X92800000Y-48400000D01*
%TO.N,CC1*%
X92900000Y-43600000D02*
X92200000Y-44300000D01*
X89250000Y-55200000D02*
X89250000Y-53865000D01*
X89880761Y-47400000D02*
X90915000Y-47400000D01*
X89250000Y-48030761D02*
X89880761Y-47400000D01*
X92200000Y-47273655D02*
X92073655Y-47400000D01*
X91685000Y-47400000D02*
X90915000Y-47400000D01*
X92200000Y-44300000D02*
X92200000Y-47273655D01*
X92073655Y-47400000D02*
X91685000Y-47400000D01*
X94400000Y-43600000D02*
X92900000Y-43600000D01*
%TO.N,/D+*%
X91685000Y-49400000D02*
X90915000Y-49400000D01*
X92173654Y-49400000D02*
X92323654Y-49550000D01*
X90542894Y-49400000D02*
X90250000Y-49692894D01*
X89750000Y-53250000D02*
X89750000Y-53865000D01*
X90250000Y-49692894D02*
X90250000Y-52135000D01*
X91685000Y-49400000D02*
X92173654Y-49400000D01*
X95057107Y-49550000D02*
X95700000Y-48907106D01*
X92323654Y-49550000D02*
X95057107Y-49550000D01*
X90250000Y-52135000D02*
X90250000Y-52750000D01*
X90250000Y-52750000D02*
X89750000Y-53250000D01*
X90915000Y-49400000D02*
X90542894Y-49400000D01*
X95700000Y-48907106D02*
X95700000Y-46400000D01*
X95700000Y-46400000D02*
X94900000Y-45600000D01*
X94900000Y-45600000D02*
X93900000Y-45600000D01*
%TO.N,/D-*%
X92380761Y-48900000D02*
X91685000Y-48900000D01*
X90250000Y-53865000D02*
X90250000Y-54650000D01*
X92530761Y-49050000D02*
X92380761Y-48900000D01*
X90100000Y-48900000D02*
X89750000Y-49250000D01*
X89750000Y-49250000D02*
X89750000Y-52135000D01*
X90000000Y-54780761D02*
X90000000Y-54900000D01*
X90100000Y-48900000D02*
X90915000Y-48900000D01*
X95200000Y-46900000D02*
X95200000Y-48700000D01*
X94900000Y-46600000D02*
X95200000Y-46900000D01*
X90915000Y-48900000D02*
X91685000Y-48900000D01*
X95200000Y-48700000D02*
X94850000Y-49050000D01*
X90250000Y-54650000D02*
X90000000Y-54900000D01*
X94850000Y-49050000D02*
X92530761Y-49050000D01*
X93900000Y-46600000D02*
X94900000Y-46600000D01*
%TO.N,CC2*%
X90750000Y-52135000D02*
X90750000Y-50450000D01*
X92700000Y-44900000D02*
X92700000Y-47480761D01*
X90750000Y-50450000D02*
X90950000Y-50250000D01*
X94400000Y-44600000D02*
X93000000Y-44600000D01*
X90915000Y-47900000D02*
X91685000Y-47900000D01*
X90300000Y-47900000D02*
X90915000Y-47900000D01*
X92280761Y-47900000D02*
X91685000Y-47900000D01*
X92700000Y-47480761D02*
X92280761Y-47900000D01*
X90100000Y-48100000D02*
X90300000Y-47900000D01*
X93000000Y-44600000D02*
X92700000Y-44900000D01*
%TO.N,/BOOTSEL*%
X103170000Y-50000000D02*
X103920000Y-50750000D01*
X99100000Y-45100000D02*
X99100000Y-47717684D01*
X93900000Y-41600000D02*
X95600000Y-41600000D01*
X95600000Y-41600000D02*
X99100000Y-45100000D01*
X103920000Y-50750000D02*
X111880000Y-50750000D01*
X99100000Y-47717684D02*
X101382316Y-50000000D01*
X101382316Y-50000000D02*
X103170000Y-50000000D01*
%TO.N,/~{RST}*%
X68220000Y-50750000D02*
X76180000Y-50750000D01*
%TD*%
%TA.AperFunction,Conductor*%
%TO.N,GND*%
G36*
X89472001Y-40469407D02*
G01*
X89483814Y-40479496D01*
X91819197Y-42814878D01*
X91832072Y-42830734D01*
X91838563Y-42840669D01*
X91852344Y-42851395D01*
X91865110Y-42861331D01*
X91869709Y-42865391D01*
X91872689Y-42868371D01*
X91872692Y-42868373D01*
X91872694Y-42868375D01*
X91890430Y-42881038D01*
X91930874Y-42912517D01*
X91930880Y-42912519D01*
X91937354Y-42916022D01*
X91943934Y-42919240D01*
X91993045Y-42933861D01*
X92041512Y-42950500D01*
X92041516Y-42950500D01*
X92048736Y-42951705D01*
X92056039Y-42952615D01*
X92056046Y-42952617D01*
X92107231Y-42950500D01*
X92938812Y-42950500D01*
X92997003Y-42969407D01*
X93008809Y-42979490D01*
X93059317Y-43029998D01*
X93087093Y-43084513D01*
X93077522Y-43144945D01*
X93059315Y-43170004D01*
X93010167Y-43219151D01*
X92955650Y-43246928D01*
X92919855Y-43246042D01*
X92914685Y-43244958D01*
X92881294Y-43249120D01*
X92875169Y-43249500D01*
X92870956Y-43249500D01*
X92849448Y-43253089D01*
X92798607Y-43259426D01*
X92791575Y-43261519D01*
X92784616Y-43263908D01*
X92739555Y-43288295D01*
X92693517Y-43310801D01*
X92687542Y-43315066D01*
X92681744Y-43319579D01*
X92647042Y-43357275D01*
X91985117Y-44019198D01*
X91969265Y-44032071D01*
X91959335Y-44038559D01*
X91959332Y-44038561D01*
X91938664Y-44065114D01*
X91934605Y-44069712D01*
X91931619Y-44072698D01*
X91918955Y-44090437D01*
X91887483Y-44130874D01*
X91883981Y-44137343D01*
X91880758Y-44143936D01*
X91866138Y-44193045D01*
X91849499Y-44241511D01*
X91848292Y-44248742D01*
X91847382Y-44256047D01*
X91849500Y-44307231D01*
X91849500Y-46950500D01*
X91830593Y-47008691D01*
X91781093Y-47044655D01*
X91750500Y-47049500D01*
X89927380Y-47049500D01*
X89907065Y-47047393D01*
X89895447Y-47044957D01*
X89895446Y-47044957D01*
X89862048Y-47049120D01*
X89855924Y-47049500D01*
X89851721Y-47049500D01*
X89841789Y-47051157D01*
X89830219Y-47053087D01*
X89779367Y-47059426D01*
X89772336Y-47061519D01*
X89765382Y-47063907D01*
X89720311Y-47088297D01*
X89674279Y-47110801D01*
X89668290Y-47115077D01*
X89662504Y-47119580D01*
X89662503Y-47119582D01*
X89662501Y-47119583D01*
X89662501Y-47119584D01*
X89627793Y-47157286D01*
X89206579Y-47578498D01*
X89164468Y-47603484D01*
X89039947Y-47640047D01*
X89039942Y-47640049D01*
X88918873Y-47717855D01*
X88824622Y-47826628D01*
X88764834Y-47957543D01*
X88744353Y-48099997D01*
X88744353Y-48100002D01*
X88764834Y-48242456D01*
X88790422Y-48298485D01*
X88824623Y-48373373D01*
X88864945Y-48419907D01*
X88918873Y-48482144D01*
X89039942Y-48559950D01*
X89039947Y-48559953D01*
X89121208Y-48583813D01*
X89178035Y-48600499D01*
X89178036Y-48600499D01*
X89178039Y-48600500D01*
X89178041Y-48600500D01*
X89321959Y-48600500D01*
X89321961Y-48600500D01*
X89460053Y-48559953D01*
X89523217Y-48519359D01*
X89582392Y-48503805D01*
X89639408Y-48526004D01*
X89672487Y-48577476D01*
X89668995Y-48638562D01*
X89666793Y-48643770D01*
X89614834Y-48757541D01*
X89614834Y-48757543D01*
X89597368Y-48879021D01*
X89570372Y-48933929D01*
X89569380Y-48934936D01*
X89535118Y-48969198D01*
X89519265Y-48982071D01*
X89509335Y-48988559D01*
X89509332Y-48988561D01*
X89488664Y-49015114D01*
X89484605Y-49019712D01*
X89481619Y-49022698D01*
X89468955Y-49040437D01*
X89437483Y-49080874D01*
X89433981Y-49087343D01*
X89430758Y-49093936D01*
X89416138Y-49143045D01*
X89399499Y-49191512D01*
X89398294Y-49198737D01*
X89397383Y-49206043D01*
X89397383Y-49206045D01*
X89397383Y-49206046D01*
X89399499Y-49257231D01*
X89399499Y-50370182D01*
X89399500Y-51400500D01*
X89380593Y-51458691D01*
X89331093Y-51494655D01*
X89300500Y-51499500D01*
X89080248Y-51499500D01*
X89019314Y-51511621D01*
X88980686Y-51511621D01*
X88919751Y-51499500D01*
X88919748Y-51499500D01*
X88839861Y-51499500D01*
X88824374Y-51498281D01*
X88800502Y-51494500D01*
X88800500Y-51494500D01*
X87999000Y-51494500D01*
X87966856Y-51497030D01*
X87958957Y-51498281D01*
X87936262Y-51501875D01*
X87931715Y-51502647D01*
X87931713Y-51502647D01*
X87847617Y-51538591D01*
X87798118Y-51574555D01*
X87770372Y-51598797D01*
X87723464Y-51677307D01*
X87723462Y-51677310D01*
X87704556Y-51735499D01*
X87694500Y-51798996D01*
X87694500Y-52191903D01*
X87694353Y-52193960D01*
X87694353Y-52206054D01*
X87694500Y-52208108D01*
X87694499Y-52991903D01*
X87694353Y-52993961D01*
X87694353Y-53006054D01*
X87694500Y-53008108D01*
X87694499Y-53791903D01*
X87694353Y-53793961D01*
X87694353Y-53806054D01*
X87694500Y-53808108D01*
X87694500Y-54201000D01*
X87697030Y-54233142D01*
X87697030Y-54233143D01*
X87701875Y-54263738D01*
X87702647Y-54268284D01*
X87702647Y-54268286D01*
X87738591Y-54352382D01*
X87738592Y-54352383D01*
X87774556Y-54401883D01*
X87798797Y-54429628D01*
X87877307Y-54476536D01*
X87935498Y-54495443D01*
X87947552Y-54497352D01*
X87998996Y-54505500D01*
X88800500Y-54505500D01*
X88858691Y-54524407D01*
X88894655Y-54573907D01*
X88899500Y-54604500D01*
X88899500Y-54803287D01*
X88880593Y-54861478D01*
X88875320Y-54868117D01*
X88824623Y-54926626D01*
X88764834Y-55057543D01*
X88744353Y-55199997D01*
X88744353Y-55200002D01*
X88764834Y-55342456D01*
X88806871Y-55434502D01*
X88824623Y-55473373D01*
X88853065Y-55506197D01*
X88918873Y-55582144D01*
X88958666Y-55607717D01*
X89039947Y-55659953D01*
X89140307Y-55689421D01*
X89178035Y-55700499D01*
X89178036Y-55700499D01*
X89178039Y-55700500D01*
X89178041Y-55700500D01*
X89321959Y-55700500D01*
X89321961Y-55700500D01*
X89460053Y-55659953D01*
X89581128Y-55582143D01*
X89675377Y-55473373D01*
X89698961Y-55421730D01*
X89740332Y-55376654D01*
X89800299Y-55364503D01*
X89816897Y-55367866D01*
X89928039Y-55400500D01*
X89928041Y-55400500D01*
X90071959Y-55400500D01*
X90071961Y-55400500D01*
X90210053Y-55359953D01*
X90331128Y-55282143D01*
X90425377Y-55173373D01*
X90485165Y-55042457D01*
X90503095Y-54917743D01*
X90520514Y-54874310D01*
X90531044Y-54859562D01*
X90562517Y-54819126D01*
X90562519Y-54819118D01*
X90566021Y-54812649D01*
X90569238Y-54806068D01*
X90569237Y-54806068D01*
X90569239Y-54806067D01*
X90583858Y-54756962D01*
X90600500Y-54708488D01*
X90600500Y-54708487D01*
X90601706Y-54701259D01*
X90602617Y-54693954D01*
X90600500Y-54642769D01*
X90600500Y-54599500D01*
X90619407Y-54541309D01*
X90668907Y-54505345D01*
X90699500Y-54500500D01*
X90919747Y-54500500D01*
X90919748Y-54500500D01*
X90978231Y-54488867D01*
X90978231Y-54488866D01*
X90980684Y-54488379D01*
X91019314Y-54488378D01*
X91021767Y-54488866D01*
X91021769Y-54488867D01*
X91080252Y-54500500D01*
X91160139Y-54500500D01*
X91175626Y-54501719D01*
X91199498Y-54505500D01*
X91199500Y-54505500D01*
X92000996Y-54505500D01*
X92001000Y-54505500D01*
X92033144Y-54502970D01*
X92048753Y-54500498D01*
X92063738Y-54498125D01*
X92064874Y-54497931D01*
X92068287Y-54497352D01*
X92152383Y-54461408D01*
X92201883Y-54425444D01*
X92229628Y-54401203D01*
X92276536Y-54322693D01*
X92295443Y-54264502D01*
X92305500Y-54201000D01*
X92305500Y-53808095D01*
X92305647Y-53806054D01*
X92305647Y-53793960D01*
X92305500Y-53791903D01*
X92305500Y-53060626D01*
X93189500Y-53060626D01*
X93211584Y-53143044D01*
X93220883Y-53177751D01*
X93281504Y-53282749D01*
X93281506Y-53282751D01*
X93281508Y-53282754D01*
X93367246Y-53368492D01*
X93367248Y-53368493D01*
X93444346Y-53413006D01*
X93459672Y-53423919D01*
X93471164Y-53433877D01*
X93604696Y-53494859D01*
X93604697Y-53494859D01*
X93604699Y-53494860D01*
X93713479Y-53510500D01*
X93713484Y-53510500D01*
X93786521Y-53510500D01*
X93895300Y-53494860D01*
X93895301Y-53494859D01*
X93895304Y-53494859D01*
X94028836Y-53433877D01*
X94040328Y-53423918D01*
X94055648Y-53413008D01*
X94132754Y-53368492D01*
X94218492Y-53282754D01*
X94218495Y-53282749D01*
X94279116Y-53177751D01*
X94279116Y-53177749D01*
X94279118Y-53177747D01*
X94310500Y-53060626D01*
X94310500Y-53000000D01*
X94310500Y-52960118D01*
X94310500Y-52939374D01*
X94279118Y-52822253D01*
X94279116Y-52822250D01*
X94279116Y-52822248D01*
X94218495Y-52717250D01*
X94218493Y-52717248D01*
X94218492Y-52717246D01*
X94132754Y-52631508D01*
X94055652Y-52586993D01*
X94040326Y-52576079D01*
X94028837Y-52566124D01*
X94028836Y-52566123D01*
X93895304Y-52505141D01*
X93895300Y-52505139D01*
X93786521Y-52489500D01*
X93786516Y-52489500D01*
X93713484Y-52489500D01*
X93713479Y-52489500D01*
X93604697Y-52505140D01*
X93604695Y-52505140D01*
X93471162Y-52566123D01*
X93459674Y-52576078D01*
X93444346Y-52586993D01*
X93367248Y-52631506D01*
X93281504Y-52717250D01*
X93220883Y-52822248D01*
X93214707Y-52845297D01*
X93189500Y-52939374D01*
X93189500Y-52960118D01*
X93189500Y-53000000D01*
X93189500Y-53060626D01*
X92305500Y-53060626D01*
X92305500Y-53008109D01*
X92305647Y-53006053D01*
X92305647Y-52993960D01*
X92305500Y-52991903D01*
X92305500Y-52208109D01*
X92305647Y-52206053D01*
X92305647Y-52193960D01*
X92305500Y-52191903D01*
X92305500Y-51799004D01*
X92305499Y-51798996D01*
X92302970Y-51766856D01*
X92298125Y-51736263D01*
X92297995Y-51735498D01*
X92297353Y-51731714D01*
X92297352Y-51731713D01*
X92261408Y-51647617D01*
X92233472Y-51609167D01*
X92225444Y-51598117D01*
X92201203Y-51570372D01*
X92122693Y-51523464D01*
X92122691Y-51523463D01*
X92122689Y-51523462D01*
X92064499Y-51504556D01*
X92064500Y-51504556D01*
X92001003Y-51494500D01*
X92001000Y-51494500D01*
X91199500Y-51494500D01*
X91141309Y-51475593D01*
X91105345Y-51426093D01*
X91100500Y-51395500D01*
X91100500Y-50800773D01*
X91119407Y-50742582D01*
X91154280Y-50714066D01*
X91154097Y-50713781D01*
X91156587Y-50712180D01*
X91158376Y-50710718D01*
X91160045Y-50709955D01*
X91160053Y-50709953D01*
X91281128Y-50632143D01*
X91375377Y-50523373D01*
X91435165Y-50392457D01*
X91444804Y-50325419D01*
X91455647Y-50250002D01*
X91455647Y-50249997D01*
X91435165Y-50107543D01*
X91422696Y-50080241D01*
X91375377Y-49976627D01*
X91351594Y-49949180D01*
X91321398Y-49914331D01*
X91297580Y-49857972D01*
X91311439Y-49798376D01*
X91357680Y-49758309D01*
X91396217Y-49750500D01*
X91626512Y-49750500D01*
X91982397Y-49750500D01*
X92040588Y-49769407D01*
X92055818Y-49785411D01*
X92056662Y-49784635D01*
X92062216Y-49790668D01*
X92088764Y-49811332D01*
X92093362Y-49815392D01*
X92096344Y-49818373D01*
X92096347Y-49818375D01*
X92114092Y-49831044D01*
X92154528Y-49862517D01*
X92154532Y-49862518D01*
X92161008Y-49866022D01*
X92167588Y-49869240D01*
X92216699Y-49883861D01*
X92265166Y-49900500D01*
X92265170Y-49900500D01*
X92272390Y-49901705D01*
X92279693Y-49902615D01*
X92279700Y-49902617D01*
X92330885Y-49900500D01*
X95010488Y-49900500D01*
X95030803Y-49902607D01*
X95032951Y-49903057D01*
X95042422Y-49905043D01*
X95075819Y-49900879D01*
X95081944Y-49900500D01*
X95086148Y-49900500D01*
X95096897Y-49898706D01*
X95107647Y-49896912D01*
X95158500Y-49890573D01*
X95158503Y-49890571D01*
X95165536Y-49888477D01*
X95172484Y-49886092D01*
X95172488Y-49886092D01*
X95217551Y-49861704D01*
X95263591Y-49839198D01*
X95269577Y-49834923D01*
X95275363Y-49830420D01*
X95284094Y-49820936D01*
X95310064Y-49792724D01*
X95914884Y-49187902D01*
X95930734Y-49175032D01*
X95940669Y-49168543D01*
X95961338Y-49141985D01*
X95965388Y-49137398D01*
X95968376Y-49134412D01*
X95981047Y-49116664D01*
X96012517Y-49076232D01*
X96012519Y-49076226D01*
X96016021Y-49069757D01*
X96019237Y-49063177D01*
X96019237Y-49063175D01*
X96019240Y-49063172D01*
X96033860Y-49014062D01*
X96050500Y-48965594D01*
X96050500Y-48965593D01*
X96051706Y-48958365D01*
X96052617Y-48951060D01*
X96050500Y-48899863D01*
X96050500Y-46446618D01*
X96052607Y-46426302D01*
X96052617Y-46426253D01*
X96055043Y-46414685D01*
X96050879Y-46381288D01*
X96050500Y-46375162D01*
X96050500Y-46370959D01*
X96046912Y-46349459D01*
X96043109Y-46318955D01*
X96040573Y-46298607D01*
X96040572Y-46298605D01*
X96040572Y-46298603D01*
X96038479Y-46291575D01*
X96036091Y-46284616D01*
X96011704Y-46239554D01*
X95989198Y-46193515D01*
X95984948Y-46187562D01*
X95980418Y-46181742D01*
X95942724Y-46147041D01*
X95180801Y-45385119D01*
X95167925Y-45369262D01*
X95161437Y-45359331D01*
X95134885Y-45338665D01*
X95130283Y-45334601D01*
X95127307Y-45331625D01*
X95109560Y-45318954D01*
X95069128Y-45287484D01*
X95062677Y-45283993D01*
X95056068Y-45280761D01*
X95056066Y-45280760D01*
X95006954Y-45266138D01*
X94958488Y-45249500D01*
X94958485Y-45249499D01*
X94951260Y-45248293D01*
X94943955Y-45247383D01*
X94943954Y-45247383D01*
X94943952Y-45247383D01*
X94892769Y-45249500D01*
X94861188Y-45249500D01*
X94802997Y-45230593D01*
X94791190Y-45220509D01*
X94740682Y-45170001D01*
X94712907Y-45115487D01*
X94722478Y-45055055D01*
X94740681Y-45029999D01*
X94814198Y-44956483D01*
X94865573Y-44851393D01*
X94875500Y-44783260D01*
X94875500Y-44416740D01*
X94865573Y-44348607D01*
X94847091Y-44310802D01*
X94818876Y-44253087D01*
X94814198Y-44243517D01*
X94740682Y-44170001D01*
X94712907Y-44115487D01*
X94722478Y-44055055D01*
X94740681Y-44029999D01*
X94814198Y-43956483D01*
X94865573Y-43851393D01*
X94875500Y-43783260D01*
X94875500Y-43416740D01*
X94865573Y-43348607D01*
X94847091Y-43310802D01*
X94823569Y-43262686D01*
X94814198Y-43243517D01*
X94740682Y-43170001D01*
X94712907Y-43115487D01*
X94722478Y-43055055D01*
X94740681Y-43029999D01*
X94814198Y-42956483D01*
X94865573Y-42851393D01*
X94875500Y-42783260D01*
X94875500Y-42416740D01*
X94865573Y-42348607D01*
X94814198Y-42243517D01*
X94740682Y-42170001D01*
X94712907Y-42115487D01*
X94722478Y-42055055D01*
X94740681Y-42029999D01*
X94791186Y-41979494D01*
X94845701Y-41951719D01*
X94861188Y-41950500D01*
X95413810Y-41950500D01*
X95472001Y-41969407D01*
X95483814Y-41979496D01*
X98720504Y-45216185D01*
X98748281Y-45270702D01*
X98749500Y-45286189D01*
X98749500Y-47671065D01*
X98747393Y-47691380D01*
X98744957Y-47702999D01*
X98748710Y-47733106D01*
X98749120Y-47736393D01*
X98749500Y-47742521D01*
X98749500Y-47746722D01*
X98753087Y-47768225D01*
X98759425Y-47819072D01*
X98761527Y-47826132D01*
X98763907Y-47833064D01*
X98788295Y-47878128D01*
X98810801Y-47924166D01*
X98815078Y-47930156D01*
X98819579Y-47935939D01*
X98857275Y-47970642D01*
X100592621Y-49705987D01*
X100620398Y-49760504D01*
X100610827Y-49820936D01*
X100567562Y-49864201D01*
X100507130Y-49873772D01*
X100506034Y-49873592D01*
X100158917Y-49814614D01*
X100158897Y-49814611D01*
X99800005Y-49794457D01*
X99799995Y-49794457D01*
X99441102Y-49814611D01*
X99441082Y-49814614D01*
X99086712Y-49874824D01*
X99086692Y-49874828D01*
X98741276Y-49974340D01*
X98409162Y-50111907D01*
X98094550Y-50285787D01*
X97801381Y-50493802D01*
X97533346Y-50733332D01*
X97533332Y-50733346D01*
X97293802Y-51001381D01*
X97085787Y-51294550D01*
X96911907Y-51609162D01*
X96774340Y-51941276D01*
X96674828Y-52286692D01*
X96674824Y-52286712D01*
X96614614Y-52641082D01*
X96614611Y-52641102D01*
X96594457Y-52999995D01*
X96594457Y-53000004D01*
X96614611Y-53358897D01*
X96614614Y-53358917D01*
X96674824Y-53713287D01*
X96674828Y-53713307D01*
X96774340Y-54058723D01*
X96911907Y-54390837D01*
X96940325Y-54442255D01*
X96951925Y-54502331D01*
X96925997Y-54557752D01*
X96872446Y-54587348D01*
X96812109Y-54579993D01*
X96665459Y-54512146D01*
X96665458Y-54512146D01*
X96489887Y-54473500D01*
X96355184Y-54473500D01*
X96221276Y-54488063D01*
X96050914Y-54545465D01*
X95896872Y-54638150D01*
X95766357Y-54761780D01*
X95665470Y-54910578D01*
X95598930Y-55077582D01*
X95598930Y-55077584D01*
X95597621Y-55085569D01*
X95569845Y-55254989D01*
X95579578Y-55434502D01*
X95620570Y-55582143D01*
X95627673Y-55607723D01*
X95711881Y-55766556D01*
X95711883Y-55766559D01*
X95815114Y-55888092D01*
X95828265Y-55903574D01*
X95971382Y-56012369D01*
X95971383Y-56012369D01*
X95971384Y-56012370D01*
X95975976Y-56015133D01*
X95974734Y-56017197D01*
X96012547Y-56052254D01*
X96024394Y-56112282D01*
X95998696Y-56167809D01*
X95945268Y-56197626D01*
X95926098Y-56199500D01*
X84064716Y-56199500D01*
X84006525Y-56180593D01*
X83970561Y-56131093D01*
X83970561Y-56069907D01*
X84006525Y-56020407D01*
X84013665Y-56015677D01*
X84103126Y-55961851D01*
X84233642Y-55838220D01*
X84334529Y-55689423D01*
X84401070Y-55522416D01*
X84430155Y-55345010D01*
X84420422Y-55165499D01*
X84372327Y-54992277D01*
X84288119Y-54833444D01*
X84275957Y-54819126D01*
X84171736Y-54696427D01*
X84171735Y-54696426D01*
X84119582Y-54656780D01*
X84028618Y-54587631D01*
X83865459Y-54512146D01*
X83689887Y-54473500D01*
X83555184Y-54473500D01*
X83421276Y-54488063D01*
X83250914Y-54545465D01*
X83096872Y-54638150D01*
X82966357Y-54761780D01*
X82865470Y-54910578D01*
X82798930Y-55077582D01*
X82798930Y-55077584D01*
X82797621Y-55085569D01*
X82769845Y-55254989D01*
X82779578Y-55434502D01*
X82820570Y-55582143D01*
X82827673Y-55607723D01*
X82911881Y-55766556D01*
X82911883Y-55766559D01*
X83015114Y-55888092D01*
X83028265Y-55903574D01*
X83171382Y-56012369D01*
X83171383Y-56012369D01*
X83171384Y-56012370D01*
X83175976Y-56015133D01*
X83174734Y-56017197D01*
X83212547Y-56052254D01*
X83224394Y-56112282D01*
X83198696Y-56167809D01*
X83145268Y-56197626D01*
X83126098Y-56199500D01*
X67501621Y-56199500D01*
X67498383Y-56199394D01*
X67268360Y-56184317D01*
X67261934Y-56183471D01*
X67037438Y-56138816D01*
X67031177Y-56137139D01*
X66814430Y-56063562D01*
X66808448Y-56061084D01*
X66603166Y-55959851D01*
X66597552Y-55956610D01*
X66407233Y-55829442D01*
X66402091Y-55825496D01*
X66275193Y-55714211D01*
X66229999Y-55674577D01*
X66225419Y-55669997D01*
X66216608Y-55659950D01*
X66111840Y-55540483D01*
X66074503Y-55497908D01*
X66070557Y-55492766D01*
X65943389Y-55302447D01*
X65940151Y-55296838D01*
X65838911Y-55091544D01*
X65836437Y-55085569D01*
X65795498Y-54964968D01*
X65762858Y-54868814D01*
X65761183Y-54862561D01*
X65716528Y-54638065D01*
X65715682Y-54631639D01*
X65713903Y-54604500D01*
X65700606Y-54401617D01*
X65700500Y-54398379D01*
X65700500Y-51601619D01*
X65700606Y-51598381D01*
X65701230Y-51588865D01*
X65715683Y-51368352D01*
X65716528Y-51361934D01*
X65739020Y-51248862D01*
X65761183Y-51137438D01*
X65762856Y-51131188D01*
X65836438Y-50914427D01*
X65838909Y-50908460D01*
X65940154Y-50703154D01*
X65943384Y-50697560D01*
X66070561Y-50507227D01*
X66074503Y-50502091D01*
X66081769Y-50493806D01*
X66225429Y-50329991D01*
X66229991Y-50325429D01*
X66402094Y-50174499D01*
X66407227Y-50170561D01*
X66597560Y-50043384D01*
X66603154Y-50040154D01*
X66808460Y-49938909D01*
X66814427Y-49936438D01*
X67031188Y-49862856D01*
X67037429Y-49861184D01*
X67063660Y-49855967D01*
X67124422Y-49863159D01*
X67169351Y-49904693D01*
X67181287Y-49964703D01*
X67165289Y-50008066D01*
X67156134Y-50021766D01*
X67156132Y-50021772D01*
X67144501Y-50080241D01*
X67144500Y-50080253D01*
X67144500Y-51419746D01*
X67144501Y-51419758D01*
X67156132Y-51478227D01*
X67156134Y-51478233D01*
X67200445Y-51544548D01*
X67200448Y-51544552D01*
X67266769Y-51588867D01*
X67311231Y-51597711D01*
X67325241Y-51600498D01*
X67325246Y-51600498D01*
X67325252Y-51600500D01*
X67325253Y-51600500D01*
X68914747Y-51600500D01*
X68914748Y-51600500D01*
X68973231Y-51588867D01*
X69039552Y-51544552D01*
X69083867Y-51478231D01*
X69095500Y-51419748D01*
X69095500Y-51199500D01*
X69114407Y-51141309D01*
X69163907Y-51105345D01*
X69194500Y-51100500D01*
X75005500Y-51100500D01*
X75063691Y-51119407D01*
X75099655Y-51168907D01*
X75104500Y-51199500D01*
X75104500Y-51419746D01*
X75104501Y-51419758D01*
X75116132Y-51478227D01*
X75116134Y-51478233D01*
X75160445Y-51544548D01*
X75160448Y-51544552D01*
X75226769Y-51588867D01*
X75271231Y-51597711D01*
X75285241Y-51600498D01*
X75285246Y-51600498D01*
X75285252Y-51600500D01*
X76400500Y-51600500D01*
X76458691Y-51619407D01*
X76494655Y-51668907D01*
X76499500Y-51699500D01*
X76499500Y-54725573D01*
X76499501Y-54725590D01*
X76499501Y-54757584D01*
X76500733Y-54761780D01*
X76531947Y-54868084D01*
X76594211Y-54964968D01*
X76681248Y-55040385D01*
X76777495Y-55084340D01*
X76786006Y-55088227D01*
X76899997Y-55104617D01*
X76900000Y-55104617D01*
X76900003Y-55104617D01*
X76985495Y-55092324D01*
X77013994Y-55088227D01*
X77118752Y-55040385D01*
X77205789Y-54964968D01*
X77268053Y-54868084D01*
X77300499Y-54757583D01*
X77300499Y-54725590D01*
X77300500Y-54725573D01*
X77300500Y-53073402D01*
X85739500Y-53073402D01*
X85776360Y-53198935D01*
X85780857Y-53214250D01*
X85860222Y-53337744D01*
X85971164Y-53433877D01*
X86104696Y-53494859D01*
X86104697Y-53494859D01*
X86104699Y-53494860D01*
X86213479Y-53510500D01*
X86213484Y-53510500D01*
X86286521Y-53510500D01*
X86395300Y-53494860D01*
X86395301Y-53494859D01*
X86395304Y-53494859D01*
X86528836Y-53433877D01*
X86639778Y-53337744D01*
X86719143Y-53214250D01*
X86760500Y-53073399D01*
X86760500Y-52926601D01*
X86758305Y-52919127D01*
X86729861Y-52822253D01*
X86719143Y-52785750D01*
X86639778Y-52662256D01*
X86528836Y-52566123D01*
X86395304Y-52505141D01*
X86395300Y-52505139D01*
X86286521Y-52489500D01*
X86286516Y-52489500D01*
X86213484Y-52489500D01*
X86213479Y-52489500D01*
X86104699Y-52505139D01*
X85971164Y-52566123D01*
X85860222Y-52662256D01*
X85780857Y-52785749D01*
X85780856Y-52785752D01*
X85739500Y-52926597D01*
X85739500Y-53073402D01*
X77300500Y-53073402D01*
X77300500Y-51242416D01*
X77300499Y-51242414D01*
X77288816Y-51202624D01*
X77268053Y-51131915D01*
X77205790Y-51035031D01*
X77118753Y-50959613D01*
X77113372Y-50957155D01*
X77068296Y-50915785D01*
X77055500Y-50867103D01*
X77055500Y-50449500D01*
X77074407Y-50391309D01*
X77123907Y-50355345D01*
X77154500Y-50350500D01*
X78571065Y-50350500D01*
X78591380Y-50352607D01*
X78593528Y-50353057D01*
X78602999Y-50355043D01*
X78636396Y-50350879D01*
X78642521Y-50350500D01*
X78646725Y-50350500D01*
X78657474Y-50348706D01*
X78668224Y-50346912D01*
X78719077Y-50340573D01*
X78719080Y-50340571D01*
X78726113Y-50338477D01*
X78733061Y-50336092D01*
X78733065Y-50336092D01*
X78778128Y-50311704D01*
X78824168Y-50289198D01*
X78830154Y-50284923D01*
X78835940Y-50280420D01*
X78870641Y-50242724D01*
X79775181Y-49338184D01*
X80814884Y-48298480D01*
X80830734Y-48285610D01*
X80840669Y-48279121D01*
X80861338Y-48252563D01*
X80865388Y-48247976D01*
X80868375Y-48244991D01*
X80871530Y-48240572D01*
X80881041Y-48227250D01*
X80905539Y-48195773D01*
X80912517Y-48186810D01*
X80912517Y-48186807D01*
X80916008Y-48180357D01*
X80919237Y-48173753D01*
X80919237Y-48173752D01*
X80919239Y-48173750D01*
X80933856Y-48124650D01*
X80950500Y-48076172D01*
X80950500Y-48076168D01*
X80951706Y-48068943D01*
X80952617Y-48061638D01*
X80950500Y-48010453D01*
X80950500Y-44386189D01*
X80969407Y-44327998D01*
X80979490Y-44316191D01*
X81639627Y-43656054D01*
X84494353Y-43656054D01*
X84494500Y-43658108D01*
X84494500Y-43900999D01*
X84496504Y-43926456D01*
X84497030Y-43933141D01*
X84497030Y-43933142D01*
X84501875Y-43963737D01*
X84502647Y-43968283D01*
X84502647Y-43968284D01*
X84538591Y-44052381D01*
X84538592Y-44052382D01*
X84574556Y-44101882D01*
X84598797Y-44129627D01*
X84677307Y-44176535D01*
X84735498Y-44195442D01*
X84799000Y-44205499D01*
X88501000Y-44205498D01*
X88533144Y-44202968D01*
X88548440Y-44200545D01*
X88563738Y-44198123D01*
X88564874Y-44197929D01*
X88568287Y-44197350D01*
X88652383Y-44161406D01*
X88701883Y-44125442D01*
X88729628Y-44101201D01*
X88776536Y-44022691D01*
X88795443Y-43964500D01*
X88805500Y-43900998D01*
X88805500Y-41299001D01*
X88802970Y-41266857D01*
X88798125Y-41236264D01*
X88797352Y-41231714D01*
X88761408Y-41147618D01*
X88761408Y-41147617D01*
X88761406Y-41147614D01*
X88725450Y-41098126D01*
X88725448Y-41098124D01*
X88725444Y-41098118D01*
X88701205Y-41070374D01*
X88681888Y-41058832D01*
X88622696Y-41023466D01*
X88564507Y-41004558D01*
X88501003Y-40994500D01*
X84799002Y-40994500D01*
X84799001Y-40994500D01*
X84798999Y-40994500D01*
X84766854Y-40997030D01*
X84748101Y-41000000D01*
X84736261Y-41001875D01*
X84731715Y-41002647D01*
X84731707Y-41002649D01*
X84647617Y-41038591D01*
X84598118Y-41074555D01*
X84570372Y-41098797D01*
X84523464Y-41177307D01*
X84523462Y-41177310D01*
X84504556Y-41235499D01*
X84494500Y-41298996D01*
X84494500Y-41541903D01*
X84494353Y-41543960D01*
X84494353Y-41556053D01*
X84494500Y-41558109D01*
X84494500Y-42241903D01*
X84494353Y-42243960D01*
X84494353Y-42256054D01*
X84494500Y-42258108D01*
X84494500Y-42941903D01*
X84494353Y-42943960D01*
X84494353Y-42956053D01*
X84494500Y-42958109D01*
X84494500Y-43641903D01*
X84494353Y-43643960D01*
X84494353Y-43656054D01*
X81639627Y-43656054D01*
X84816186Y-40479496D01*
X84870703Y-40451719D01*
X84886190Y-40450500D01*
X89413810Y-40450500D01*
X89472001Y-40469407D01*
G37*
%TD.AperFunction*%
%TA.AperFunction,Conductor*%
G36*
X112942755Y-49857243D02*
G01*
X112962566Y-49861183D01*
X112968814Y-49862858D01*
X113111027Y-49911133D01*
X113185569Y-49936437D01*
X113191544Y-49938911D01*
X113396838Y-50040151D01*
X113402446Y-50043388D01*
X113457616Y-50080252D01*
X113592766Y-50170557D01*
X113597908Y-50174503D01*
X113673084Y-50240430D01*
X113770000Y-50325422D01*
X113774577Y-50329999D01*
X113828344Y-50391309D01*
X113925496Y-50502091D01*
X113929442Y-50507233D01*
X114056610Y-50697552D01*
X114059851Y-50703166D01*
X114140695Y-50867103D01*
X114161082Y-50908442D01*
X114163562Y-50914430D01*
X114237139Y-51131177D01*
X114238816Y-51137438D01*
X114283471Y-51361934D01*
X114284317Y-51368360D01*
X114299393Y-51598381D01*
X114299499Y-51601619D01*
X114299499Y-54379806D01*
X114299500Y-54379811D01*
X114299500Y-54398379D01*
X114299394Y-54401618D01*
X114284317Y-54631639D01*
X114283471Y-54638065D01*
X114238816Y-54862561D01*
X114237139Y-54868822D01*
X114163562Y-55085569D01*
X114161082Y-55091557D01*
X114059851Y-55296833D01*
X114056610Y-55302447D01*
X113929442Y-55492766D01*
X113925496Y-55497908D01*
X113774580Y-55669997D01*
X113769997Y-55674580D01*
X113597908Y-55825496D01*
X113592766Y-55829442D01*
X113402447Y-55956610D01*
X113396833Y-55959851D01*
X113191557Y-56061082D01*
X113185569Y-56063562D01*
X112968822Y-56137139D01*
X112962561Y-56138816D01*
X112738065Y-56183471D01*
X112731639Y-56184317D01*
X112520355Y-56198165D01*
X112501616Y-56199394D01*
X112498379Y-56199500D01*
X100936741Y-56199500D01*
X100878550Y-56180593D01*
X100842586Y-56131093D01*
X100842586Y-56069907D01*
X100878550Y-56020407D01*
X100898855Y-56009036D01*
X101012769Y-55961851D01*
X101190833Y-55888094D01*
X101505452Y-55714211D01*
X101798623Y-55506194D01*
X102066661Y-55266661D01*
X102306194Y-54998623D01*
X102514211Y-54705452D01*
X102514214Y-54705445D01*
X102515692Y-54703096D01*
X102516518Y-54703615D01*
X102558532Y-54664323D01*
X102619251Y-54656780D01*
X102672807Y-54686367D01*
X102698745Y-54741782D01*
X102699500Y-54753988D01*
X102699500Y-54757584D01*
X102731946Y-54868085D01*
X102794210Y-54964969D01*
X102881247Y-55040386D01*
X102970237Y-55081027D01*
X102986005Y-55088228D01*
X103099996Y-55104618D01*
X103099999Y-55104618D01*
X103100002Y-55104618D01*
X103211134Y-55088639D01*
X103213993Y-55088228D01*
X103318751Y-55040386D01*
X103405788Y-54964969D01*
X103468052Y-54868085D01*
X103500498Y-54757584D01*
X103500498Y-54725599D01*
X103500500Y-54725566D01*
X103500500Y-51699500D01*
X103519407Y-51641309D01*
X103568907Y-51605345D01*
X103599500Y-51600500D01*
X104714747Y-51600500D01*
X104714748Y-51600500D01*
X104773231Y-51588867D01*
X104839552Y-51544552D01*
X104883867Y-51478231D01*
X104895500Y-51419748D01*
X104895499Y-51199500D01*
X104914407Y-51141309D01*
X104963907Y-51105345D01*
X104994500Y-51100500D01*
X110805500Y-51100500D01*
X110863691Y-51119407D01*
X110899655Y-51168907D01*
X110904500Y-51199500D01*
X110904500Y-51419746D01*
X110904501Y-51419758D01*
X110916132Y-51478227D01*
X110916134Y-51478233D01*
X110960445Y-51544548D01*
X110960448Y-51544552D01*
X111026769Y-51588867D01*
X111071231Y-51597711D01*
X111085241Y-51600498D01*
X111085246Y-51600498D01*
X111085252Y-51600500D01*
X111085253Y-51600500D01*
X112674747Y-51600500D01*
X112674748Y-51600500D01*
X112733231Y-51588867D01*
X112799552Y-51544552D01*
X112843867Y-51478231D01*
X112855500Y-51419748D01*
X112855500Y-50080252D01*
X112843867Y-50021769D01*
X112834711Y-50008066D01*
X112818102Y-49949180D01*
X112839278Y-49891776D01*
X112890151Y-49857783D01*
X112936339Y-49855967D01*
X112942755Y-49857243D01*
G37*
%TD.AperFunction*%
%TA.AperFunction,Conductor*%
G36*
X94821651Y-47071261D02*
G01*
X94848524Y-47126230D01*
X94849500Y-47140098D01*
X94849499Y-48513810D01*
X94830592Y-48572001D01*
X94820503Y-48583813D01*
X94733814Y-48670503D01*
X94679298Y-48698281D01*
X94663810Y-48699500D01*
X92722018Y-48699500D01*
X92663827Y-48680593D01*
X92648597Y-48664589D01*
X92647754Y-48665366D01*
X92642200Y-48659332D01*
X92615646Y-48638665D01*
X92611044Y-48634601D01*
X92608068Y-48631625D01*
X92590321Y-48618954D01*
X92549889Y-48587484D01*
X92543438Y-48583993D01*
X92536829Y-48580761D01*
X92536827Y-48580760D01*
X92487715Y-48566138D01*
X92439249Y-48549500D01*
X92439246Y-48549499D01*
X92432021Y-48548293D01*
X92424716Y-48547383D01*
X92424715Y-48547383D01*
X92424713Y-48547383D01*
X92373530Y-48549500D01*
X90589542Y-48549500D01*
X90531351Y-48530593D01*
X90495387Y-48481093D01*
X90495387Y-48419907D01*
X90514720Y-48385670D01*
X90525377Y-48373373D01*
X90555061Y-48308373D01*
X90596434Y-48263296D01*
X90645115Y-48250500D01*
X90856512Y-48250500D01*
X91390252Y-48250500D01*
X91626512Y-48250500D01*
X92234142Y-48250500D01*
X92254457Y-48252607D01*
X92256605Y-48253057D01*
X92266076Y-48255043D01*
X92299473Y-48250879D01*
X92305598Y-48250500D01*
X92309802Y-48250500D01*
X92326411Y-48247728D01*
X92331301Y-48246912D01*
X92382154Y-48240573D01*
X92382157Y-48240571D01*
X92389190Y-48238477D01*
X92396138Y-48236092D01*
X92396142Y-48236092D01*
X92441205Y-48211704D01*
X92487245Y-48189198D01*
X92493231Y-48184923D01*
X92499017Y-48180420D01*
X92533718Y-48142724D01*
X92718899Y-47957543D01*
X92914884Y-47761557D01*
X92930734Y-47748687D01*
X92940669Y-47742198D01*
X92961338Y-47715640D01*
X92965388Y-47711053D01*
X92968375Y-47708068D01*
X92981044Y-47690323D01*
X93012517Y-47649887D01*
X93012519Y-47649879D01*
X93016021Y-47643410D01*
X93019238Y-47636829D01*
X93019237Y-47636829D01*
X93019239Y-47636828D01*
X93033858Y-47587723D01*
X93050500Y-47539249D01*
X93050500Y-47539248D01*
X93051706Y-47532020D01*
X93052617Y-47524715D01*
X93050500Y-47473530D01*
X93050500Y-47186742D01*
X93069407Y-47128551D01*
X93118907Y-47092587D01*
X93165592Y-47092253D01*
X93165999Y-47089464D01*
X93173605Y-47090572D01*
X93173607Y-47090573D01*
X93241740Y-47100500D01*
X93241743Y-47100500D01*
X94558257Y-47100500D01*
X94558260Y-47100500D01*
X94626393Y-47090573D01*
X94707020Y-47051156D01*
X94767601Y-47042586D01*
X94821651Y-47071261D01*
G37*
%TD.AperFunction*%
%TA.AperFunction,Conductor*%
G36*
X91193475Y-39219407D02*
G01*
X91229439Y-39268907D01*
X91229439Y-39330093D01*
X91193475Y-39379593D01*
X91186334Y-39384322D01*
X91118678Y-39425029D01*
X91096872Y-39438150D01*
X90966357Y-39561780D01*
X90865470Y-39710578D01*
X90798930Y-39877582D01*
X90798930Y-39877585D01*
X90769845Y-40054989D01*
X90779578Y-40234502D01*
X90803987Y-40322416D01*
X90827673Y-40407723D01*
X90896444Y-40537438D01*
X90911883Y-40566559D01*
X91028263Y-40703572D01*
X91028265Y-40703574D01*
X91171382Y-40812369D01*
X91334541Y-40887854D01*
X91510113Y-40926500D01*
X91510117Y-40926500D01*
X91644816Y-40926500D01*
X91778721Y-40911937D01*
X91949085Y-40854535D01*
X92103126Y-40761851D01*
X92233642Y-40638220D01*
X92334529Y-40489423D01*
X92401070Y-40322416D01*
X92430155Y-40145010D01*
X92420422Y-39965499D01*
X92372327Y-39792277D01*
X92288119Y-39633444D01*
X92234702Y-39570557D01*
X92171736Y-39496427D01*
X92171735Y-39496426D01*
X92099596Y-39441587D01*
X92028618Y-39387631D01*
X92028617Y-39387630D01*
X92028615Y-39387629D01*
X92024024Y-39384867D01*
X92025265Y-39382802D01*
X91987453Y-39347746D01*
X91975606Y-39287718D01*
X92001304Y-39232191D01*
X92054732Y-39202374D01*
X92073902Y-39200500D01*
X98360118Y-39200500D01*
X98398379Y-39200500D01*
X98401617Y-39200606D01*
X98631645Y-39215682D01*
X98638063Y-39216527D01*
X98701890Y-39229223D01*
X98862561Y-39261183D01*
X98868814Y-39262858D01*
X99014011Y-39312146D01*
X99085569Y-39336437D01*
X99091544Y-39338911D01*
X99296838Y-39440151D01*
X99302447Y-39443389D01*
X99492766Y-39570557D01*
X99497908Y-39574503D01*
X99565114Y-39633440D01*
X99670000Y-39725422D01*
X99674577Y-39729999D01*
X99700385Y-39759427D01*
X99825496Y-39902091D01*
X99829442Y-39907233D01*
X99956610Y-40097552D01*
X99959851Y-40103166D01*
X100024618Y-40234502D01*
X100061082Y-40308442D01*
X100063562Y-40314430D01*
X100137139Y-40531177D01*
X100138816Y-40537438D01*
X100183471Y-40761934D01*
X100184317Y-40768360D01*
X100199394Y-40998381D01*
X100199500Y-41001620D01*
X100199500Y-47733100D01*
X100199501Y-47733117D01*
X100231586Y-47997365D01*
X100231588Y-47997380D01*
X100263117Y-48125296D01*
X100258685Y-48186321D01*
X100219230Y-48233085D01*
X100159823Y-48247728D01*
X100103155Y-48224655D01*
X100096990Y-48218992D01*
X99479496Y-47601497D01*
X99451719Y-47546980D01*
X99450500Y-47531493D01*
X99450500Y-45146613D01*
X99452607Y-45126297D01*
X99455042Y-45114685D01*
X99450879Y-45081294D01*
X99450500Y-45075168D01*
X99450500Y-45070954D01*
X99446911Y-45049449D01*
X99443290Y-45020407D01*
X99440573Y-44998607D01*
X99440571Y-44998604D01*
X99438477Y-44991569D01*
X99436091Y-44984616D01*
X99411704Y-44939554D01*
X99389198Y-44893515D01*
X99384948Y-44887562D01*
X99380418Y-44881742D01*
X99342724Y-44847041D01*
X95880801Y-41385119D01*
X95867925Y-41369262D01*
X95861437Y-41359331D01*
X95834885Y-41338665D01*
X95830283Y-41334601D01*
X95827307Y-41331625D01*
X95809560Y-41318954D01*
X95769128Y-41287484D01*
X95762677Y-41283993D01*
X95756068Y-41280761D01*
X95756066Y-41280760D01*
X95706954Y-41266138D01*
X95658488Y-41249500D01*
X95658485Y-41249499D01*
X95651260Y-41248293D01*
X95643955Y-41247383D01*
X95643954Y-41247383D01*
X95643952Y-41247383D01*
X95592769Y-41249500D01*
X94861188Y-41249500D01*
X94802997Y-41230593D01*
X94791190Y-41220509D01*
X94731483Y-41160802D01*
X94704515Y-41147618D01*
X94626395Y-41109427D01*
X94599139Y-41105456D01*
X94558260Y-41099500D01*
X93241740Y-41099500D01*
X93207673Y-41104463D01*
X93173604Y-41109427D01*
X93068518Y-41160801D01*
X92985801Y-41243518D01*
X92934427Y-41348604D01*
X92930165Y-41377861D01*
X92924500Y-41416740D01*
X92924500Y-41783260D01*
X92931118Y-41828681D01*
X92934427Y-41851395D01*
X92982877Y-41950500D01*
X92985802Y-41956483D01*
X93059317Y-42029998D01*
X93087093Y-42084513D01*
X93077522Y-42144945D01*
X93059318Y-42170000D01*
X93008813Y-42220505D01*
X92954299Y-42248281D01*
X92938812Y-42249500D01*
X92286190Y-42249500D01*
X92227999Y-42230593D01*
X92216186Y-42220504D01*
X89880801Y-39885119D01*
X89867925Y-39869262D01*
X89861437Y-39859331D01*
X89834885Y-39838665D01*
X89830283Y-39834601D01*
X89827307Y-39831625D01*
X89809560Y-39818954D01*
X89769128Y-39787484D01*
X89762677Y-39783993D01*
X89756068Y-39780761D01*
X89756066Y-39780760D01*
X89706954Y-39766138D01*
X89658488Y-39749500D01*
X89658485Y-39749499D01*
X89651260Y-39748293D01*
X89643955Y-39747383D01*
X89643954Y-39747383D01*
X89643952Y-39747383D01*
X89592769Y-39749500D01*
X84746619Y-39749500D01*
X84726304Y-39747393D01*
X84714686Y-39744957D01*
X84714685Y-39744957D01*
X84681287Y-39749120D01*
X84675163Y-39749500D01*
X84670959Y-39749500D01*
X84649457Y-39753088D01*
X84598608Y-39759427D01*
X84591538Y-39761532D01*
X84584619Y-39763907D01*
X84539545Y-39788300D01*
X84493518Y-39810801D01*
X84487534Y-39815073D01*
X84481742Y-39819581D01*
X84447031Y-39857287D01*
X80385118Y-43919198D01*
X80369265Y-43932071D01*
X80359335Y-43938559D01*
X80359332Y-43938561D01*
X80338664Y-43965114D01*
X80334605Y-43969712D01*
X80331619Y-43972698D01*
X80318955Y-43990437D01*
X80287483Y-44030874D01*
X80283981Y-44037343D01*
X80280758Y-44043936D01*
X80266138Y-44093045D01*
X80249499Y-44141512D01*
X80248293Y-44148743D01*
X80247383Y-44156047D01*
X80249500Y-44207231D01*
X80249500Y-47831493D01*
X80230593Y-47889684D01*
X80220503Y-47901497D01*
X79903008Y-48218991D01*
X79848492Y-48246768D01*
X79788060Y-48237197D01*
X79744795Y-48193932D01*
X79735224Y-48133500D01*
X79736882Y-48125296D01*
X79768412Y-47997376D01*
X79800500Y-47733106D01*
X79800500Y-47600000D01*
X79800500Y-47560118D01*
X79800500Y-41001619D01*
X79800606Y-40998382D01*
X79807850Y-40887854D01*
X79815683Y-40768352D01*
X79816528Y-40761934D01*
X79841137Y-40638219D01*
X79861183Y-40537438D01*
X79862856Y-40531188D01*
X79936438Y-40314427D01*
X79938909Y-40308460D01*
X80040154Y-40103154D01*
X80043384Y-40097560D01*
X80170561Y-39907227D01*
X80174503Y-39902091D01*
X80203293Y-39869262D01*
X80325429Y-39729991D01*
X80329991Y-39725429D01*
X80502094Y-39574499D01*
X80507227Y-39570561D01*
X80697560Y-39443384D01*
X80703154Y-39440154D01*
X80908460Y-39338909D01*
X80914427Y-39336438D01*
X81131188Y-39262856D01*
X81137438Y-39261183D01*
X81201263Y-39248487D01*
X81361938Y-39216527D01*
X81368352Y-39215683D01*
X81598382Y-39200606D01*
X81601621Y-39200500D01*
X81639882Y-39200500D01*
X91135284Y-39200500D01*
X91193475Y-39219407D01*
G37*
%TD.AperFunction*%
%TD*%
%TA.AperFunction,Conductor*%
%TO.N,VBUS*%
G36*
X92059191Y-51718907D02*
G01*
X92095155Y-51768407D01*
X92100000Y-51799000D01*
X92100000Y-54201000D01*
X92081093Y-54259191D01*
X92031593Y-54295155D01*
X92001000Y-54300000D01*
X91199500Y-54300000D01*
X91141309Y-54281093D01*
X91105345Y-54231593D01*
X91100500Y-54201000D01*
X91100500Y-53410253D01*
X91100238Y-53407592D01*
X91100000Y-53402739D01*
X91100000Y-52597255D01*
X91100239Y-52592398D01*
X91100500Y-52589747D01*
X91100500Y-51799000D01*
X91119407Y-51740809D01*
X91168907Y-51704845D01*
X91199500Y-51700000D01*
X92001000Y-51700000D01*
X92059191Y-51718907D01*
G37*
%TD.AperFunction*%
%TD*%
%TA.AperFunction,Conductor*%
%TO.N,VBUS*%
G36*
X88501002Y-41200001D02*
G01*
X88559191Y-41218908D01*
X88595155Y-41268408D01*
X88600000Y-41299001D01*
X88600000Y-43900998D01*
X88581093Y-43959189D01*
X88531593Y-43995153D01*
X88501000Y-43999998D01*
X84799000Y-43999999D01*
X84740809Y-43981092D01*
X84704845Y-43931592D01*
X84700000Y-43900999D01*
X84700000Y-41299000D01*
X84718907Y-41240809D01*
X84768407Y-41204845D01*
X84798999Y-41200000D01*
X88501002Y-41200001D01*
G37*
%TD.AperFunction*%
%TD*%
%TA.AperFunction,Conductor*%
%TO.N,VBUS*%
G36*
X88858691Y-51718907D02*
G01*
X88894655Y-51768407D01*
X88899500Y-51799000D01*
X88899500Y-52589747D01*
X88899761Y-52592398D01*
X88900000Y-52597255D01*
X88900000Y-53402739D01*
X88899762Y-53407592D01*
X88899500Y-53410253D01*
X88899500Y-54201000D01*
X88880593Y-54259191D01*
X88831093Y-54295155D01*
X88800500Y-54300000D01*
X87999000Y-54300000D01*
X87940809Y-54281093D01*
X87904845Y-54231593D01*
X87900000Y-54201000D01*
X87900000Y-51799000D01*
X87918907Y-51740809D01*
X87968407Y-51704845D01*
X87999000Y-51700000D01*
X88800500Y-51700000D01*
X88858691Y-51718907D01*
G37*
%TD.AperFunction*%
%TD*%
M02*
