%TF.GenerationSoftware,KiCad,Pcbnew,7.0.6*%
%TF.CreationDate,2023-07-26T14:32:06+01:00*%
%TF.ProjectId,Galia,47616c69-612e-46b6-9963-61645f706362,V1.0*%
%TF.SameCoordinates,Original*%
%TF.FileFunction,Legend,Bot*%
%TF.FilePolarity,Positive*%
%FSLAX46Y46*%
G04 Gerber Fmt 4.6, Leading zero omitted, Abs format (unit mm)*
G04 Created by KiCad (PCBNEW 7.0.6) date 2023-07-26 14:32:06*
%MOMM*%
%LPD*%
G01*
G04 APERTURE LIST*
G04 Aperture macros list*
%AMRoundRect*
0 Rectangle with rounded corners*
0 $1 Rounding radius*
0 $2 $3 $4 $5 $6 $7 $8 $9 X,Y pos of 4 corners*
0 Add a 4 corners polygon primitive as box body*
4,1,4,$2,$3,$4,$5,$6,$7,$8,$9,$2,$3,0*
0 Add four circle primitives for the rounded corners*
1,1,$1+$1,$2,$3*
1,1,$1+$1,$4,$5*
1,1,$1+$1,$6,$7*
1,1,$1+$1,$8,$9*
0 Add four rect primitives between the rounded corners*
20,1,$1+$1,$2,$3,$4,$5,0*
20,1,$1+$1,$4,$5,$6,$7,0*
20,1,$1+$1,$6,$7,$8,$9,0*
20,1,$1+$1,$8,$9,$2,$3,0*%
G04 Aperture macros list end*
%ADD10C,0.150000*%
%ADD11C,0.120000*%
%ADD12C,0.200000*%
%ADD13C,1.152000*%
%ADD14C,6.000000*%
%ADD15R,0.550000X0.300000*%
%ADD16R,1.550000X1.300000*%
%ADD17RoundRect,0.150000X0.625000X-0.150000X0.625000X0.150000X-0.625000X0.150000X-0.625000X-0.150000X0*%
%ADD18RoundRect,0.250000X0.650000X-0.350000X0.650000X0.350000X-0.650000X0.350000X-0.650000X-0.350000X0*%
%ADD19RoundRect,0.150000X-0.625000X0.150000X-0.625000X-0.150000X0.625000X-0.150000X0.625000X0.150000X0*%
%ADD20RoundRect,0.250000X-0.650000X0.350000X-0.650000X-0.350000X0.650000X-0.350000X0.650000X0.350000X0*%
%ADD21C,0.520000*%
%ADD22R,0.300000X0.870000*%
%ADD23O,2.200000X1.100000*%
%ADD24RoundRect,0.150000X0.200000X-0.150000X0.200000X0.150000X-0.200000X0.150000X-0.200000X-0.150000X0*%
G04 APERTURE END LIST*
D10*
X92061904Y-45654819D02*
X92061904Y-46464342D01*
X92061904Y-46464342D02*
X92014285Y-46559580D01*
X92014285Y-46559580D02*
X91966666Y-46607200D01*
X91966666Y-46607200D02*
X91871428Y-46654819D01*
X91871428Y-46654819D02*
X91680952Y-46654819D01*
X91680952Y-46654819D02*
X91585714Y-46607200D01*
X91585714Y-46607200D02*
X91538095Y-46559580D01*
X91538095Y-46559580D02*
X91490476Y-46464342D01*
X91490476Y-46464342D02*
X91490476Y-45654819D01*
X90490476Y-46654819D02*
X91061904Y-46654819D01*
X90776190Y-46654819D02*
X90776190Y-45654819D01*
X90776190Y-45654819D02*
X90871428Y-45797676D01*
X90871428Y-45797676D02*
X90966666Y-45892914D01*
X90966666Y-45892914D02*
X91061904Y-45940533D01*
X84433333Y-48654819D02*
X84433333Y-49369104D01*
X84433333Y-49369104D02*
X84480952Y-49511961D01*
X84480952Y-49511961D02*
X84576190Y-49607200D01*
X84576190Y-49607200D02*
X84719047Y-49654819D01*
X84719047Y-49654819D02*
X84814285Y-49654819D01*
X84004761Y-48750057D02*
X83957142Y-48702438D01*
X83957142Y-48702438D02*
X83861904Y-48654819D01*
X83861904Y-48654819D02*
X83623809Y-48654819D01*
X83623809Y-48654819D02*
X83528571Y-48702438D01*
X83528571Y-48702438D02*
X83480952Y-48750057D01*
X83480952Y-48750057D02*
X83433333Y-48845295D01*
X83433333Y-48845295D02*
X83433333Y-48940533D01*
X83433333Y-48940533D02*
X83480952Y-49083390D01*
X83480952Y-49083390D02*
X84052380Y-49654819D01*
X84052380Y-49654819D02*
X83433333Y-49654819D01*
X96233333Y-49654819D02*
X96233333Y-50369104D01*
X96233333Y-50369104D02*
X96280952Y-50511961D01*
X96280952Y-50511961D02*
X96376190Y-50607200D01*
X96376190Y-50607200D02*
X96519047Y-50654819D01*
X96519047Y-50654819D02*
X96614285Y-50654819D01*
X95852380Y-49654819D02*
X95233333Y-49654819D01*
X95233333Y-49654819D02*
X95566666Y-50035771D01*
X95566666Y-50035771D02*
X95423809Y-50035771D01*
X95423809Y-50035771D02*
X95328571Y-50083390D01*
X95328571Y-50083390D02*
X95280952Y-50131009D01*
X95280952Y-50131009D02*
X95233333Y-50226247D01*
X95233333Y-50226247D02*
X95233333Y-50464342D01*
X95233333Y-50464342D02*
X95280952Y-50559580D01*
X95280952Y-50559580D02*
X95328571Y-50607200D01*
X95328571Y-50607200D02*
X95423809Y-50654819D01*
X95423809Y-50654819D02*
X95709523Y-50654819D01*
X95709523Y-50654819D02*
X95804761Y-50607200D01*
X95804761Y-50607200D02*
X95852380Y-50559580D01*
X90333333Y-49954819D02*
X90333333Y-50669104D01*
X90333333Y-50669104D02*
X90380952Y-50811961D01*
X90380952Y-50811961D02*
X90476190Y-50907200D01*
X90476190Y-50907200D02*
X90619047Y-50954819D01*
X90619047Y-50954819D02*
X90714285Y-50954819D01*
X89333333Y-50954819D02*
X89904761Y-50954819D01*
X89619047Y-50954819D02*
X89619047Y-49954819D01*
X89619047Y-49954819D02*
X89714285Y-50097676D01*
X89714285Y-50097676D02*
X89809523Y-50192914D01*
X89809523Y-50192914D02*
X89904761Y-50240533D01*
X90538094Y-44554819D02*
X90538094Y-43554819D01*
X90538094Y-43554819D02*
X90299999Y-43554819D01*
X90299999Y-43554819D02*
X90157142Y-43602438D01*
X90157142Y-43602438D02*
X90061904Y-43697676D01*
X90061904Y-43697676D02*
X90014285Y-43792914D01*
X90014285Y-43792914D02*
X89966666Y-43983390D01*
X89966666Y-43983390D02*
X89966666Y-44126247D01*
X89966666Y-44126247D02*
X90014285Y-44316723D01*
X90014285Y-44316723D02*
X90061904Y-44411961D01*
X90061904Y-44411961D02*
X90157142Y-44507200D01*
X90157142Y-44507200D02*
X90299999Y-44554819D01*
X90299999Y-44554819D02*
X90538094Y-44554819D01*
X89014285Y-44554819D02*
X89585713Y-44554819D01*
X89299999Y-44554819D02*
X89299999Y-43554819D01*
X89299999Y-43554819D02*
X89395237Y-43697676D01*
X89395237Y-43697676D02*
X89490475Y-43792914D01*
X89490475Y-43792914D02*
X89585713Y-43840533D01*
D11*
%TO.C,U1*%
X90800000Y-49800000D02*
X91800000Y-49800000D01*
X90800000Y-47000000D02*
X92100000Y-47000000D01*
D12*
X92300000Y-47400000D02*
G75*
G03*
X92300000Y-47400000I-100000J0D01*
G01*
D11*
%TO.C,SW2*%
X104670000Y-49770000D02*
X104670000Y-49800000D01*
X104670000Y-49770000D02*
X111130000Y-49770000D01*
X104670000Y-54300000D02*
X104670000Y-51700000D01*
X104670000Y-56200000D02*
X104670000Y-56230000D01*
X104670000Y-56230000D02*
X111130000Y-56230000D01*
X111130000Y-49770000D02*
X111130000Y-49800000D01*
X111130000Y-54300000D02*
X111130000Y-51700000D01*
X111130000Y-56230000D02*
X111130000Y-56200000D01*
%TO.C,SW1*%
X68870000Y-49770000D02*
X68870000Y-49800000D01*
X68870000Y-49770000D02*
X75330000Y-49770000D01*
X68870000Y-54300000D02*
X68870000Y-51700000D01*
X68870000Y-56200000D02*
X68870000Y-56230000D01*
X68870000Y-56230000D02*
X75330000Y-56230000D01*
X75330000Y-49770000D02*
X75330000Y-49800000D01*
X75330000Y-54300000D02*
X75330000Y-51700000D01*
X75330000Y-56230000D02*
X75330000Y-56200000D01*
%TO.C,J2*%
X83385000Y-48210000D02*
X85885000Y-48210000D01*
X85885000Y-48210000D02*
X85885000Y-47160000D01*
X85885000Y-47160000D02*
X86875000Y-47160000D01*
X81415000Y-47040000D02*
X81415000Y-41160000D01*
X83385000Y-39990000D02*
X85885000Y-39990000D01*
X85885000Y-39990000D02*
X85885000Y-41040000D01*
%TO.C,J3*%
X96615000Y-39990000D02*
X94115000Y-39990000D01*
X94115000Y-39990000D02*
X94115000Y-41040000D01*
X94115000Y-41040000D02*
X93125000Y-41040000D01*
X98585000Y-41160000D02*
X98585000Y-48040000D01*
X96615000Y-49210000D02*
X94115000Y-49210000D01*
X94115000Y-49210000D02*
X94115000Y-48160000D01*
%TO.C,J1*%
X85530000Y-51420000D02*
X86250000Y-51420000D01*
X85530000Y-54580000D02*
X85530000Y-51420000D01*
X86250000Y-54580000D02*
X85530000Y-54580000D01*
X93750000Y-54580000D02*
X94470000Y-54580000D01*
X94470000Y-51420000D02*
X93750000Y-51420000D01*
X94470000Y-54580000D02*
X94470000Y-51420000D01*
D12*
X85100000Y-53900000D02*
G75*
G03*
X85100000Y-53900000I-100000J0D01*
G01*
D11*
%TO.C,D1*%
X87600000Y-42840000D02*
X88800000Y-42840000D01*
X88800000Y-44800000D02*
X88800000Y-42840000D01*
X87600000Y-44800000D02*
X87600000Y-42840000D01*
%TD*%
%LPC*%
D13*
%TO.C,H5*%
X96400000Y-55300000D03*
%TD*%
%TO.C,H4*%
X91600000Y-40100000D03*
%TD*%
%TO.C,H3*%
X83600000Y-55300000D03*
%TD*%
D14*
%TO.C,H1*%
X99800000Y-53000000D03*
%TD*%
%TO.C,H2*%
X80200000Y-53000000D03*
%TD*%
D15*
%TO.C,U1*%
X91685000Y-47400000D03*
X91685000Y-47900000D03*
X91685000Y-48400000D03*
X91685000Y-48900000D03*
X91685000Y-49400000D03*
X90915000Y-49400000D03*
X90915000Y-48900000D03*
X90915000Y-48400000D03*
X90915000Y-47900000D03*
X90915000Y-47400000D03*
%TD*%
D16*
%TO.C,SW2*%
X103920000Y-55250000D03*
X111880000Y-55250000D03*
X103920000Y-50750000D03*
X111880000Y-50750000D03*
%TD*%
%TO.C,SW1*%
X68120000Y-55250000D03*
X76080000Y-55250000D03*
X68120000Y-50750000D03*
X76080000Y-50750000D03*
%TD*%
D17*
%TO.C,J2*%
X86100000Y-46600000D03*
X86100000Y-45600000D03*
X86100000Y-44600000D03*
X86100000Y-43600000D03*
X86100000Y-42600000D03*
X86100000Y-41600000D03*
D18*
X82225000Y-47900000D03*
X82225000Y-40300000D03*
%TD*%
D19*
%TO.C,J3*%
X93900000Y-41600000D03*
X93900000Y-42600000D03*
X93900000Y-43600000D03*
X93900000Y-44600000D03*
X93900000Y-45600000D03*
X93900000Y-46600000D03*
X93900000Y-47600000D03*
D20*
X97775000Y-40300000D03*
X97775000Y-48900000D03*
%TD*%
D21*
%TO.C,J1*%
X86250000Y-53000000D03*
X93750000Y-53000000D03*
D22*
X87250000Y-53865000D03*
X88750000Y-53865000D03*
X89250000Y-53865000D03*
X89750000Y-53865000D03*
X90250000Y-53865000D03*
X90750000Y-53865000D03*
X91250000Y-53865000D03*
X92750000Y-53865000D03*
X92750000Y-52135000D03*
X91250000Y-52135000D03*
X90750000Y-52135000D03*
X90250000Y-52135000D03*
X89750000Y-52135000D03*
X89250000Y-52135000D03*
X88750000Y-52135000D03*
X87250000Y-52135000D03*
D23*
X87600000Y-50850000D03*
X87600000Y-55150000D03*
X92400000Y-50850000D03*
X92400000Y-55150000D03*
%TD*%
D24*
%TO.C,D1*%
X88200000Y-43400000D03*
X88200000Y-44800000D03*
%TD*%
%LPD*%
M02*
