%TF.GenerationSoftware,KiCad,Pcbnew,7.0.6*%
%TF.CreationDate,2023-07-14T18:39:08+01:00*%
%TF.ProjectId,Galia,47616c69-612e-46b6-9963-61645f706362,V1.0*%
%TF.SameCoordinates,Original*%
%TF.FileFunction,Copper,L2,Bot*%
%TF.FilePolarity,Positive*%
%FSLAX46Y46*%
G04 Gerber Fmt 4.6, Leading zero omitted, Abs format (unit mm)*
G04 Created by KiCad (PCBNEW 7.0.6) date 2023-07-14 18:39:08*
%MOMM*%
%LPD*%
G01*
G04 APERTURE LIST*
%TA.AperFunction,ComponentPad*%
%ADD10C,5.600000*%
%TD*%
%TA.AperFunction,ComponentPad*%
%ADD11O,2.200000X1.100000*%
%TD*%
%TA.AperFunction,ViaPad*%
%ADD12C,0.600000*%
%TD*%
%TA.AperFunction,ViaPad*%
%ADD13C,0.500000*%
%TD*%
%TA.AperFunction,Conductor*%
%ADD14C,0.300000*%
%TD*%
G04 APERTURE END LIST*
D10*
%TO.P,H1,1*%
%TO.N,N/C*%
X65800000Y-53000000D03*
%TD*%
%TO.P,H2,1,1*%
%TO.N,GND*%
X114200000Y-53000000D03*
%TD*%
D11*
%TO.P,J1,S1,SHIELD*%
%TO.N,GND*%
X92400000Y-55150000D03*
X92400000Y-50850000D03*
X87600000Y-55150000D03*
X87600000Y-50850000D03*
%TD*%
D12*
%TO.N,VBUS*%
X94100000Y-49900000D03*
X88200000Y-53000000D03*
X85900000Y-49900000D03*
X83950000Y-45500000D03*
X94900000Y-49900000D03*
X85100000Y-49100000D03*
X84750000Y-45500000D03*
X91800000Y-53800000D03*
X86350000Y-45500000D03*
X88200000Y-53800000D03*
X88200000Y-52200000D03*
X91800000Y-53000000D03*
X86350000Y-47100000D03*
X91800000Y-52200000D03*
X85100000Y-49900000D03*
X84750000Y-47100000D03*
X85550000Y-45500000D03*
X85550000Y-47100000D03*
X94900000Y-49100000D03*
X83950000Y-47100000D03*
%TO.N,GND*%
X82850000Y-47100000D03*
X102000000Y-51800000D03*
X87250000Y-53000000D03*
X87900000Y-49600000D03*
X92100000Y-48800000D03*
X92750000Y-53000000D03*
X80450000Y-47100000D03*
X81250000Y-45500000D03*
X110000000Y-51800000D03*
X82050000Y-47100000D03*
X92100000Y-49600000D03*
X70000000Y-54200000D03*
X82050000Y-45500000D03*
X87900000Y-48800000D03*
X81250000Y-47100000D03*
X90000000Y-47500000D03*
X82850000Y-45500000D03*
X78000000Y-54200000D03*
X80450000Y-45500000D03*
D13*
%TO.N,CC1*%
X91017406Y-50110187D03*
X90750000Y-54900000D03*
%TO.N,/D-*%
X89750000Y-54900000D03*
X90200753Y-50106627D03*
D12*
%TO.N,CC2*%
X88500000Y-45500000D03*
D13*
X88500000Y-47900000D03*
%TD*%
D14*
%TO.N,CC1*%
X90750000Y-50377593D02*
X91017406Y-50110187D01*
X90750000Y-54900000D02*
X90750000Y-50377593D01*
%TO.N,/D-*%
X89750000Y-54900000D02*
X89750000Y-50557380D01*
X89750000Y-50557380D02*
X90200753Y-50106627D01*
%TO.N,CC2*%
X88500000Y-45500000D02*
X88500000Y-47900000D01*
%TD*%
%TA.AperFunction,Conductor*%
%TO.N,GND*%
G36*
X83253691Y-43119407D02*
G01*
X83289655Y-43168907D01*
X83294500Y-43199499D01*
X83294500Y-43199500D01*
X83294500Y-53033572D01*
X83294500Y-54201000D01*
X83297030Y-54233142D01*
X83297030Y-54233143D01*
X83301875Y-54263738D01*
X83302647Y-54268284D01*
X83302647Y-54268286D01*
X83338591Y-54352382D01*
X83338592Y-54352383D01*
X83374556Y-54401883D01*
X83398797Y-54429628D01*
X83477307Y-54476536D01*
X83535498Y-54495443D01*
X83547552Y-54497352D01*
X83598996Y-54505500D01*
X83599000Y-54505500D01*
X88500996Y-54505500D01*
X88501000Y-54505500D01*
X88533144Y-54502970D01*
X88548440Y-54500547D01*
X88563738Y-54498125D01*
X88564874Y-54497931D01*
X88568287Y-54497352D01*
X88652383Y-54461408D01*
X88701883Y-54425444D01*
X88729628Y-54401203D01*
X88776536Y-54322693D01*
X88795443Y-54264502D01*
X88805500Y-54201000D01*
X88805500Y-51799000D01*
X88802970Y-51766856D01*
X88798125Y-51736263D01*
X88797352Y-51731713D01*
X88761408Y-51647617D01*
X88725444Y-51598117D01*
X88701203Y-51570372D01*
X88622693Y-51523464D01*
X88622691Y-51523463D01*
X88622689Y-51523462D01*
X88564499Y-51504556D01*
X88564500Y-51504556D01*
X88501003Y-51494500D01*
X88501000Y-51494500D01*
X86504500Y-51494500D01*
X86446309Y-51475593D01*
X86410345Y-51426093D01*
X86405500Y-51395500D01*
X86405500Y-49908109D01*
X86405647Y-49906053D01*
X86405647Y-49893960D01*
X86405500Y-49891903D01*
X86405500Y-47704500D01*
X86424407Y-47646309D01*
X86473907Y-47610345D01*
X86504500Y-47605500D01*
X86700996Y-47605500D01*
X86701000Y-47605500D01*
X86733144Y-47602970D01*
X86751898Y-47600000D01*
X86763738Y-47598125D01*
X86764874Y-47597931D01*
X86768287Y-47597352D01*
X86852383Y-47561408D01*
X86901883Y-47525444D01*
X86929628Y-47501203D01*
X86976536Y-47422693D01*
X86995443Y-47364502D01*
X87005500Y-47301000D01*
X87005500Y-45304499D01*
X87024407Y-45246309D01*
X87073907Y-45210345D01*
X87104500Y-45205500D01*
X87930224Y-45205500D01*
X87988415Y-45224407D01*
X88024379Y-45273907D01*
X88024379Y-45335093D01*
X88020276Y-45345629D01*
X88014834Y-45357544D01*
X87994353Y-45499997D01*
X87994353Y-45500002D01*
X88014834Y-45642456D01*
X88074622Y-45773371D01*
X88074623Y-45773373D01*
X88125320Y-45831880D01*
X88149137Y-45888238D01*
X88149500Y-45896710D01*
X88149500Y-47579640D01*
X88130593Y-47637831D01*
X88125321Y-47644469D01*
X88117118Y-47653935D01*
X88117117Y-47653936D01*
X88063302Y-47771774D01*
X88044867Y-47899997D01*
X88044867Y-47900002D01*
X88063302Y-48028225D01*
X88117117Y-48146061D01*
X88117118Y-48146063D01*
X88201951Y-48243967D01*
X88201952Y-48243968D01*
X88220435Y-48255846D01*
X88310931Y-48314004D01*
X88435228Y-48350500D01*
X88435230Y-48350500D01*
X88564770Y-48350500D01*
X88564772Y-48350500D01*
X88689069Y-48314004D01*
X88798049Y-48243967D01*
X88882882Y-48146063D01*
X88936697Y-48028226D01*
X88955133Y-47900000D01*
X88936697Y-47771774D01*
X88882882Y-47653937D01*
X88882882Y-47653936D01*
X88882881Y-47653935D01*
X88874679Y-47644469D01*
X88850863Y-47588109D01*
X88850500Y-47579640D01*
X88850500Y-45896710D01*
X88869407Y-45838519D01*
X88874666Y-45831896D01*
X88925377Y-45773373D01*
X88985165Y-45642457D01*
X89005647Y-45500000D01*
X88985165Y-45357543D01*
X88979724Y-45345629D01*
X88972747Y-45284842D01*
X89002833Y-45231565D01*
X89058488Y-45206146D01*
X89069776Y-45205500D01*
X93495499Y-45205500D01*
X93553690Y-45224407D01*
X93589654Y-45273907D01*
X93594499Y-45304500D01*
X93594499Y-49891939D01*
X93594353Y-49893993D01*
X93594353Y-49906024D01*
X93594499Y-49908072D01*
X93594499Y-50697552D01*
X93594500Y-51395500D01*
X93575593Y-51453691D01*
X93526093Y-51489655D01*
X93495500Y-51494500D01*
X91499000Y-51494500D01*
X91466856Y-51497030D01*
X91451559Y-51499452D01*
X91436262Y-51501875D01*
X91431715Y-51502647D01*
X91431713Y-51502647D01*
X91347617Y-51538591D01*
X91298112Y-51574559D01*
X91264637Y-51603807D01*
X91208375Y-51627855D01*
X91148724Y-51614241D01*
X91108467Y-51568165D01*
X91100500Y-51529254D01*
X91100500Y-51131177D01*
X91100500Y-50629414D01*
X91119406Y-50571227D01*
X91168906Y-50535263D01*
X91171593Y-50534432D01*
X91206475Y-50524191D01*
X91315455Y-50454154D01*
X91400288Y-50356250D01*
X91454103Y-50238413D01*
X91471030Y-50120681D01*
X91472539Y-50110189D01*
X91472539Y-50110184D01*
X91454103Y-49981961D01*
X91434445Y-49938917D01*
X91400288Y-49864124D01*
X91315455Y-49766220D01*
X91315454Y-49766219D01*
X91315453Y-49766218D01*
X91206479Y-49696185D01*
X91206476Y-49696183D01*
X91206475Y-49696183D01*
X91206472Y-49696182D01*
X91082180Y-49659687D01*
X91082178Y-49659687D01*
X90952634Y-49659687D01*
X90952631Y-49659687D01*
X90828339Y-49696182D01*
X90828332Y-49696185D01*
X90719357Y-49766219D01*
X90685440Y-49805362D01*
X90633044Y-49836957D01*
X90572083Y-49831721D01*
X90535801Y-49805360D01*
X90498802Y-49762660D01*
X90498801Y-49762659D01*
X90389826Y-49692625D01*
X90389823Y-49692623D01*
X90389822Y-49692623D01*
X90389819Y-49692622D01*
X90265527Y-49656127D01*
X90265525Y-49656127D01*
X90135981Y-49656127D01*
X90135978Y-49656127D01*
X90011686Y-49692622D01*
X90011679Y-49692625D01*
X89902705Y-49762658D01*
X89817870Y-49860565D01*
X89764055Y-49978401D01*
X89757118Y-50026651D01*
X89730122Y-50081559D01*
X89729130Y-50082566D01*
X89535118Y-50276578D01*
X89519265Y-50289451D01*
X89509335Y-50295939D01*
X89509332Y-50295941D01*
X89488664Y-50322494D01*
X89484605Y-50327092D01*
X89481619Y-50330078D01*
X89468955Y-50347817D01*
X89437483Y-50388254D01*
X89433981Y-50394723D01*
X89430758Y-50401316D01*
X89416138Y-50450425D01*
X89399499Y-50498892D01*
X89398293Y-50506123D01*
X89397383Y-50513427D01*
X89399500Y-50564611D01*
X89399500Y-54579640D01*
X89380593Y-54637831D01*
X89375321Y-54644469D01*
X89367118Y-54653935D01*
X89367117Y-54653936D01*
X89313302Y-54771774D01*
X89294867Y-54899997D01*
X89294867Y-54900002D01*
X89313302Y-55028225D01*
X89367117Y-55146061D01*
X89367118Y-55146063D01*
X89401882Y-55186183D01*
X89451952Y-55243968D01*
X89546553Y-55304764D01*
X89560931Y-55314004D01*
X89685228Y-55350500D01*
X89685230Y-55350500D01*
X89814770Y-55350500D01*
X89814772Y-55350500D01*
X89939069Y-55314004D01*
X90048049Y-55243967D01*
X90132882Y-55146063D01*
X90159107Y-55088639D01*
X90159947Y-55086800D01*
X90201319Y-55041723D01*
X90261286Y-55029572D01*
X90316942Y-55054990D01*
X90340053Y-55086800D01*
X90367117Y-55146061D01*
X90367118Y-55146063D01*
X90401882Y-55186183D01*
X90451952Y-55243968D01*
X90546553Y-55304764D01*
X90560931Y-55314004D01*
X90685228Y-55350500D01*
X90685230Y-55350500D01*
X90814770Y-55350500D01*
X90814772Y-55350500D01*
X90939069Y-55314004D01*
X91048049Y-55243967D01*
X91132882Y-55146063D01*
X91186697Y-55028226D01*
X91192842Y-54985483D01*
X91205133Y-54900002D01*
X91205133Y-54899997D01*
X91186697Y-54771774D01*
X91132882Y-54653936D01*
X91132881Y-54653935D01*
X91124679Y-54644469D01*
X91100863Y-54588109D01*
X91100500Y-54579640D01*
X91100500Y-54466444D01*
X91119407Y-54408253D01*
X91168907Y-54372289D01*
X91230093Y-54372289D01*
X91274053Y-54401307D01*
X91274554Y-54401881D01*
X91274556Y-54401883D01*
X91298797Y-54429628D01*
X91377307Y-54476536D01*
X91435498Y-54495443D01*
X91447552Y-54497352D01*
X91498996Y-54505500D01*
X91499000Y-54505500D01*
X96300996Y-54505500D01*
X96301000Y-54505500D01*
X96333144Y-54502970D01*
X96348440Y-54500547D01*
X96363738Y-54498125D01*
X96364874Y-54497931D01*
X96368287Y-54497352D01*
X96452383Y-54461408D01*
X96501883Y-54425444D01*
X96529628Y-54401203D01*
X96576536Y-54322693D01*
X96595443Y-54264502D01*
X96605500Y-54201000D01*
X96605500Y-43199500D01*
X96605499Y-43199499D01*
X96624407Y-43141309D01*
X96673907Y-43105345D01*
X96704500Y-43100500D01*
X104160119Y-43100500D01*
X104198380Y-43100500D01*
X104201618Y-43100606D01*
X104431644Y-43115682D01*
X104438065Y-43116528D01*
X104662562Y-43161184D01*
X104668816Y-43162859D01*
X104776757Y-43199500D01*
X104885565Y-43236436D01*
X104891553Y-43238916D01*
X105096835Y-43340150D01*
X105102449Y-43343391D01*
X105292768Y-43470558D01*
X105297907Y-43474501D01*
X105469995Y-43625419D01*
X105469997Y-43625420D01*
X105474580Y-43630003D01*
X105625496Y-43802089D01*
X105629442Y-43807232D01*
X105756611Y-43997554D01*
X105759852Y-44003168D01*
X105861082Y-44208442D01*
X105863562Y-44214430D01*
X105937139Y-44431177D01*
X105938816Y-44437438D01*
X105983471Y-44661934D01*
X105984317Y-44668360D01*
X105998019Y-44877410D01*
X105999395Y-44898392D01*
X105999501Y-44901631D01*
X105999501Y-47558992D01*
X105999500Y-47558995D01*
X105999500Y-47733100D01*
X105999501Y-47733117D01*
X106031586Y-47997365D01*
X106031588Y-47997380D01*
X106095295Y-48255846D01*
X106095296Y-48255849D01*
X106095297Y-48255852D01*
X106189697Y-48504764D01*
X106189699Y-48504767D01*
X106313414Y-48740487D01*
X106313415Y-48740488D01*
X106464626Y-48959556D01*
X106464631Y-48959562D01*
X106464637Y-48959571D01*
X106641168Y-49158833D01*
X106840430Y-49335364D01*
X106840440Y-49335371D01*
X106840444Y-49335374D01*
X107059512Y-49486585D01*
X107059513Y-49486586D01*
X107059515Y-49486587D01*
X107059518Y-49486589D01*
X107076110Y-49495297D01*
X107295239Y-49610305D01*
X107343658Y-49628667D01*
X107544149Y-49704703D01*
X107579479Y-49713411D01*
X107802620Y-49768411D01*
X107802622Y-49768411D01*
X107802625Y-49768412D01*
X108066895Y-49800500D01*
X108177410Y-49800500D01*
X115460118Y-49800500D01*
X115498379Y-49800500D01*
X115501617Y-49800606D01*
X115731645Y-49815682D01*
X115738063Y-49816527D01*
X115801890Y-49829223D01*
X115962561Y-49861183D01*
X115968814Y-49862858D01*
X116096062Y-49906053D01*
X116185569Y-49936437D01*
X116191544Y-49938911D01*
X116396838Y-50040151D01*
X116402447Y-50043389D01*
X116592766Y-50170557D01*
X116597908Y-50174503D01*
X116670783Y-50238412D01*
X116770000Y-50325422D01*
X116774577Y-50329999D01*
X116825665Y-50388254D01*
X116925496Y-50502091D01*
X116929442Y-50507233D01*
X117056610Y-50697552D01*
X117059851Y-50703166D01*
X117161082Y-50908442D01*
X117163562Y-50914430D01*
X117237139Y-51131177D01*
X117238816Y-51137438D01*
X117283471Y-51361934D01*
X117284317Y-51368360D01*
X117293119Y-51502647D01*
X117297413Y-51568165D01*
X117299394Y-51598380D01*
X117299500Y-51601619D01*
X117299500Y-54398379D01*
X117299394Y-54401618D01*
X117284317Y-54631639D01*
X117283471Y-54638065D01*
X117238816Y-54862561D01*
X117237139Y-54868822D01*
X117163562Y-55085569D01*
X117161082Y-55091557D01*
X117059851Y-55296833D01*
X117056610Y-55302447D01*
X116929442Y-55492766D01*
X116925496Y-55497908D01*
X116774580Y-55669997D01*
X116769997Y-55674580D01*
X116597908Y-55825496D01*
X116592766Y-55829442D01*
X116402447Y-55956610D01*
X116396833Y-55959851D01*
X116191557Y-56061082D01*
X116185569Y-56063562D01*
X115968822Y-56137139D01*
X115962561Y-56138816D01*
X115738065Y-56183471D01*
X115731639Y-56184317D01*
X115520355Y-56198165D01*
X115501616Y-56199394D01*
X115498379Y-56199500D01*
X64551413Y-56199500D01*
X64551405Y-56199499D01*
X64539882Y-56199499D01*
X64501621Y-56199499D01*
X64498383Y-56199393D01*
X64268360Y-56184316D01*
X64261934Y-56183470D01*
X64037438Y-56138815D01*
X64031177Y-56137138D01*
X63814430Y-56063561D01*
X63808448Y-56061083D01*
X63603166Y-55959850D01*
X63597552Y-55956609D01*
X63407233Y-55829441D01*
X63402091Y-55825495D01*
X63230003Y-55674579D01*
X63225420Y-55669996D01*
X63166589Y-55602912D01*
X63074495Y-55497899D01*
X63070558Y-55492767D01*
X63070557Y-55492766D01*
X62943391Y-55302447D01*
X62940150Y-55296834D01*
X62940150Y-55296833D01*
X62838908Y-55091536D01*
X62836436Y-55085567D01*
X62762857Y-54868810D01*
X62761186Y-54862573D01*
X62716528Y-54638062D01*
X62715683Y-54631644D01*
X62700605Y-54401596D01*
X62700500Y-54398367D01*
X62700500Y-53784693D01*
X62719407Y-53726502D01*
X62768907Y-53690538D01*
X62830093Y-53690538D01*
X62879593Y-53726502D01*
X62894341Y-53756300D01*
X62975672Y-54027965D01*
X62975674Y-54027972D01*
X63079335Y-54268284D01*
X63114111Y-54348904D01*
X63288870Y-54651596D01*
X63497588Y-54931953D01*
X63737442Y-55186183D01*
X64005189Y-55410849D01*
X64297207Y-55602913D01*
X64609549Y-55759777D01*
X64937989Y-55879319D01*
X64937992Y-55879319D01*
X64937993Y-55879320D01*
X65278075Y-55959921D01*
X65278080Y-55959921D01*
X65278086Y-55959923D01*
X65625241Y-56000500D01*
X65625244Y-56000500D01*
X65974756Y-56000500D01*
X65974759Y-56000500D01*
X66321914Y-55959923D01*
X66321920Y-55959921D01*
X66321924Y-55959921D01*
X66548645Y-55906187D01*
X66662011Y-55879319D01*
X66990451Y-55759777D01*
X67302793Y-55602913D01*
X67594811Y-55410849D01*
X67862558Y-55186183D01*
X68102412Y-54931953D01*
X68311130Y-54651596D01*
X68485889Y-54348904D01*
X68624326Y-54027971D01*
X68724569Y-53693136D01*
X68785262Y-53348927D01*
X68805585Y-53000000D01*
X68785262Y-52651073D01*
X68724569Y-52306864D01*
X68624326Y-51972029D01*
X68485889Y-51651096D01*
X68311130Y-51348404D01*
X68102412Y-51068047D01*
X67862558Y-50813817D01*
X67594811Y-50589151D01*
X67496046Y-50524192D01*
X67302794Y-50397087D01*
X66990453Y-50240224D01*
X66990452Y-50240223D01*
X66990451Y-50240223D01*
X66662011Y-50120681D01*
X66662012Y-50120681D01*
X66662006Y-50120679D01*
X66321924Y-50040078D01*
X66207048Y-50026651D01*
X65974759Y-49999500D01*
X65625241Y-49999500D01*
X65433950Y-50021858D01*
X65278075Y-50040078D01*
X64937993Y-50120679D01*
X64741191Y-50192309D01*
X64609549Y-50240223D01*
X64609548Y-50240223D01*
X64609546Y-50240224D01*
X64297205Y-50397087D01*
X64005190Y-50589150D01*
X63737443Y-50813815D01*
X63497591Y-51068043D01*
X63288871Y-51348402D01*
X63288869Y-51348405D01*
X63114111Y-51651095D01*
X63114108Y-51651102D01*
X62975674Y-51972027D01*
X62975673Y-51972029D01*
X62894341Y-52243700D01*
X62859539Y-52294023D01*
X62801804Y-52314279D01*
X62743189Y-52296731D01*
X62706083Y-52248081D01*
X62700500Y-52215306D01*
X62700500Y-51601619D01*
X62700606Y-51598381D01*
X62700623Y-51598117D01*
X62715683Y-51368352D01*
X62716528Y-51361934D01*
X62719220Y-51348404D01*
X62761183Y-51137438D01*
X62762856Y-51131188D01*
X62836438Y-50914427D01*
X62838909Y-50908460D01*
X62940154Y-50703154D01*
X62943384Y-50697560D01*
X63070561Y-50507227D01*
X63074503Y-50502091D01*
X63225429Y-50329991D01*
X63229991Y-50325429D01*
X63402094Y-50174499D01*
X63407227Y-50170561D01*
X63597560Y-50043384D01*
X63603154Y-50040154D01*
X63808460Y-49938909D01*
X63814427Y-49936438D01*
X64031188Y-49862856D01*
X64037438Y-49861183D01*
X64101263Y-49848487D01*
X64261938Y-49816527D01*
X64268352Y-49815683D01*
X64498382Y-49800606D01*
X64501621Y-49800500D01*
X71933101Y-49800500D01*
X71933106Y-49800500D01*
X72197376Y-49768412D01*
X72455852Y-49704703D01*
X72704764Y-49610303D01*
X72940483Y-49486589D01*
X73159570Y-49335363D01*
X73358832Y-49158832D01*
X73535363Y-48959570D01*
X73686589Y-48740483D01*
X73810303Y-48504764D01*
X73904703Y-48255852D01*
X73968412Y-47997376D01*
X74000500Y-47733106D01*
X74000500Y-47600000D01*
X74000500Y-47560118D01*
X74000500Y-47560117D01*
X74000500Y-44901618D01*
X74000606Y-44898381D01*
X74015683Y-44668352D01*
X74016528Y-44661934D01*
X74061183Y-44437438D01*
X74062856Y-44431188D01*
X74136438Y-44214427D01*
X74138909Y-44208460D01*
X74240154Y-44003154D01*
X74243388Y-43997554D01*
X74370561Y-43807227D01*
X74374503Y-43802091D01*
X74374505Y-43802089D01*
X74525429Y-43629991D01*
X74529991Y-43625429D01*
X74702094Y-43474499D01*
X74707232Y-43470558D01*
X74897560Y-43343384D01*
X74903154Y-43340154D01*
X75108460Y-43238909D01*
X75114427Y-43236438D01*
X75331188Y-43162856D01*
X75337438Y-43161183D01*
X75401263Y-43148487D01*
X75561938Y-43116527D01*
X75568352Y-43115683D01*
X75798382Y-43100606D01*
X75801621Y-43100500D01*
X75839882Y-43100500D01*
X83195500Y-43100500D01*
X83253691Y-43119407D01*
G37*
%TD.AperFunction*%
%TA.AperFunction,Conductor*%
G36*
X87306071Y-52709010D02*
G01*
X87340676Y-52719170D01*
X87360145Y-52724886D01*
X87385774Y-52736590D01*
X87433193Y-52767063D01*
X87454490Y-52785516D01*
X87491401Y-52828114D01*
X87506635Y-52851819D01*
X87530049Y-52903089D01*
X87537987Y-52930125D01*
X87546008Y-52985909D01*
X87546008Y-53014088D01*
X87537988Y-53069871D01*
X87530049Y-53096909D01*
X87506633Y-53148182D01*
X87491398Y-53171887D01*
X87454489Y-53214481D01*
X87433194Y-53232933D01*
X87385780Y-53263404D01*
X87360151Y-53275109D01*
X87306073Y-53290989D01*
X87278179Y-53295000D01*
X87221820Y-53295000D01*
X87193927Y-53290989D01*
X87139847Y-53275109D01*
X87114217Y-53263404D01*
X87066801Y-53232932D01*
X87045508Y-53214482D01*
X87004646Y-53167325D01*
X86984522Y-53148182D01*
X86975993Y-53140068D01*
X86946116Y-53116686D01*
X86936491Y-53109596D01*
X86894115Y-53092598D01*
X86847146Y-53053386D01*
X86832196Y-52994055D01*
X86854975Y-52937268D01*
X86898026Y-52908025D01*
X86898013Y-52907995D01*
X86898193Y-52907912D01*
X86899998Y-52906685D01*
X86903067Y-52905675D01*
X86955462Y-52874079D01*
X87004649Y-52832672D01*
X87045509Y-52785515D01*
X87066798Y-52767066D01*
X87114218Y-52736591D01*
X87139844Y-52724889D01*
X87171250Y-52715667D01*
X87193926Y-52709010D01*
X87221816Y-52705000D01*
X87278182Y-52705000D01*
X87306071Y-52709010D01*
G37*
%TD.AperFunction*%
%TA.AperFunction,Conductor*%
G36*
X92806072Y-52709010D02*
G01*
X92860143Y-52724886D01*
X92885775Y-52736591D01*
X92933197Y-52767066D01*
X92954492Y-52785518D01*
X93015845Y-52856323D01*
X93062528Y-52896194D01*
X93062530Y-52896195D01*
X93062531Y-52896196D01*
X93094750Y-52916258D01*
X93134153Y-52963066D01*
X93138517Y-53024096D01*
X93106176Y-53076035D01*
X93093543Y-53085076D01*
X93065033Y-53102267D01*
X93065025Y-53102273D01*
X93015850Y-53143668D01*
X93015840Y-53143678D01*
X92954492Y-53214479D01*
X92933196Y-53232933D01*
X92885778Y-53263406D01*
X92860148Y-53275110D01*
X92806072Y-53290989D01*
X92778179Y-53295000D01*
X92721820Y-53295000D01*
X92693929Y-53290990D01*
X92672480Y-53284692D01*
X92639846Y-53275110D01*
X92614215Y-53263404D01*
X92566804Y-53232935D01*
X92545511Y-53214486D01*
X92508595Y-53171881D01*
X92493365Y-53148182D01*
X92491307Y-53143675D01*
X92469949Y-53096909D01*
X92462011Y-53069876D01*
X92453990Y-53014081D01*
X92453990Y-52985923D01*
X92462013Y-52930111D01*
X92469946Y-52903094D01*
X92493368Y-52851808D01*
X92508594Y-52828116D01*
X92545512Y-52785511D01*
X92566800Y-52767065D01*
X92614214Y-52736593D01*
X92639842Y-52724889D01*
X92693924Y-52709010D01*
X92721816Y-52705000D01*
X92778182Y-52705000D01*
X92806072Y-52709010D01*
G37*
%TD.AperFunction*%
%TD*%
%TA.AperFunction,Conductor*%
%TO.N,VBUS*%
G36*
X96359191Y-43119407D02*
G01*
X96395155Y-43168907D01*
X96400000Y-43199500D01*
X96400000Y-54201000D01*
X96381093Y-54259191D01*
X96331593Y-54295155D01*
X96301000Y-54300000D01*
X91499000Y-54300000D01*
X91440809Y-54281093D01*
X91404845Y-54231593D01*
X91400000Y-54201000D01*
X91400000Y-53000002D01*
X92244353Y-53000002D01*
X92264834Y-53142456D01*
X92297622Y-53214250D01*
X92324623Y-53273373D01*
X92418871Y-53382142D01*
X92418873Y-53382144D01*
X92539942Y-53459950D01*
X92539947Y-53459953D01*
X92646403Y-53491211D01*
X92678035Y-53500499D01*
X92678036Y-53500499D01*
X92678039Y-53500500D01*
X92678041Y-53500500D01*
X92821959Y-53500500D01*
X92821961Y-53500500D01*
X92960053Y-53459953D01*
X93081128Y-53382143D01*
X93171152Y-53278248D01*
X93223546Y-53246654D01*
X93284507Y-53251889D01*
X93329254Y-53289557D01*
X93360222Y-53337744D01*
X93471164Y-53433877D01*
X93604696Y-53494859D01*
X93604697Y-53494859D01*
X93604699Y-53494860D01*
X93713479Y-53510500D01*
X93713484Y-53510500D01*
X93786521Y-53510500D01*
X93895300Y-53494860D01*
X93895301Y-53494859D01*
X93895304Y-53494859D01*
X94028836Y-53433877D01*
X94139778Y-53337744D01*
X94219143Y-53214250D01*
X94260500Y-53073399D01*
X94260500Y-52926601D01*
X94219143Y-52785750D01*
X94139778Y-52662256D01*
X94028836Y-52566123D01*
X93895304Y-52505141D01*
X93895300Y-52505139D01*
X93786521Y-52489500D01*
X93786516Y-52489500D01*
X93713484Y-52489500D01*
X93713479Y-52489500D01*
X93604699Y-52505139D01*
X93471164Y-52566123D01*
X93360221Y-52662256D01*
X93329253Y-52710443D01*
X93281887Y-52749173D01*
X93220801Y-52752665D01*
X93171151Y-52721749D01*
X93081129Y-52617858D01*
X93081127Y-52617856D01*
X92960057Y-52540049D01*
X92960054Y-52540047D01*
X92960053Y-52540047D01*
X92960050Y-52540046D01*
X92821964Y-52499500D01*
X92821961Y-52499500D01*
X92678039Y-52499500D01*
X92678035Y-52499500D01*
X92539949Y-52540046D01*
X92539942Y-52540049D01*
X92418873Y-52617855D01*
X92324622Y-52726628D01*
X92264834Y-52857543D01*
X92244353Y-52999997D01*
X92244353Y-53000002D01*
X91400000Y-53000002D01*
X91400000Y-51799000D01*
X91418907Y-51740809D01*
X91468407Y-51704845D01*
X91499000Y-51700000D01*
X93799999Y-51700000D01*
X93800000Y-51700000D01*
X93800000Y-45000000D01*
X93799999Y-45000000D01*
X88582519Y-45000000D01*
X88575524Y-44999500D01*
X88571961Y-44999500D01*
X88428039Y-44999500D01*
X88424476Y-44999500D01*
X88417481Y-45000000D01*
X86800001Y-45000000D01*
X86800000Y-45000000D01*
X86800000Y-45000001D01*
X86800000Y-47301000D01*
X86781093Y-47359191D01*
X86731593Y-47395155D01*
X86701000Y-47400000D01*
X86200000Y-47400000D01*
X86200000Y-51700000D01*
X88501000Y-51700000D01*
X88559191Y-51718907D01*
X88595155Y-51768407D01*
X88600000Y-51799000D01*
X88600000Y-54201000D01*
X88581093Y-54259191D01*
X88531593Y-54295155D01*
X88501000Y-54300000D01*
X83599000Y-54300000D01*
X83540809Y-54281093D01*
X83504845Y-54231593D01*
X83500000Y-54201000D01*
X83500000Y-53060626D01*
X85689500Y-53060626D01*
X85711426Y-53142456D01*
X85720883Y-53177751D01*
X85781504Y-53282749D01*
X85781506Y-53282751D01*
X85781508Y-53282754D01*
X85867246Y-53368492D01*
X85867248Y-53368493D01*
X85944346Y-53413006D01*
X85959672Y-53423919D01*
X85971164Y-53433877D01*
X86104696Y-53494859D01*
X86104697Y-53494859D01*
X86104699Y-53494860D01*
X86213479Y-53510500D01*
X86213484Y-53510500D01*
X86286521Y-53510500D01*
X86395300Y-53494860D01*
X86395301Y-53494859D01*
X86395304Y-53494859D01*
X86528836Y-53433877D01*
X86540328Y-53423918D01*
X86555648Y-53413008D01*
X86632754Y-53368492D01*
X86704520Y-53296725D01*
X86759034Y-53268949D01*
X86819466Y-53278520D01*
X86849340Y-53301899D01*
X86901737Y-53362368D01*
X86918871Y-53382142D01*
X86918872Y-53382143D01*
X86983884Y-53423924D01*
X87039947Y-53459953D01*
X87146403Y-53491211D01*
X87178035Y-53500499D01*
X87178036Y-53500499D01*
X87178039Y-53500500D01*
X87178041Y-53500500D01*
X87321959Y-53500500D01*
X87321961Y-53500500D01*
X87460053Y-53459953D01*
X87581128Y-53382143D01*
X87675377Y-53273373D01*
X87735165Y-53142457D01*
X87755647Y-53000000D01*
X87746930Y-52939374D01*
X87735165Y-52857543D01*
X87687268Y-52752665D01*
X87675377Y-52726627D01*
X87581128Y-52617857D01*
X87581127Y-52617856D01*
X87581126Y-52617855D01*
X87460057Y-52540049D01*
X87460054Y-52540047D01*
X87460053Y-52540047D01*
X87460050Y-52540046D01*
X87321964Y-52499500D01*
X87321961Y-52499500D01*
X87178039Y-52499500D01*
X87178035Y-52499500D01*
X87039949Y-52540046D01*
X87039942Y-52540049D01*
X86918872Y-52617856D01*
X86918870Y-52617857D01*
X86849341Y-52698100D01*
X86796946Y-52729696D01*
X86735985Y-52724460D01*
X86704521Y-52703275D01*
X86632754Y-52631508D01*
X86555652Y-52586993D01*
X86540326Y-52576079D01*
X86528837Y-52566124D01*
X86528836Y-52566123D01*
X86395304Y-52505141D01*
X86395300Y-52505139D01*
X86286521Y-52489500D01*
X86286516Y-52489500D01*
X86213484Y-52489500D01*
X86213479Y-52489500D01*
X86104697Y-52505140D01*
X86104695Y-52505140D01*
X85971162Y-52566123D01*
X85959674Y-52576078D01*
X85944346Y-52586993D01*
X85867248Y-52631506D01*
X85781504Y-52717250D01*
X85720883Y-52822248D01*
X85720882Y-52822253D01*
X85689500Y-52939374D01*
X85689500Y-52960118D01*
X85689500Y-53000000D01*
X85689500Y-53060626D01*
X83500000Y-53060626D01*
X83500000Y-43199500D01*
X83518907Y-43141309D01*
X83568407Y-43105345D01*
X83599000Y-43100500D01*
X96301000Y-43100500D01*
X96359191Y-43119407D01*
G37*
%TD.AperFunction*%
%TD*%
M02*
