M48
; DRILL file {KiCad 7.0.6} date Fri Jul 14 15:13:01 2023
; FORMAT={-:-/ absolute / inch / decimal}
; #@! TF.CreationDate,2023-07-14T15:13:01+01:00
; #@! TF.GenerationSoftware,Kicad,Pcbnew,7.0.6
; #@! TF.FileFunction,Plated,1,2,PTH
FMAT,2
INCH
; #@! TA.AperFunction,Plated,PTH,ViaDrill
T1C0.0098
; #@! TA.AperFunction,Plated,PTH,ViaDrill
T2C0.0118
; #@! TA.AperFunction,Plated,PTH,ComponentDrill
T3C0.0236
; #@! TA.AperFunction,Plated,PTH,ComponentDrill
T4C0.1260
%
G90
G05
T1
X3.4843Y-1.8858
X3.5335Y-2.1614
X3.5512Y-1.9727
X3.5728Y-2.1614
X3.5834Y-1.9728
T2
X2.7559Y-2.1339
X3.0709Y-2.1339
X3.1673Y-1.7913
X3.1673Y-1.8543
X3.1988Y-1.7913
X3.1988Y-1.8543
X3.2303Y-1.7913
X3.2303Y-1.8543
X3.2618Y-1.7913
X3.2618Y-1.8543
X3.3051Y-1.7913
X3.3051Y-1.8543
X3.3366Y-1.7913
X3.3366Y-1.8543
X3.3504Y-1.9331
X3.3504Y-1.9646
X3.3681Y-1.7913
X3.3681Y-1.8543
X3.3819Y-1.9646
X3.3996Y-1.7913
X3.3996Y-1.8543
X3.435Y-2.0866
X3.4606Y-1.9213
X3.4606Y-1.9528
X3.4724Y-2.0551
X3.4724Y-2.0866
X3.4724Y-2.1181
X3.4843Y-1.7913
X3.5433Y-1.8701
X3.6142Y-2.0551
X3.6142Y-2.0866
X3.6142Y-2.1181
X3.626Y-1.9213
X3.626Y-1.9528
X3.6516Y-2.0866
X3.7047Y-1.9646
X3.7362Y-1.9331
X3.7362Y-1.9646
X4.0157Y-2.0394
X4.3307Y-2.0394
T4
X2.5906Y-2.0866
X4.4961Y-2.0866
T3
G00X3.4537Y-2.002
M15
G01X3.4439Y-2.002
M16
G05
G00X3.4537Y-2.1713
M15
G01X3.4439Y-2.1713
M16
G05
G00X3.6427Y-2.002
M15
G01X3.6329Y-2.002
M16
G05
G00X3.6427Y-2.1713
M15
G01X3.6329Y-2.1713
M16
G05
T0
M30
