%TF.GenerationSoftware,KiCad,Pcbnew,7.0.6*%
%TF.CreationDate,2023-07-21T15:27:00+01:00*%
%TF.ProjectId,Galia,47616c69-612e-46b6-9963-61645f706362,V1.0*%
%TF.SameCoordinates,Original*%
%TF.FileFunction,Copper,L1,Top*%
%TF.FilePolarity,Positive*%
%FSLAX46Y46*%
G04 Gerber Fmt 4.6, Leading zero omitted, Abs format (unit mm)*
G04 Created by KiCad (PCBNEW 7.0.6) date 2023-07-21 15:27:00*
%MOMM*%
%LPD*%
G01*
G04 APERTURE LIST*
%TA.AperFunction,ComponentPad*%
%ADD10C,5.600000*%
%TD*%
%TA.AperFunction,ComponentPad*%
%ADD11O,2.200000X1.100000*%
%TD*%
%TA.AperFunction,ViaPad*%
%ADD12C,0.600000*%
%TD*%
%TA.AperFunction,Conductor*%
%ADD13C,0.300000*%
%TD*%
G04 APERTURE END LIST*
D10*
%TO.P,H1,1*%
%TO.N,N/C*%
X99800000Y-53000000D03*
%TD*%
%TO.P,H2,1,1*%
%TO.N,GND*%
X80300000Y-53000000D03*
%TD*%
D11*
%TO.P,J1,S1,SHIELD*%
%TO.N,GND*%
X87600000Y-55150000D03*
X87600000Y-50850000D03*
X92400000Y-55150000D03*
X92400000Y-50850000D03*
%TD*%
D12*
%TO.N,GND*%
X69350000Y-55250000D03*
X75000000Y-55250000D03*
X110750000Y-55250000D03*
X105100000Y-55250000D03*
X101000000Y-42800000D03*
X94400000Y-42800000D03*
X86600000Y-42800000D03*
X79000000Y-42800000D03*
%TO.N,CC2*%
X90950000Y-50250000D03*
X90100000Y-48100000D03*
%TO.N,/D-*%
X90100000Y-48900000D03*
X90000000Y-54900000D03*
%TO.N,CC1*%
X89250000Y-48100000D03*
%TO.N,GND*%
X92800000Y-48400000D03*
%TO.N,CC1*%
X89250000Y-55200000D03*
%TO.N,VBUS*%
X79200000Y-46200000D03*
X79200000Y-48400000D03*
X80800000Y-48400000D03*
X81600000Y-48400000D03*
X82400000Y-48400000D03*
X82400000Y-46200000D03*
X81600000Y-46200000D03*
X80000000Y-46200000D03*
X80000000Y-48400000D03*
X80800000Y-46200000D03*
X91800000Y-53000000D03*
X88200000Y-53800000D03*
X91800000Y-53800000D03*
X91800000Y-52200000D03*
X88200000Y-53000000D03*
X88200000Y-52200000D03*
%TD*%
D13*
%TO.N,CC1*%
X89250000Y-55200000D02*
X89250000Y-48100000D01*
%TO.N,/D-*%
X90100000Y-48900000D02*
X90000000Y-49000000D01*
X90000000Y-49000000D02*
X90000000Y-54900000D01*
%TO.N,CC2*%
X90219239Y-48100000D02*
X90950000Y-48830761D01*
X90950000Y-48830761D02*
X90950000Y-50250000D01*
X90100000Y-48100000D02*
X90219239Y-48100000D01*
%TD*%
%TA.AperFunction,Conductor*%
%TO.N,GND*%
G36*
X102201617Y-42400606D02*
G01*
X102431645Y-42415682D01*
X102438063Y-42416527D01*
X102501890Y-42429223D01*
X102662561Y-42461183D01*
X102668814Y-42462858D01*
X102840488Y-42521134D01*
X102885569Y-42536437D01*
X102891544Y-42538911D01*
X103096838Y-42640151D01*
X103102447Y-42643389D01*
X103292766Y-42770557D01*
X103297908Y-42774503D01*
X103373084Y-42840430D01*
X103470000Y-42925422D01*
X103474580Y-42930002D01*
X103625496Y-43102091D01*
X103629442Y-43107233D01*
X103756610Y-43297552D01*
X103759851Y-43303166D01*
X103845727Y-43477307D01*
X103861082Y-43508442D01*
X103863562Y-43514430D01*
X103937139Y-43731177D01*
X103938816Y-43737438D01*
X103983471Y-43961934D01*
X103984317Y-43968360D01*
X103999394Y-44198381D01*
X103999500Y-44201620D01*
X103999500Y-47733100D01*
X103999501Y-47733117D01*
X104031586Y-47997365D01*
X104031588Y-47997380D01*
X104095295Y-48255846D01*
X104095296Y-48255849D01*
X104095297Y-48255852D01*
X104139866Y-48373371D01*
X104189698Y-48504767D01*
X104313410Y-48740482D01*
X104313413Y-48740487D01*
X104407322Y-48876536D01*
X104464637Y-48959570D01*
X104641168Y-49158832D01*
X104840430Y-49335363D01*
X104916712Y-49388017D01*
X105059512Y-49486586D01*
X105059517Y-49486589D01*
X105295236Y-49610303D01*
X105544148Y-49704703D01*
X105579478Y-49713411D01*
X105802619Y-49768411D01*
X105802621Y-49768411D01*
X105802624Y-49768412D01*
X106066894Y-49800500D01*
X106177410Y-49800500D01*
X112460118Y-49800500D01*
X112498379Y-49800500D01*
X112501617Y-49800606D01*
X112731645Y-49815682D01*
X112738063Y-49816527D01*
X112801890Y-49829223D01*
X112962561Y-49861183D01*
X112968814Y-49862858D01*
X113112043Y-49911478D01*
X113185569Y-49936437D01*
X113191544Y-49938911D01*
X113396838Y-50040151D01*
X113402447Y-50043389D01*
X113592766Y-50170557D01*
X113597908Y-50174503D01*
X113672848Y-50240223D01*
X113770000Y-50325422D01*
X113774580Y-50330002D01*
X113925496Y-50502091D01*
X113929442Y-50507233D01*
X114056610Y-50697552D01*
X114059851Y-50703166D01*
X114083193Y-50750500D01*
X114161082Y-50908442D01*
X114163562Y-50914430D01*
X114237139Y-51131177D01*
X114238816Y-51137438D01*
X114283471Y-51361934D01*
X114284317Y-51368360D01*
X114299393Y-51598381D01*
X114299499Y-51601619D01*
X114299499Y-54379806D01*
X114299500Y-54379811D01*
X114299500Y-54398379D01*
X114299394Y-54401618D01*
X114284317Y-54631639D01*
X114283471Y-54638065D01*
X114238816Y-54862561D01*
X114237139Y-54868822D01*
X114163562Y-55085569D01*
X114161082Y-55091557D01*
X114059851Y-55296833D01*
X114056610Y-55302447D01*
X113929442Y-55492766D01*
X113925496Y-55497908D01*
X113774580Y-55669997D01*
X113769997Y-55674580D01*
X113597908Y-55825496D01*
X113592766Y-55829442D01*
X113402447Y-55956610D01*
X113396833Y-55959851D01*
X113191557Y-56061082D01*
X113185569Y-56063562D01*
X112968822Y-56137139D01*
X112962561Y-56138816D01*
X112738065Y-56183471D01*
X112731639Y-56184317D01*
X112520355Y-56198165D01*
X112501616Y-56199394D01*
X112498379Y-56199500D01*
X67501621Y-56199500D01*
X67498383Y-56199394D01*
X67268360Y-56184317D01*
X67261934Y-56183471D01*
X67037438Y-56138816D01*
X67031177Y-56137139D01*
X66814430Y-56063562D01*
X66808448Y-56061084D01*
X66603166Y-55959851D01*
X66597552Y-55956610D01*
X66407233Y-55829442D01*
X66402091Y-55825496D01*
X66291955Y-55728911D01*
X66229999Y-55674577D01*
X66225419Y-55669997D01*
X66216608Y-55659950D01*
X66074503Y-55497908D01*
X66070557Y-55492766D01*
X65943389Y-55302447D01*
X65940151Y-55296838D01*
X65838911Y-55091544D01*
X65836437Y-55085569D01*
X65821134Y-55040488D01*
X65762858Y-54868814D01*
X65761183Y-54862561D01*
X65719220Y-54651597D01*
X65716527Y-54638063D01*
X65715682Y-54631639D01*
X65715353Y-54626626D01*
X65700606Y-54401617D01*
X65700500Y-54398379D01*
X65700500Y-51601619D01*
X65700606Y-51598381D01*
X65701041Y-51591746D01*
X65715683Y-51368352D01*
X65716528Y-51361934D01*
X65719220Y-51348404D01*
X65761183Y-51137438D01*
X65762856Y-51131188D01*
X65836438Y-50914427D01*
X65838909Y-50908460D01*
X65940154Y-50703154D01*
X65943384Y-50697560D01*
X66070561Y-50507227D01*
X66074503Y-50502091D01*
X66225429Y-50329991D01*
X66229991Y-50325429D01*
X66402094Y-50174499D01*
X66407227Y-50170561D01*
X66597560Y-50043384D01*
X66603154Y-50040154D01*
X66808460Y-49938909D01*
X66814427Y-49936438D01*
X67031188Y-49862856D01*
X67037438Y-49861183D01*
X67101263Y-49848487D01*
X67261938Y-49816527D01*
X67268352Y-49815683D01*
X67498382Y-49800606D01*
X67501621Y-49800500D01*
X73933101Y-49800500D01*
X73933106Y-49800500D01*
X74197376Y-49768412D01*
X74455852Y-49704703D01*
X74704764Y-49610303D01*
X74940483Y-49486589D01*
X75159570Y-49335363D01*
X75358832Y-49158832D01*
X75535363Y-48959570D01*
X75686589Y-48740483D01*
X75810303Y-48504764D01*
X75847739Y-48406053D01*
X78694353Y-48406053D01*
X78694500Y-48408109D01*
X78694500Y-48601000D01*
X78695919Y-48619028D01*
X78697030Y-48633142D01*
X78697030Y-48633143D01*
X78701875Y-48663738D01*
X78702647Y-48668284D01*
X78702647Y-48668286D01*
X78738591Y-48752382D01*
X78738592Y-48752383D01*
X78774556Y-48801883D01*
X78798797Y-48829628D01*
X78877307Y-48876536D01*
X78935498Y-48895443D01*
X78948198Y-48897454D01*
X78998996Y-48905500D01*
X78999000Y-48905500D01*
X83895500Y-48905500D01*
X83953691Y-48924407D01*
X83989655Y-48973907D01*
X83994500Y-49004500D01*
X83994500Y-53043854D01*
X83994500Y-54201000D01*
X83997030Y-54233142D01*
X83997030Y-54233143D01*
X84001875Y-54263738D01*
X84002647Y-54268284D01*
X84002647Y-54268286D01*
X84038591Y-54352382D01*
X84038592Y-54352383D01*
X84074556Y-54401883D01*
X84098797Y-54429628D01*
X84177307Y-54476536D01*
X84235498Y-54495443D01*
X84247552Y-54497352D01*
X84298996Y-54505500D01*
X84299000Y-54505500D01*
X88500996Y-54505500D01*
X88501000Y-54505500D01*
X88533144Y-54502970D01*
X88548440Y-54500547D01*
X88563738Y-54498125D01*
X88564874Y-54497931D01*
X88568287Y-54497352D01*
X88652383Y-54461408D01*
X88701883Y-54425444D01*
X88729628Y-54401203D01*
X88729629Y-54401201D01*
X88735360Y-54396194D01*
X88791621Y-54372144D01*
X88851272Y-54385756D01*
X88891531Y-54431832D01*
X88899499Y-54470745D01*
X88899500Y-54803287D01*
X88880593Y-54861477D01*
X88875320Y-54868117D01*
X88824623Y-54926626D01*
X88764834Y-55057543D01*
X88744353Y-55199997D01*
X88744353Y-55200002D01*
X88764834Y-55342456D01*
X88796069Y-55410849D01*
X88824623Y-55473373D01*
X88843767Y-55495466D01*
X88918873Y-55582144D01*
X89039942Y-55659950D01*
X89039947Y-55659953D01*
X89146403Y-55691211D01*
X89178035Y-55700499D01*
X89178036Y-55700499D01*
X89178039Y-55700500D01*
X89178041Y-55700500D01*
X89321959Y-55700500D01*
X89321961Y-55700500D01*
X89460053Y-55659953D01*
X89581128Y-55582143D01*
X89675377Y-55473373D01*
X89698961Y-55421730D01*
X89740332Y-55376654D01*
X89800299Y-55364503D01*
X89816897Y-55367866D01*
X89928039Y-55400500D01*
X89928041Y-55400500D01*
X90071959Y-55400500D01*
X90071961Y-55400500D01*
X90210053Y-55359953D01*
X90331128Y-55282143D01*
X90425377Y-55173373D01*
X90485165Y-55042457D01*
X90491992Y-54994971D01*
X90505647Y-54900002D01*
X90505647Y-54899997D01*
X90485165Y-54757543D01*
X90485165Y-54757542D01*
X90425377Y-54626627D01*
X90421019Y-54621597D01*
X90374680Y-54568117D01*
X90350863Y-54511757D01*
X90350500Y-54503287D01*
X90350500Y-50587853D01*
X90369407Y-50529662D01*
X90418907Y-50493698D01*
X90480093Y-50493698D01*
X90524320Y-50523022D01*
X90524621Y-50523370D01*
X90524623Y-50523373D01*
X90580495Y-50587853D01*
X90618873Y-50632144D01*
X90729386Y-50703166D01*
X90739947Y-50709953D01*
X90846403Y-50741211D01*
X90878035Y-50750499D01*
X90878036Y-50750499D01*
X90878039Y-50750500D01*
X90878041Y-50750500D01*
X91021959Y-50750500D01*
X91021961Y-50750500D01*
X91160053Y-50709953D01*
X91281128Y-50632143D01*
X91375377Y-50523373D01*
X91435165Y-50392457D01*
X91455647Y-50250000D01*
X91454241Y-50240224D01*
X91435165Y-50107543D01*
X91375377Y-49976627D01*
X91341456Y-49937479D01*
X91324680Y-49918117D01*
X91300863Y-49861757D01*
X91300500Y-49853287D01*
X91300500Y-48877374D01*
X91302607Y-48857058D01*
X91305042Y-48845446D01*
X91300879Y-48812055D01*
X91300500Y-48805929D01*
X91300500Y-48801715D01*
X91296911Y-48780210D01*
X91291958Y-48740482D01*
X91290573Y-48729368D01*
X91290571Y-48729365D01*
X91288477Y-48722330D01*
X91286091Y-48715377D01*
X91261704Y-48670315D01*
X91239198Y-48624276D01*
X91234948Y-48618323D01*
X91230418Y-48612503D01*
X91192724Y-48577802D01*
X90608311Y-47993390D01*
X90590277Y-47962992D01*
X90588107Y-47963984D01*
X90525378Y-47826629D01*
X90525377Y-47826628D01*
X90525377Y-47826627D01*
X90431128Y-47717857D01*
X90431127Y-47717856D01*
X90431126Y-47717855D01*
X90310057Y-47640049D01*
X90310054Y-47640047D01*
X90310053Y-47640047D01*
X90310050Y-47640046D01*
X90171964Y-47599500D01*
X90171961Y-47599500D01*
X90028039Y-47599500D01*
X90028035Y-47599500D01*
X89889949Y-47640046D01*
X89889942Y-47640049D01*
X89768872Y-47717856D01*
X89749816Y-47739847D01*
X89697419Y-47771441D01*
X89636458Y-47766203D01*
X89600179Y-47739843D01*
X89581128Y-47717857D01*
X89581127Y-47717856D01*
X89460057Y-47640049D01*
X89460054Y-47640047D01*
X89460053Y-47640047D01*
X89460050Y-47640046D01*
X89321964Y-47599500D01*
X89321961Y-47599500D01*
X89178039Y-47599500D01*
X89178035Y-47599500D01*
X89039949Y-47640046D01*
X89039942Y-47640049D01*
X88918873Y-47717855D01*
X88824622Y-47826628D01*
X88764834Y-47957543D01*
X88744353Y-48099997D01*
X88744353Y-48100002D01*
X88764834Y-48242456D01*
X88824622Y-48373371D01*
X88824623Y-48373373D01*
X88875320Y-48431880D01*
X88899137Y-48488238D01*
X88899500Y-48496710D01*
X88899500Y-51533555D01*
X88880593Y-51591746D01*
X88831093Y-51627710D01*
X88769907Y-51627710D01*
X88725948Y-51598693D01*
X88701205Y-51570374D01*
X88701204Y-51570373D01*
X88701203Y-51570372D01*
X88622693Y-51523464D01*
X88622691Y-51523463D01*
X88622689Y-51523462D01*
X88564499Y-51504556D01*
X88564500Y-51504556D01*
X88501003Y-51494500D01*
X88501000Y-51494500D01*
X86504500Y-51494500D01*
X86446309Y-51475593D01*
X86410345Y-51426093D01*
X86405500Y-51395500D01*
X86405500Y-46804500D01*
X86424407Y-46746309D01*
X86473907Y-46710345D01*
X86504500Y-46705500D01*
X93495499Y-46705500D01*
X93553690Y-46724407D01*
X93589654Y-46773907D01*
X93594499Y-46804500D01*
X93594500Y-51395500D01*
X93575593Y-51453691D01*
X93526093Y-51489655D01*
X93495500Y-51494500D01*
X91499000Y-51494500D01*
X91466856Y-51497030D01*
X91451559Y-51499452D01*
X91436262Y-51501875D01*
X91431715Y-51502647D01*
X91431713Y-51502647D01*
X91347617Y-51538591D01*
X91298118Y-51574555D01*
X91270372Y-51598797D01*
X91223464Y-51677307D01*
X91223462Y-51677310D01*
X91204556Y-51735499D01*
X91194500Y-51798996D01*
X91194500Y-51798999D01*
X91194500Y-51799000D01*
X91194500Y-53033572D01*
X91194500Y-54201000D01*
X91197030Y-54233142D01*
X91197030Y-54233143D01*
X91201875Y-54263738D01*
X91202647Y-54268284D01*
X91202647Y-54268286D01*
X91238591Y-54352382D01*
X91238592Y-54352383D01*
X91274556Y-54401883D01*
X91298797Y-54429628D01*
X91377307Y-54476536D01*
X91435498Y-54495443D01*
X91447552Y-54497352D01*
X91498996Y-54505500D01*
X91499000Y-54505500D01*
X95700996Y-54505500D01*
X95701000Y-54505500D01*
X95733144Y-54502970D01*
X95748440Y-54500547D01*
X95763738Y-54498125D01*
X95764874Y-54497931D01*
X95768287Y-54497352D01*
X95852383Y-54461408D01*
X95901883Y-54425444D01*
X95929628Y-54401203D01*
X95976536Y-54322693D01*
X95995443Y-54264502D01*
X96005500Y-54201000D01*
X96005500Y-53000000D01*
X96794415Y-53000000D01*
X96814738Y-53348929D01*
X96875430Y-53693133D01*
X96875430Y-53693134D01*
X96975672Y-54027965D01*
X96975674Y-54027972D01*
X97079335Y-54268284D01*
X97114111Y-54348904D01*
X97288870Y-54651596D01*
X97497588Y-54931953D01*
X97737442Y-55186183D01*
X98005189Y-55410849D01*
X98297207Y-55602913D01*
X98609549Y-55759777D01*
X98937989Y-55879319D01*
X98937992Y-55879319D01*
X98937993Y-55879320D01*
X99278075Y-55959921D01*
X99278080Y-55959921D01*
X99278086Y-55959923D01*
X99625241Y-56000500D01*
X99625244Y-56000500D01*
X99974756Y-56000500D01*
X99974759Y-56000500D01*
X100321914Y-55959923D01*
X100321920Y-55959921D01*
X100321924Y-55959921D01*
X100548645Y-55906187D01*
X100662011Y-55879319D01*
X100990451Y-55759777D01*
X101302793Y-55602913D01*
X101594811Y-55410849D01*
X101862558Y-55186183D01*
X102102412Y-54931953D01*
X102311130Y-54651596D01*
X102485889Y-54348904D01*
X102624326Y-54027971D01*
X102724569Y-53693136D01*
X102785262Y-53348927D01*
X102805585Y-53000000D01*
X102785262Y-52651073D01*
X102724569Y-52306864D01*
X102624326Y-51972029D01*
X102485889Y-51651096D01*
X102311130Y-51348404D01*
X102102412Y-51068047D01*
X101862558Y-50813817D01*
X101594811Y-50589151D01*
X101462443Y-50502091D01*
X101302794Y-50397087D01*
X100990453Y-50240224D01*
X100990452Y-50240223D01*
X100990451Y-50240223D01*
X100662011Y-50120681D01*
X100662012Y-50120681D01*
X100662006Y-50120679D01*
X100321924Y-50040078D01*
X100209089Y-50026889D01*
X99974759Y-49999500D01*
X99625241Y-49999500D01*
X99433950Y-50021858D01*
X99278075Y-50040078D01*
X98937993Y-50120679D01*
X98741191Y-50192309D01*
X98609549Y-50240223D01*
X98609548Y-50240223D01*
X98609546Y-50240224D01*
X98297205Y-50397087D01*
X98005190Y-50589150D01*
X97737443Y-50813815D01*
X97497591Y-51068043D01*
X97288871Y-51348402D01*
X97288869Y-51348405D01*
X97114111Y-51651095D01*
X97114108Y-51651102D01*
X96975674Y-51972027D01*
X96975672Y-51972034D01*
X96875430Y-52306865D01*
X96875430Y-52306866D01*
X96814738Y-52651070D01*
X96794415Y-53000000D01*
X96005500Y-53000000D01*
X96005500Y-43599000D01*
X96002970Y-43566856D01*
X95998125Y-43536263D01*
X95997995Y-43535498D01*
X95997353Y-43531714D01*
X95997352Y-43531713D01*
X95961408Y-43447617D01*
X95961408Y-43447616D01*
X95925444Y-43398117D01*
X95901203Y-43370372D01*
X95822693Y-43323464D01*
X95822691Y-43323463D01*
X95822689Y-43323462D01*
X95764499Y-43304556D01*
X95764500Y-43304556D01*
X95701003Y-43294500D01*
X95701000Y-43294500D01*
X78999000Y-43294500D01*
X78966856Y-43297030D01*
X78951559Y-43299452D01*
X78936262Y-43301875D01*
X78931715Y-43302647D01*
X78931713Y-43302647D01*
X78847617Y-43338591D01*
X78798118Y-43374555D01*
X78770372Y-43398797D01*
X78723464Y-43477307D01*
X78723462Y-43477310D01*
X78704556Y-43535499D01*
X78694500Y-43598996D01*
X78694500Y-46191903D01*
X78694353Y-46193960D01*
X78694353Y-46206054D01*
X78694500Y-46208108D01*
X78694500Y-48391903D01*
X78694353Y-48393960D01*
X78694353Y-48406053D01*
X75847739Y-48406053D01*
X75904703Y-48255852D01*
X75968412Y-47997376D01*
X76000500Y-47733106D01*
X76000500Y-47600000D01*
X76000500Y-47560118D01*
X76000500Y-44201618D01*
X76000606Y-44198381D01*
X76015683Y-43968352D01*
X76016528Y-43961934D01*
X76061183Y-43737438D01*
X76062856Y-43731188D01*
X76136438Y-43514427D01*
X76138909Y-43508460D01*
X76240154Y-43303154D01*
X76243384Y-43297560D01*
X76370561Y-43107227D01*
X76374503Y-43102091D01*
X76525429Y-42929991D01*
X76529991Y-42925429D01*
X76702094Y-42774499D01*
X76707227Y-42770561D01*
X76897560Y-42643384D01*
X76903154Y-42640154D01*
X77108460Y-42538909D01*
X77114427Y-42536438D01*
X77331188Y-42462856D01*
X77337438Y-42461183D01*
X77401263Y-42448487D01*
X77561938Y-42416527D01*
X77568352Y-42415683D01*
X77798382Y-42400606D01*
X77801621Y-42400500D01*
X77839882Y-42400500D01*
X102160118Y-42400500D01*
X102198379Y-42400500D01*
X102201617Y-42400606D01*
G37*
%TD.AperFunction*%
%TD*%
%TA.AperFunction,Conductor*%
%TO.N,VBUS*%
G36*
X95759191Y-43518907D02*
G01*
X95795155Y-43568407D01*
X95800000Y-43599000D01*
X95800000Y-54201000D01*
X95781093Y-54259191D01*
X95731593Y-54295155D01*
X95701000Y-54300000D01*
X91499000Y-54300000D01*
X91440809Y-54281093D01*
X91404845Y-54231593D01*
X91400000Y-54201000D01*
X91400000Y-53060626D01*
X93189500Y-53060626D01*
X93217175Y-53163915D01*
X93220883Y-53177751D01*
X93281504Y-53282749D01*
X93281506Y-53282751D01*
X93281508Y-53282754D01*
X93367246Y-53368492D01*
X93367248Y-53368493D01*
X93444346Y-53413006D01*
X93459672Y-53423919D01*
X93471164Y-53433877D01*
X93604696Y-53494859D01*
X93604697Y-53494859D01*
X93604699Y-53494860D01*
X93713479Y-53510500D01*
X93713484Y-53510500D01*
X93786521Y-53510500D01*
X93895300Y-53494860D01*
X93895301Y-53494859D01*
X93895304Y-53494859D01*
X94028836Y-53433877D01*
X94040328Y-53423918D01*
X94055648Y-53413008D01*
X94132754Y-53368492D01*
X94218492Y-53282754D01*
X94279118Y-53177747D01*
X94310500Y-53060626D01*
X94310500Y-53000000D01*
X94310500Y-52960118D01*
X94310500Y-52939374D01*
X94279118Y-52822253D01*
X94279116Y-52822250D01*
X94279116Y-52822248D01*
X94218495Y-52717250D01*
X94218493Y-52717248D01*
X94218492Y-52717246D01*
X94132754Y-52631508D01*
X94055652Y-52586993D01*
X94040326Y-52576079D01*
X94028837Y-52566124D01*
X94028836Y-52566123D01*
X93895304Y-52505141D01*
X93895300Y-52505139D01*
X93786521Y-52489500D01*
X93786516Y-52489500D01*
X93713484Y-52489500D01*
X93713479Y-52489500D01*
X93604697Y-52505140D01*
X93604695Y-52505140D01*
X93471162Y-52566123D01*
X93459674Y-52576078D01*
X93444346Y-52586993D01*
X93367248Y-52631506D01*
X93281504Y-52717250D01*
X93220883Y-52822248D01*
X93220882Y-52822253D01*
X93189500Y-52939374D01*
X93189500Y-52960118D01*
X93189500Y-53000000D01*
X93189500Y-53060626D01*
X91400000Y-53060626D01*
X91400000Y-51799000D01*
X91418907Y-51740809D01*
X91468407Y-51704845D01*
X91499000Y-51700000D01*
X93799999Y-51700000D01*
X93800000Y-51700000D01*
X93800000Y-46500000D01*
X93799999Y-46500000D01*
X86200001Y-46500000D01*
X86200000Y-46500000D01*
X86200000Y-51700000D01*
X88501000Y-51700000D01*
X88559191Y-51718907D01*
X88595155Y-51768407D01*
X88600000Y-51799000D01*
X88600000Y-54201000D01*
X88581093Y-54259191D01*
X88531593Y-54295155D01*
X88501000Y-54300000D01*
X84299000Y-54300000D01*
X84240809Y-54281093D01*
X84204845Y-54231593D01*
X84200000Y-54201000D01*
X84200000Y-53073402D01*
X85739500Y-53073402D01*
X85770139Y-53177747D01*
X85780857Y-53214250D01*
X85860222Y-53337744D01*
X85971164Y-53433877D01*
X86104696Y-53494859D01*
X86104697Y-53494859D01*
X86104699Y-53494860D01*
X86213479Y-53510500D01*
X86213484Y-53510500D01*
X86286521Y-53510500D01*
X86395300Y-53494860D01*
X86395301Y-53494859D01*
X86395304Y-53494859D01*
X86528836Y-53433877D01*
X86639778Y-53337744D01*
X86719143Y-53214250D01*
X86760500Y-53073399D01*
X86760500Y-52926601D01*
X86719143Y-52785750D01*
X86639778Y-52662256D01*
X86528836Y-52566123D01*
X86395304Y-52505141D01*
X86395300Y-52505139D01*
X86286521Y-52489500D01*
X86286516Y-52489500D01*
X86213484Y-52489500D01*
X86213479Y-52489500D01*
X86104699Y-52505139D01*
X85971164Y-52566123D01*
X85860222Y-52662256D01*
X85780857Y-52785749D01*
X85780856Y-52785752D01*
X85739500Y-52926597D01*
X85739500Y-53073402D01*
X84200000Y-53073402D01*
X84200000Y-48700000D01*
X78999000Y-48700000D01*
X78940809Y-48681093D01*
X78904845Y-48631593D01*
X78900000Y-48601000D01*
X78900000Y-43599000D01*
X78918907Y-43540809D01*
X78968407Y-43504845D01*
X78999000Y-43500000D01*
X95701000Y-43500000D01*
X95759191Y-43518907D01*
G37*
%TD.AperFunction*%
%TD*%
M02*
